STARTFONT 2.1
COMMENT $Xorg: $
COMMENT ISO10646-1 extension by Markus Kuhn <mkuhn@acm.org>, 2001-03-20
COMMENT  (c) Copyright Bigelow & Holmes 1986, 1985. Lucida is a registered
COMMENT  trademark of Bigelow & Holmes. See LEGAL NOTICE file for terms 
COMMENT  of the license. 
FONT -B&H-Lucida-Bold-R-Normal-Sans-26-190-100-100-P-166-ISO10646-1
SIZE 19 100 100
FONTBOUNDINGBOX 51 38 -17 -10
STARTPROPERTIES 22
COMMENT Begin LogicalFontDescription
FONTNAME_REGISTRY ""
FOUNDRY "B&H"
FAMILY_NAME "Lucida"
WEIGHT_NAME "Bold"
SLANT "R"
SETWIDTH_NAME "Normal"
ADD_STYLE_NAME "Sans"
PIXEL_SIZE 26
POINT_SIZE 190
RESOLUTION_X 100
RESOLUTION_Y 100
SPACING "P"
AVERAGE_WIDTH 166
CHARSET_REGISTRY "ISO10646"
CHARSET_ENCODING "1"
COMMENT END LogicalFontDescription
COPYRIGHT "Copyright Bigelow & Holmes 1986, 1985."
FONT_ASCENT 24
FONT_DESCENT 6
DEFAULT_CHAR 0
FACE_NAME "Lucida Sans Bold"
X_HEIGHT 14
CAP_HEIGHT 19
ENDPROPERTIES
CHARS 756
STARTCHAR char0
ENCODING 0
SWIDTH 813 0
DWIDTH 21 0
BBX 17 19 2 0
BITMAP
AAAA80
000000
800080
000000
800080
000000
800080
000000
800080
000000
800080
000000
800080
000000
800080
000000
800080
000000
AAAA80
ENDCHAR
STARTCHAR space
ENCODING 32
SWIDTH 343 0
DWIDTH 9 0
BBX 1 1 0 0
BITMAP
00
ENDCHAR
STARTCHAR exclam
ENCODING 33
SWIDTH 265 0
DWIDTH 9 0
BBX 5 19 2 0
BITMAP
F8
F8
F8
F8
F8
F8
F8
F8
F8
70
70
70
70
00
00
00
F8
F8
F8
ENDCHAR
STARTCHAR quotedbl
ENCODING 34
SWIDTH 530 0
DWIDTH 14 0
BBX 12 9 1 11
BITMAP
F9F0
F9F0
F9F0
F9F0
F9F0
70E0
70E0
70E0
70E0
ENDCHAR
STARTCHAR numbersign
ENCODING 35
SWIDTH 687 0
DWIDTH 18 0
BBX 16 19 1 0
BITMAP
038C
030C
0318
0318
0618
3FFF
7FFF
0630
0C30
0C30
0C60
FFFE
FFFC
1860
18C0
18C0
30C0
30C0
31C0
ENDCHAR
STARTCHAR dollar
ENCODING 36
SWIDTH 687 0
DWIDTH 18 0
BBX 13 25 2 -3
BITMAP
0700
0700
0700
1FF0
3FF0
7FF0
7B10
7B00
7B00
7F00
7F00
3F80
1FE0
07F0
07F0
07F8
0678
0678
C678
FFF0
FFF0
7FC0
0700
0700
0700
ENDCHAR
STARTCHAR percent
ENCODING 37
SWIDTH 898 0
DWIDTH 23 0
BBX 22 19 1 0
BITMAP
3E00F0
7F01E0
7F01C0
E78380
E38780
E38F00
E79E00
7F1C00
7F3C00
3E7800
00F1F0
00E3F8
01E7FC
03C71C
07871C
07071C
0F07FC
1E03F8
3C01F0
ENDCHAR
STARTCHAR ampersand
ENCODING 38
SWIDTH 792 0
DWIDTH 21 0
BBX 19 19 1 0
BITMAP
03F000
0FFC00
1FFE00
1F1E00
1F1E00
1FBE00
0FFC00
07F000
1FE1E0
3FF1E0
7DF1E0
F9F9C0
F8FFC0
F8FF80
FC7F80
7C3F00
7FFF00
3FFF80
0FC7C0
ENDCHAR
STARTCHAR quotesingle
ENCODING 39
SWIDTH 265 0
DWIDTH 7 0
BBX 5 9 1 11
BITMAP
F8
F8
F8
F8
F8
70
70
70
70
ENDCHAR
STARTCHAR parenleft
ENCODING 40
SWIDTH 386 0
DWIDTH 10 0
BBX 8 25 1 -5
BITMAP
01
07
0F
1F
1E
3C
7C
7C
78
F8
F8
F8
F8
F8
F8
F8
78
7C
7C
3C
1E
1F
0F
07
01
ENDCHAR
STARTCHAR parenright
ENCODING 41
SWIDTH 386 0
DWIDTH 10 0
BBX 8 25 1 -5
BITMAP
80
E0
F0
F8
78
3C
3E
3E
1E
1F
1F
1F
1F
1F
1F
1F
1E
3E
3E
3C
78
F8
F0
E0
80
ENDCHAR
STARTCHAR asterisk
ENCODING 42
SWIDTH 464 0
DWIDTH 12 0
BBX 10 10 1 9
BITMAP
1E00
0C00
4C80
7F80
F3C0
0000
3F00
7780
3300
1200
ENDCHAR
STARTCHAR plus
ENCODING 43
SWIDTH 687 0
DWIDTH 18 0
BBX 15 16 1 0
BITMAP
0380
0380
0380
0380
0380
0380
FFFE
FFFE
FFFE
0380
0380
0380
0380
0380
0380
0380
ENDCHAR
STARTCHAR comma
ENCODING 44
SWIDTH 343 0
DWIDTH 9 0
BBX 5 9 2 -4
BITMAP
F8
F8
F8
F8
F8
38
70
F0
C0
ENDCHAR
STARTCHAR hyphen
ENCODING 45
SWIDTH 289 0
DWIDTH 8 0
BBX 6 3 1 7
BITMAP
FC
FC
FC
ENDCHAR
STARTCHAR period
ENCODING 46
SWIDTH 343 0
DWIDTH 9 0
BBX 5 5 2 0
BITMAP
F8
F8
F8
F8
F8
ENDCHAR
STARTCHAR slash
ENCODING 47
SWIDTH 596 0
DWIDTH 15 0
BBX 15 24 0 -4
BITMAP
001E
001C
003C
0038
0078
0070
00F0
00E0
00E0
01C0
01C0
0380
0380
0700
0700
0E00
0E00
1E00
1C00
3C00
3800
7800
7000
F000
ENDCHAR
STARTCHAR zero
ENCODING 48
SWIDTH 687 0
DWIDTH 18 0
BBX 16 19 1 0
BITMAP
07E0
1FF8
3FFC
3C3C
7C3E
781E
F81F
F81F
F81F
F81F
F81F
F81F
F81F
781E
7C3E
3C3C
3FFC
1FF8
07E0
ENDCHAR
STARTCHAR one
ENCODING 49
SWIDTH 687 0
DWIDTH 18 0
BBX 8 19 4 0
BITMAP
FF
FF
FF
1F
1F
1F
1F
1F
1F
1F
1F
1F
1F
1F
1F
1F
1F
1F
1F
ENDCHAR
STARTCHAR two
ENCODING 50
SWIDTH 687 0
DWIDTH 18 0
BBX 14 19 2 0
BITMAP
3FC0
7FF0
7FF8
40FC
007C
007C
007C
00FC
00F8
01F0
03E0
07C0
0F80
3E00
7C00
FC00
FFFC
FFFC
FFFC
ENDCHAR
STARTCHAR three
ENCODING 51
SWIDTH 687 0
DWIDTH 18 0
BBX 14 19 2 0
BITMAP
3FC0
FFF0
FFF0
C1F8
00F8
00F8
00F8
01F0
3FC0
3FE0
3FF0
01F8
00FC
007C
007C
C0FC
FFF8
FFF0
7FC0
ENDCHAR
STARTCHAR four
ENCODING 52
SWIDTH 687 0
DWIDTH 18 0
BBX 16 19 1 0
BITMAP
007C
00FC
01FC
03FC
07FC
0F7C
1E7C
3E7C
3C7C
787C
F07C
FFFF
FFFF
FFFF
007C
007C
007C
007C
007C
ENDCHAR
STARTCHAR five
ENCODING 53
SWIDTH 687 0
DWIDTH 18 0
BBX 13 19 3 0
BITMAP
FFF8
FFF8
FFF8
E000
E000
E000
FF00
FFC0
FFE0
07F0
01F8
00F8
00F8
00F8
00F8
C1F0
FFF0
FFE0
7F80
ENDCHAR
STARTCHAR six
ENCODING 54
SWIDTH 687 0
DWIDTH 18 0
BBX 16 19 1 0
BITMAP
03FC
0FFE
1FFE
3F06
7E00
7C00
F800
F9F0
FFFC
FFFE
FC3F
F81F
F81F
F81F
781F
7C3E
3FFE
1FFC
07F0
ENDCHAR
STARTCHAR seven
ENCODING 55
SWIDTH 687 0
DWIDTH 18 0
BBX 14 19 3 0
BITMAP
FFFC
FFFC
FFFC
003C
0078
00F0
01F0
01E0
03C0
0780
0F80
0F00
1F00
1E00
3E00
3E00
7C00
7C00
7C00
ENDCHAR
STARTCHAR eight
ENCODING 56
SWIDTH 687 0
DWIDTH 18 0
BBX 15 19 1 0
BITMAP
0FE0
1FF8
3FFC
7C7C
783C
783C
7E38
3FF8
1FE0
1FF8
3DFC
787C
F83E
F81E
F81E
FC3E
7FFC
3FF8
0FE0
ENDCHAR
STARTCHAR nine
ENCODING 57
SWIDTH 687 0
DWIDTH 18 0
BBX 16 19 1 0
BITMAP
07E0
1FF8
7FFC
7C3E
F81E
F81F
F81F
F81F
FC3F
7FFF
3FFF
0F9F
001F
003E
007E
60FC
7FF8
7FF0
3FC0
ENDCHAR
STARTCHAR colon
ENCODING 58
SWIDTH 343 0
DWIDTH 9 0
BBX 5 14 2 0
BITMAP
F8
F8
F8
F8
F8
00
00
00
00
F8
F8
F8
F8
F8
ENDCHAR
STARTCHAR semicolon
ENCODING 59
SWIDTH 343 0
DWIDTH 9 0
BBX 5 18 2 -4
BITMAP
F8
F8
F8
F8
F8
00
00
00
00
F8
F8
F8
F8
F8
38
70
F0
C0
ENDCHAR
STARTCHAR less
ENCODING 60
SWIDTH 687 0
DWIDTH 18 0
BBX 15 16 1 0
BITMAP
0002
000E
003E
00FE
01F8
07E0
1F80
FE00
7E00
1F80
07E0
01F8
00FE
003E
000E
0002
ENDCHAR
STARTCHAR equal
ENCODING 61
SWIDTH 687 0
DWIDTH 18 0
BBX 15 10 1 2
BITMAP
FFFE
FFFE
FFFE
0000
0000
0000
0000
FFFE
FFFE
FFFE
ENDCHAR
STARTCHAR greater
ENCODING 62
SWIDTH 687 0
DWIDTH 18 0
BBX 15 16 1 0
BITMAP
8000
E000
F800
FE00
3F00
0FC0
03F0
00FC
00FE
03F0
0FC0
3F00
FE00
F800
E000
8000
ENDCHAR
STARTCHAR question
ENCODING 63
SWIDTH 572 0
DWIDTH 15 0
BBX 13 19 1 0
BITMAP
7FC0
FFF0
FFF8
C1F8
00F8
00F8
00F0
01E0
03C0
0780
0F80
0F00
1F00
0000
0000
0000
1F00
1F00
1F00
ENDCHAR
STARTCHAR at
ENCODING 64
SWIDTH 833 0
DWIDTH 22 0
BBX 20 19 3 0
BITMAP
00FE00
03FF80
0783C0
1E00E0
180060
307E70
71FC30
638C30
E70C30
C61C30
CE3870
CE7860
CFD8C0
CF9F80
670F00
700000
381000
1FF000
07E000
ENDCHAR
STARTCHAR A
ENCODING 65
SWIDTH 773 0
DWIDTH 20 0
BBX 19 19 1 0
BITMAP
01F000
01F800
03F800
03F800
07FC00
077C00
077E00
0F3E00
0E3E00
0E3F00
1C1F00
1FFF00
3FFF80
3FFF80
380FC0
7807C0
7007C0
7003E0
E003E0
ENDCHAR
STARTCHAR B
ENCODING 66
SWIDTH 669 0
DWIDTH 17 0
BBX 15 19 2 0
BITMAP
FFE0
FFF8
FFFC
F8FC
F87C
F87C
F878
F8F0
FFE0
FFE0
FFF8
F8FC
F83E
F83E
F83E
F87E
FFFC
FFFC
FFF0
ENDCHAR
STARTCHAR C
ENCODING 67
SWIDTH 726 0
DWIDTH 19 0
BBX 17 19 1 0
BITMAP
01FF00
0FFF80
1FFF80
3F0180
7E0000
7C0000
FC0000
F80000
F80000
F80000
F80000
F80000
FC0000
7C0000
7E0000
3F8180
1FFF80
0FFF80
03FE00
ENDCHAR
STARTCHAR D
ENCODING 68
SWIDTH 819 0
DWIDTH 21 0
BBX 18 19 2 0
BITMAP
FFF800
FFFE00
FFFF00
F83F80
F81F80
F80F80
F807C0
F807C0
F807C0
F807C0
F807C0
F807C0
F807C0
F80F80
F80F80
F83F00
FFFF00
FFFC00
FFF000
ENDCHAR
STARTCHAR E
ENCODING 69
SWIDTH 645 0
DWIDTH 17 0
BBX 13 19 2 0
BITMAP
FFF0
FFF0
FFF0
F800
F800
F800
F800
F800
FFE0
FFE0
FFE0
F800
F800
F800
F800
F800
FFF8
FFF8
FFF8
ENDCHAR
STARTCHAR F
ENCODING 70
SWIDTH 602 0
DWIDTH 16 0
BBX 13 19 2 0
BITMAP
FFF8
FFF8
FFF8
F800
F800
F800
F800
F800
FFF0
FFF0
FFF0
F800
F800
F800
F800
F800
F800
F800
F800
ENDCHAR
STARTCHAR G
ENCODING 71
SWIDTH 759 0
DWIDTH 20 0
BBX 17 19 1 0
BITMAP
01FF80
0FFF80
1FFF80
3F0180
7E0000
7C0000
FC0000
F80000
F80000
F80000
F80F80
F80F80
F80F80
7C0F80
7E0F80
3F8F80
1FFF80
0FFF80
03FF00
ENDCHAR
STARTCHAR H
ENCODING 72
SWIDTH 813 0
DWIDTH 21 0
BBX 17 19 2 0
BITMAP
F80F80
F80F80
F80F80
F80F80
F80F80
F80F80
F80F80
F80F80
FFFF80
FFFF80
FFFF80
F80F80
F80F80
F80F80
F80F80
F80F80
F80F80
F80F80
F80F80
ENDCHAR
STARTCHAR I
ENCODING 73
SWIDTH 361 0
DWIDTH 9 0
BBX 5 19 2 0
BITMAP
F8
F8
F8
F8
F8
F8
F8
F8
F8
F8
F8
F8
F8
F8
F8
F8
F8
F8
F8
ENDCHAR
STARTCHAR J
ENCODING 74
SWIDTH 501 0
DWIDTH 13 0
BBX 11 23 0 -4
BITMAP
03E0
03E0
03E0
03E0
03E0
03E0
03E0
03E0
03E0
03E0
03E0
03E0
03E0
03E0
03E0
03E0
03E0
03E0
03E0
87E0
FFC0
FF80
7F00
ENDCHAR
STARTCHAR K
ENCODING 75
SWIDTH 753 0
DWIDTH 20 0
BBX 17 19 2 0
BITMAP
F81E00
F81C00
F83C00
F87800
F8F000
F8E000
F9E000
FBC000
FBC000
FFC000
FFE000
FBF000
F9F800
F9F800
F8FC00
F87E00
F87E00
F83F00
F81F80
ENDCHAR
STARTCHAR L
ENCODING 76
SWIDTH 620 0
DWIDTH 16 0
BBX 13 19 2 0
BITMAP
F800
F800
F800
F800
F800
F800
F800
F800
F800
F800
F800
F800
F800
F800
F800
F800
FFF8
FFF8
FFF8
ENDCHAR
STARTCHAR M
ENCODING 77
SWIDTH 940 0
DWIDTH 24 0
BBX 20 19 2 0
BITMAP
FC03F0
FC03F0
FE07F0
FE07F0
FE07F0
FF0FF0
EF0FF0
EF0FF0
EF9DF0
E79DF0
E79DF0
E7F9F0
E3F9F0
E3F9F0
E3F1F0
E1F1F0
E1F1F0
E1E1F0
E001F0
ENDCHAR
STARTCHAR N
ENCODING 78
SWIDTH 783 0
DWIDTH 20 0
BBX 16 19 2 0
BITMAP
F007
F807
FC07
FE07
FE07
FF07
FF87
FFC7
EFC7
E7E7
E3F7
E3FF
E1FF
E0FF
E07F
E07F
E03F
E01F
E00F
ENDCHAR
STARTCHAR O
ENCODING 79
SWIDTH 855 0
DWIDTH 22 0
BBX 20 19 1 0
BITMAP
03FC00
0FFF00
1FFF80
3F0FC0
7E07E0
7C03E0
F801F0
F801F0
F801F0
F801F0
F801F0
F801F0
F801F0
7C03E0
7E07E0
3F0FC0
1FFF80
0FFF00
03FC00
ENDCHAR
STARTCHAR P
ENCODING 80
SWIDTH 657 0
DWIDTH 17 0
BBX 14 19 2 0
BITMAP
FFE0
FFF8
FFFC
F8FC
F87C
F87C
F87C
F8FC
F9F8
FFF8
FFF0
FFC0
F800
F800
F800
F800
F800
F800
F800
ENDCHAR
STARTCHAR Q
ENCODING 81
SWIDTH 855 0
DWIDTH 22 0
BBX 23 23 1 -4
BITMAP
03FC00
0FFF00
1FFF80
3F0FC0
7E07E0
7C03E0
F801F0
F801F0
F801F0
F801F0
F801F0
F801F0
F801F0
7C03E0
7E07E0
3F0FC0
1FFF80
0FFF00
03FF00
000FFE
0007FC
0001F8
000030
ENDCHAR
STARTCHAR R
ENCODING 82
SWIDTH 734 0
DWIDTH 19 0
BBX 17 19 2 0
BITMAP
FFE000
FFF800
FFF800
F8FC00
F87C00
F87C00
F87C00
F8F800
FFF800
FFF000
FFE000
F9F000
F9F800
F8F800
F8FC00
F87E00
F87F00
F83F00
F83F80
ENDCHAR
STARTCHAR S
ENCODING 83
SWIDTH 594 0
DWIDTH 15 0
BBX 14 19 1 0
BITMAP
0FF8
3FF8
7FF8
FC18
F800
FC00
FE00
7F80
7FE0
3FF0
0FF8
03FC
00FC
007C
007C
C0FC
FFF8
FFF0
FFC0
ENDCHAR
STARTCHAR T
ENCODING 84
SWIDTH 735 0
DWIDTH 19 0
BBX 19 19 0 0
BITMAP
FFFFE0
FFFFE0
FFFFE0
01F000
01F000
01F000
01F000
01F000
01F000
01F000
01F000
01F000
01F000
01F000
01F000
01F000
01F000
01F000
01F000
ENDCHAR
STARTCHAR U
ENCODING 85
SWIDTH 783 0
DWIDTH 20 0
BBX 16 19 2 0
BITMAP
F81F
F81F
F81F
F81F
F81F
F81F
F81F
F81F
F81F
F81F
F81F
F81F
F81F
F81F
FC3F
7C3E
7FFE
1FFC
07F0
ENDCHAR
STARTCHAR V
ENCODING 86
SWIDTH 735 0
DWIDTH 19 0
BBX 18 19 0 0
BITMAP
F801C0
FC0380
7C0380
7C0380
3E0700
3E0700
3F0700
1F0E00
1F0E00
1F8E00
0F9C00
0F9C00
0FDC00
07F800
07F800
07F800
03F000
03F000
03F000
ENDCHAR
STARTCHAR W
ENCODING 87
SWIDTH 940 0
DWIDTH 24 0
BBX 24 19 0 0
BITMAP
F81E07
F83E07
FC3E0E
7C3E0E
7C3F0E
7C7F0E
7E7F1C
3E7F1C
3E7F1C
3E77BC
3EE7B8
1FE7B8
1FE7B8
1FE7F8
1FC3F0
0FC3F0
0FC3F0
0FC3F0
0FC1E0
ENDCHAR
STARTCHAR X
ENCODING 88
SWIDTH 699 0
DWIDTH 18 0
BBX 17 19 1 0
BITMAP
FC0780
7E0F00
3E1E00
3F1C00
1FBC00
1FB800
0FF000
07F000
07E000
03F000
03F000
07F800
0FF800
0EFC00
1E7C00
3C7E00
383F00
783F00
F01F80
ENDCHAR
STARTCHAR Y
ENCODING 89
SWIDTH 738 0
DWIDTH 19 0
BBX 17 19 1 0
BITMAP
FC0780
7C0700
7E0F00
3E0E00
3F1C00
1F1C00
1FB800
0FF800
0FF000
07F000
03E000
03E000
03E000
03E000
03E000
03E000
03E000
03E000
03E000
ENDCHAR
STARTCHAR Z
ENCODING 90
SWIDTH 675 0
DWIDTH 18 0
BBX 14 19 2 0
BITMAP
FFFC
FFFC
FFFC
00FC
01F8
01F8
03F0
07E0
07E0
0FC0
1F80
1F80
3F00
7E00
7E00
FC00
FFFC
FFFC
FFFC
ENDCHAR
STARTCHAR bracketleft
ENCODING 91
SWIDTH 386 0
DWIDTH 10 0
BBX 6 24 2 -4
BITMAP
FC
FC
FC
F0
F0
F0
F0
F0
F0
F0
F0
F0
F0
F0
F0
F0
F0
F0
F0
F0
F0
FC
FC
FC
ENDCHAR
STARTCHAR backslash
ENCODING 92
SWIDTH 596 0
DWIDTH 15 0
BBX 15 24 0 -4
BITMAP
F000
7000
7800
3800
3C00
1C00
1E00
0E00
0E00
0700
0700
0380
0380
01C0
01C0
00E0
00E0
00F0
0070
0078
0038
003C
001C
001E
ENDCHAR
STARTCHAR bracketright
ENCODING 93
SWIDTH 386 0
DWIDTH 10 0
BBX 7 24 1 -4
BITMAP
FE
FE
FE
1E
1E
1E
1E
1E
1E
1E
1E
1E
1E
1E
1E
1E
1E
1E
1E
1E
1E
FE
FE
FE
ENDCHAR
STARTCHAR asciicircum
ENCODING 94
SWIDTH 687 0
DWIDTH 18 0
BBX 15 16 1 3
BITMAP
0100
0100
0380
0380
07C0
07C0
0FE0
0EE0
1EF0
1C70
1C70
3838
3838
701C
701C
E00E
ENDCHAR
STARTCHAR underscore
ENCODING 95
SWIDTH 500 0
DWIDTH 13 0
BBX 11 3 1 -3
BITMAP
FFE0
FFE0
FFE0
ENDCHAR
STARTCHAR grave
ENCODING 96
SWIDTH 675 0
DWIDTH 18 0
BBX 7 3 4 17
BITMAP
F8
3C
1E
ENDCHAR
STARTCHAR a
ENCODING 97
SWIDTH 623 0
DWIDTH 16 0
BBX 14 14 1 0
BITMAP
1FC0
7FF0
7FF8
41F8
00F8
00F8
1FF8
7FF8
FFF8
F8F8
F8F8
FFFC
7FFC
3E7C
ENDCHAR
STARTCHAR b
ENCODING 98
SWIDTH 696 0
DWIDTH 18 0
BBX 15 20 2 0
BITMAP
F800
F800
F800
F800
F800
F800
F9F0
FBF8
FFFC
FC7C
F83E
F83E
F83E
F83E
F83E
F87E
FC7C
FFFC
FFF8
F3E0
ENDCHAR
STARTCHAR c
ENCODING 99
SWIDTH 545 0
DWIDTH 14 0
BBX 12 14 1 0
BITMAP
0FE0
1FF0
3FF0
7E10
FC00
F800
F800
F800
F800
FC00
7E10
7FF0
3FF0
0FF0
ENDCHAR
STARTCHAR d
ENCODING 100
SWIDTH 696 0
DWIDTH 18 0
BBX 15 20 1 0
BITMAP
003E
003E
003E
003E
003E
003E
1F3E
3FFE
7FFE
7C7E
FC3E
F83E
F83E
F83E
F83E
F83E
7C7E
7FFE
3FBE
1F3E
ENDCHAR
STARTCHAR e
ENCODING 101
SWIDTH 614 0
DWIDTH 16 0
BBX 14 14 1 0
BITMAP
0FE0
3FF0
7FF8
7CF8
F87C
FFFC
FFFC
FFFC
F800
FC00
7E04
3FFC
1FFC
07F8
ENDCHAR
STARTCHAR f
ENCODING 102
SWIDTH 461 0
DWIDTH 12 0
BBX 12 20 0 0
BITMAP
07F0
1FF0
1FF0
3E00
3E00
3E00
FFE0
FFE0
FFE0
3E00
3E00
3E00
3E00
3E00
3E00
3E00
3E00
3E00
3E00
3E00
ENDCHAR
STARTCHAR g
ENCODING 103
SWIDTH 696 0
DWIDTH 18 0
BBX 15 19 1 -5
BITMAP
0FBE
3FFE
7FFE
7C7E
FC3E
F83E
F83E
F83E
F83E
F83E
7C7E
7FBE
3FBE
1E3E
003E
207E
3FFC
7FF8
1FE0
ENDCHAR
STARTCHAR h
ENCODING 104
SWIDTH 693 0
DWIDTH 18 0
BBX 14 20 2 0
BITMAP
F800
F800
F800
F800
F800
F800
F9F0
FBF8
FFFC
FFFC
FC7C
F87C
F87C
F87C
F87C
F87C
F87C
F87C
F87C
F87C
ENDCHAR
STARTCHAR i
ENCODING 105
SWIDTH 361 0
DWIDTH 9 0
BBX 5 20 2 0
BITMAP
F8
F8
F8
00
00
00
F8
F8
F8
F8
F8
F8
F8
F8
F8
F8
F8
F8
F8
F8
ENDCHAR
STARTCHAR j
ENCODING 106
SWIDTH 361 0
DWIDTH 9 0
BBX 10 25 -2 -5
BITMAP
07C0
07C0
07C0
0000
0000
0000
07C0
07C0
07C0
07C0
07C0
07C0
07C0
07C0
07C0
07C0
07C0
07C0
07C0
07C0
07C0
87C0
FF80
FF80
FE00
ENDCHAR
STARTCHAR k
ENCODING 107
SWIDTH 681 0
DWIDTH 18 0
BBX 15 20 2 0
BITMAP
F800
F800
F800
F800
F800
F800
F878
F870
F8F0
F9E0
F9C0
FBC0
FFC0
FBE0
FBF0
F9F0
F9F8
F8FC
F8FC
F87E
ENDCHAR
STARTCHAR l
ENCODING 108
SWIDTH 361 0
DWIDTH 9 0
BBX 5 20 2 0
BITMAP
F8
F8
F8
F8
F8
F8
F8
F8
F8
F8
F8
F8
F8
F8
F8
F8
F8
F8
F8
F8
ENDCHAR
STARTCHAR m
ENCODING 109
SWIDTH 1006 0
DWIDTH 26 0
BBX 21 14 3 0
BITMAP
FBE1F0
F7F3F8
FFFFF8
FFFFF8
FCFCF8
F8F8F8
F8F8F8
F8F8F8
F8F8F8
F8F8F8
F8F8F8
F8F8F8
F8F8F8
F8F8F8
ENDCHAR
STARTCHAR n
ENCODING 110
SWIDTH 693 0
DWIDTH 18 0
BBX 14 14 2 0
BITMAP
F9F0
FBF8
FFFC
FFFC
FC7C
F87C
F87C
F87C
F87C
F87C
F87C
F87C
F87C
F87C
ENDCHAR
STARTCHAR o
ENCODING 111
SWIDTH 675 0
DWIDTH 18 0
BBX 16 14 1 0
BITMAP
07E0
1FF8
7FFE
7C3E
FC3F
F81F
F81F
F81F
F81F
FC3F
7C3E
7FFE
1FF8
07E0
ENDCHAR
STARTCHAR p
ENCODING 112
SWIDTH 696 0
DWIDTH 18 0
BBX 15 19 2 -5
BITMAP
F9F0
FBF8
FFFC
FC7C
F83E
F83E
F83E
F83E
F83E
F87E
FC7C
FFFC
FFF8
F9F0
F800
F800
F800
F800
F800
ENDCHAR
STARTCHAR q
ENCODING 113
SWIDTH 696 0
DWIDTH 18 0
BBX 15 19 1 -5
BITMAP
0F9E
3FFE
7FFE
7C7E
FC3E
F83E
F83E
F83E
F83E
F83E
7C7E
7FFE
3FBE
1F3E
003E
003E
003E
003E
003E
ENDCHAR
STARTCHAR r
ENCODING 114
SWIDTH 500 0
DWIDTH 13 0
BBX 10 14 2 0
BITMAP
F9C0
FBC0
FFC0
FFC0
FC00
F800
F800
F800
F800
F800
F800
F800
F800
F800
ENDCHAR
STARTCHAR s
ENCODING 115
SWIDTH 622 0
DWIDTH 16 0
BBX 13 14 2 0
BITMAP
1FE0
7FF0
FFF0
F830
F800
FF00
7FC0
1FF0
07F8
01F8
C0F8
FFF0
FFF0
7FC0
ENDCHAR
STARTCHAR t
ENCODING 116
SWIDTH 436 0
DWIDTH 11 0
BBX 9 18 1 0
BITMAP
1C00
7C00
7C00
7C00
FF80
FF80
FF80
7C00
7C00
7C00
7C00
7C00
7C00
7C00
7C00
7F80
3F80
1F80
ENDCHAR
STARTCHAR u
ENCODING 117
SWIDTH 693 0
DWIDTH 18 0
BBX 14 14 2 0
BITMAP
F87C
F87C
F87C
F87C
F87C
F87C
F87C
F87C
F87C
F87C
F8FC
FFFC
7F7C
3E7C
ENDCHAR
STARTCHAR v
ENCODING 118
SWIDTH 663 0
DWIDTH 17 0
BBX 16 14 1 0
BITMAP
FC0F
7C0E
7C0E
7E1E
3E1C
3F1C
1F38
1F38
1FF8
0FF0
0FF0
07E0
07E0
07E0
ENDCHAR
STARTCHAR w
ENCODING 119
SWIDTH 885 0
DWIDTH 23 0
BBX 21 14 1 0
BITMAP
F07838
F87C38
78FC70
78FC70
78FC70
7DFEE0
3DDEE0
3DDEE0
3DDEE0
3F8FC0
1F8FC0
1F8FC0
1F8FC0
1F0F80
ENDCHAR
STARTCHAR x
ENCODING 120
SWIDTH 568 0
DWIDTH 15 0
BBX 14 14 1 0
BITMAP
FC3C
7E78
3E70
3FF0
1FE0
1FC0
0FC0
0FC0
0FE0
1FE0
3FF0
39F8
78F8
F0FC
ENDCHAR
STARTCHAR y
ENCODING 121
SWIDTH 645 0
DWIDTH 17 0
BBX 16 19 0 -5
BITMAP
FC0F
7C0E
7C1E
7E1C
3E3C
3F38
1F78
1F70
1FF0
0FE0
0FE0
07C0
07C0
0780
0780
0F00
0F00
1F00
3E00
ENDCHAR
STARTCHAR z
ENCODING 122
SWIDTH 608 0
DWIDTH 16 0
BBX 13 14 2 0
BITMAP
FFF8
FFF8
FFF8
03F8
07F0
0FE0
0FC0
1F80
3F00
7F00
FE00
FFF8
FFF8
FFF8
ENDCHAR
STARTCHAR braceleft
ENCODING 123
SWIDTH 386 0
DWIDTH 10 0
BBX 7 24 2 -4
BITMAP
1E
3E
7E
7C
7C
7C
7C
7C
7C
7C
78
F0
F0
F8
7C
7C
7C
7C
7C
7C
7C
7E
3E
1E
ENDCHAR
STARTCHAR bar
ENCODING 124
SWIDTH 265 0
DWIDTH 7 0
BBX 3 24 2 -4
BITMAP
E0
E0
E0
E0
E0
E0
E0
E0
E0
E0
E0
E0
E0
E0
E0
E0
E0
E0
E0
E0
E0
E0
E0
E0
ENDCHAR
STARTCHAR braceright
ENCODING 125
SWIDTH 386 0
DWIDTH 10 0
BBX 7 24 1 -4
BITMAP
F0
F8
FC
7C
7C
7C
7C
7C
7C
7C
3C
1E
1E
3E
7C
7C
7C
7C
7C
7C
7C
FC
F8
F0
ENDCHAR
STARTCHAR asciitilde
ENCODING 126
SWIDTH 687 0
DWIDTH 18 0
BBX 15 7 1 4
BITMAP
3C0E
7E0E
7F8E
F7DE
E3FC
E0FC
E078
ENDCHAR
STARTCHAR space
ENCODING 160
SWIDTH 343 0
DWIDTH 9 0
BBX 1 1 0 0
BITMAP
00
ENDCHAR
STARTCHAR exclamdown
ENCODING 161
SWIDTH 265 0
DWIDTH 9 0
BBX 5 19 2 -5
BITMAP
F8
F8
F8
00
00
00
70
70
70
70
F8
F8
F8
F8
F8
F8
F8
F8
F8
ENDCHAR
STARTCHAR cent
ENCODING 162
SWIDTH 687 0
DWIDTH 18 0
BBX 13 19 2 0
BITMAP
0380
0380
07F8
1FF8
3FF8
7C08
F800
F800
F800
F800
F800
FC00
FE00
7FF8
3FF8
1FF8
0380
0380
0380
ENDCHAR
STARTCHAR sterling
ENCODING 163
SWIDTH 687 0
DWIDTH 18 0
BBX 12 19 4 0
BITMAP
07F0
1FF0
1FF0
3F00
3E00
3E00
3E00
3E00
FF80
FF80
FF80
3E00
3E00
3C00
3C00
7000
FFF0
FFF0
FFF0
ENDCHAR
STARTCHAR currency
ENCODING 164
SWIDTH 687 0
DWIDTH 18 0
BBX 18 19 0 0
BITMAP
600180
600180
F003C0
780780
3DEF00
1FFE00
0FFC00
1F3E00
1E1E00
1C0E00
1C0E00
1E1E00
0F3C00
1FFE00
3FFF00
7DEF80
F807C0
700380
200100
ENDCHAR
STARTCHAR yen
ENCODING 165
SWIDTH 687 0
DWIDTH 18 0
BBX 17 19 0 0
BITMAP
FC0780
7C0700
7E0F00
3F0E00
3F1C00
1FBC00
0FB800
0FF800
07F000
07F000
1FFC00
1FFC00
03E000
1FFC00
1FFC00
03E000
03E000
03E000
03E000
ENDCHAR
STARTCHAR brokenbar
ENCODING 166
SWIDTH 265 0
DWIDTH 7 0
BBX 3 24 2 -4
BITMAP
E0
E0
E0
E0
E0
E0
E0
E0
E0
00
00
00
00
00
00
E0
E0
E0
E0
E0
E0
E0
E0
E0
ENDCHAR
STARTCHAR section
ENCODING 167
SWIDTH 693 0
DWIDTH 18 0
BBX 13 24 2 -5
BITMAP
1FF0
7FF0
FFF0
F810
F800
FE00
FF80
7FE0
3FF0
7FF8
E3F8
E0F8
F838
FF38
FFF0
7FE0
3FF0
0FF8
01F8
00F8
C0F8
FFF0
FFE0
FF80
ENDCHAR
STARTCHAR dieresis
ENCODING 168
SWIDTH 675 0
DWIDTH 18 0
BBX 8 3 5 16
BITMAP
E7
E7
E7
ENDCHAR
STARTCHAR copyright
ENCODING 169
SWIDTH 825 0
DWIDTH 21 0
BBX 19 19 1 0
BITMAP
01F000
07FC00
1E0F00
380380
31F980
67FCC0
6704C0
CE0060
CE0060
CE0060
CE0060
CF0060
6784C0
63FCC0
31F980
380380
1E0F00
07FC00
01F000
ENDCHAR
STARTCHAR ordfeminine
ENCODING 170
SWIDTH 536 0
DWIDTH 14 0
BBX 13 10 1 9
BITMAP
7FC0
7FE0
41F0
01F0
3FF0
7FF0
F9F0
F9F8
FFF8
7CF8
ENDCHAR
STARTCHAR guillemotleft
ENCODING 171
SWIDTH 614 0
DWIDTH 16 0
BBX 14 12 1 1
BITMAP
0408
0E1C
1E38
3C78
3CF0
F9E0
79E0
3CF0
3C78
1E38
0E1C
0410
ENDCHAR
STARTCHAR logicalnot
ENCODING 172
SWIDTH 687 0
DWIDTH 18 0
BBX 15 10 1 2
BITMAP
FFFE
FFFE
FFFE
000E
000E
000E
000E
000E
000E
000E
ENDCHAR
STARTCHAR hyphen
ENCODING 173
SWIDTH 289 0
DWIDTH 8 0
BBX 6 3 1 7
BITMAP
FC
FC
FC
ENDCHAR
STARTCHAR registered
ENCODING 174
SWIDTH 687 0
DWIDTH 18 0
BBX 13 14 2 5
BITMAP
0F80
1FC0
38E0
6030
EFB8
CF98
CD98
CF98
CF18
EDB8
6DB0
38E0
3FE0
0F80
ENDCHAR
STARTCHAR macron
ENCODING 175
SWIDTH 675 0
DWIDTH 18 0
BBX 8 3 5 16
BITMAP
FF
FF
FF
ENDCHAR
STARTCHAR degree
ENCODING 176
SWIDTH 241 0
DWIDTH 6 0
BBX 4 5 1 14
BITMAP
60
90
90
90
60
ENDCHAR
STARTCHAR plusminus
ENCODING 177
SWIDTH 687 0
DWIDTH 18 0
BBX 15 16 1 0
BITMAP
0380
0380
0380
0380
FFFE
FFFE
FFFE
0380
0380
0380
0380
0380
0000
FFFE
FFFE
FFFE
ENDCHAR
STARTCHAR twosuperior
ENCODING 178
SWIDTH 536 0
DWIDTH 11 0
BBX 8 11 -16 8
BITMAP
7C
FF
87
07
07
0E
1C
78
F0
FF
FF
ENDCHAR
STARTCHAR threesuperior
ENCODING 179
SWIDTH 536 0
DWIDTH 11 0
BBX 8 11 -17 8
BITMAP
7C
FF
87
07
7E
7C
0E
07
87
FF
FC
ENDCHAR
STARTCHAR acute
ENCODING 180
SWIDTH 675 0
DWIDTH 18 0
BBX 7 3 6 17
BITMAP
3E
78
F0
ENDCHAR
STARTCHAR mu
ENCODING 181
SWIDTH 699 0
DWIDTH 18 0
BBX 14 18 2 -4
BITMAP
F87C
F87C
F87C
F87C
F87C
F87C
F87C
F87C
F87C
F87C
F8FC
FFFC
FF7C
FE7C
F800
F800
F800
F800
ENDCHAR
STARTCHAR paragraph
ENCODING 182
SWIDTH 693 0
DWIDTH 18 0
BBX 11 23 2 -4
BITMAP
3FE0
7FE0
FFE0
FFE0
FFE0
FFE0
FFE0
7FE0
3FE0
0FE0
07E0
07E0
07E0
07E0
07E0
07E0
07E0
07E0
07E0
07E0
07E0
07E0
07E0
ENDCHAR
STARTCHAR periodcentered
ENCODING 183
SWIDTH 343 0
DWIDTH 18 0
BBX 4 3 7 7
BITMAP
F0
F0
F0
ENDCHAR
STARTCHAR cedilla
ENCODING 184
SWIDTH 675 0
DWIDTH 18 0
BBX 5 5 6 -5
BITMAP
30
60
38
F8
F0
ENDCHAR
STARTCHAR onesuperior
ENCODING 185
SWIDTH 536 0
DWIDTH 11 0
BBX 5 11 -17 8
BITMAP
F8
F8
38
38
38
38
38
38
38
38
38
ENDCHAR
STARTCHAR ordmasculine
ENCODING 186
SWIDTH 536 0
DWIDTH 14 0
BBX 13 10 0 9
BITMAP
1FC0
3FE0
79F0
F0F8
F0F8
F0F8
F0F8
79F0
3FE0
1FC0
ENDCHAR
STARTCHAR guillemotright
ENCODING 187
SWIDTH 614 0
DWIDTH 16 0
BBX 14 12 1 1
BITMAP
2080
E1C0
71E0
78F0
3CF0
1E78
1E7C
3CF0
78E0
71E0
E1C0
4080
ENDCHAR
STARTCHAR onequarter
ENCODING 188
SWIDTH 1066 0
DWIDTH 24 0
BBX 21 19 6 0
BITMAP
F801E0
F803C0
380780
380700
380F00
381E00
383C00
383800
387870
38F0F0
39E1F0
01C370
03C770
078E70
0F0FF8
0E0FF8
1E0070
3C0070
780070
ENDCHAR
STARTCHAR onehalf
ENCODING 189
SWIDTH 1066 0
DWIDTH 24 0
BBX 20 19 6 0
BITMAP
F801E0
F803C0
380780
380700
380F00
381E00
383C00
383800
387FC0
38FFF0
39E870
01C070
03C070
0780E0
0F01C0
0E0780
1E0F00
3C0FF0
780FF0
ENDCHAR
STARTCHAR threequarters
ENCODING 190
SWIDTH 1120 0
DWIDTH 24 0
BBX 21 19 6 0
BITMAP
7C01E0
FF03C0
870780
070700
7E0F00
7C1E00
0E3C00
073800
877870
FFF0F0
FDE1F0
01C370
03C770
078E70
0F0FF8
0E0FF8
1E0070
3C0070
780070
ENDCHAR
STARTCHAR questiondown
ENCODING 191
SWIDTH 572 0
DWIDTH 15 0
BBX 13 19 1 -5
BITMAP
07C0
07C0
07C0
0000
0000
0000
07C0
0780
0F80
0F00
1E00
3C00
7800
F800
F800
FC18
FFF8
7FF8
1FF0
ENDCHAR
STARTCHAR Agrave
ENCODING 192
SWIDTH 773 0
DWIDTH 20 0
BBX 19 23 1 0
BITMAP
03E000
00F000
007800
000000
01F000
01F800
03F800
03F800
07FC00
077C00
077E00
0F3E00
0E3E00
0E3F00
1C1F00
1FFF00
3FFF80
3FFF80
380FC0
7807C0
7007C0
7003E0
E003E0
ENDCHAR
STARTCHAR Aacute
ENCODING 193
SWIDTH 773 0
DWIDTH 20 0
BBX 19 23 1 0
BITMAP
007C00
00F000
01E000
000000
01F000
01F800
03F800
03F800
07FC00
077C00
077E00
0F3E00
0E3E00
0E3F00
1C1F00
1FFF00
3FFF80
3FFF80
380FC0
7807C0
7007C0
7003E0
E003E0
ENDCHAR
STARTCHAR Acircumflex
ENCODING 194
SWIDTH 773 0
DWIDTH 20 0
BBX 19 23 1 0
BITMAP
01F000
03F800
071C00
000000
01F000
01F800
03F800
03F800
07FC00
077C00
077E00
0F3E00
0E3E00
0E3F00
1C1F00
1FFF00
3FFF80
3FFF80
380FC0
7807C0
7007C0
7003E0
E003E0
ENDCHAR
STARTCHAR Atilde
ENCODING 195
SWIDTH 773 0
DWIDTH 20 0
BBX 19 23 1 0
BITMAP
03DC00
07FC00
077800
000000
01F000
01F800
03F800
03F800
07FC00
077C00
077E00
0F3E00
0E3E00
0E3F00
1C1F00
1FFF00
3FFF80
3FFF80
380FC0
7807C0
7007C0
7003E0
E003E0
ENDCHAR
STARTCHAR Adieresis
ENCODING 196
SWIDTH 773 0
DWIDTH 20 0
BBX 19 23 1 0
BITMAP
039C00
039C00
039C00
000000
01F000
01F800
03F800
03F800
07FC00
077C00
077E00
0F3E00
0E3E00
0E3F00
1C1F00
1FFF00
3FFF80
3FFF80
380FC0
7807C0
7007C0
7003E0
E003E0
ENDCHAR
STARTCHAR Aring
ENCODING 197
SWIDTH 773 0
DWIDTH 20 0
BBX 19 24 1 0
BITMAP
00C000
012000
012000
00C000
000000
01F000
01F800
03F800
03F800
07FC00
077C00
077E00
0F3E00
0E3E00
0E3F00
1C1F00
1FFF00
3FFF80
3FFF80
380FC0
7807C0
7007C0
7003E0
E003E0
ENDCHAR
STARTCHAR AE
ENCODING 198
SWIDTH 997 0
DWIDTH 26 0
BBX 25 19 0 0
BITMAP
003FFF00
003FFF00
007FFF00
007F0000
00FF0000
00FF0000
01DF0000
01DF0000
039FFE00
079FFE00
071FFE00
0F1F0000
0FFF0000
1FFF0000
1FFF0000
381F0000
381FFF80
701FFF80
F01FFF80
ENDCHAR
STARTCHAR Ccedilla
ENCODING 199
SWIDTH 726 0
DWIDTH 19 0
BBX 17 24 1 -5
BITMAP
01FF00
0FFF80
1FFF80
3F0180
7E0000
7C0000
FC0000
F80000
F80000
F80000
F80000
F80000
FC0000
7C0000
7E0000
3F8180
1FFF80
0FFF80
03FE00
00C000
018000
00E000
03E000
03C000
ENDCHAR
STARTCHAR Egrave
ENCODING 200
SWIDTH 645 0
DWIDTH 17 0
BBX 13 23 2 0
BITMAP
3E00
0F00
0780
0000
FFF0
FFF0
FFF0
F800
F800
F800
F800
F800
FFE0
FFE0
FFE0
F800
F800
F800
F800
F800
FFF8
FFF8
FFF8
ENDCHAR
STARTCHAR Eacute
ENCODING 201
SWIDTH 645 0
DWIDTH 17 0
BBX 13 23 2 0
BITMAP
03E0
0780
0F00
0000
FFF0
FFF0
FFF0
F800
F800
F800
F800
F800
FFE0
FFE0
FFE0
F800
F800
F800
F800
F800
FFF8
FFF8
FFF8
ENDCHAR
STARTCHAR Ecircumflex
ENCODING 202
SWIDTH 645 0
DWIDTH 17 0
BBX 13 23 2 0
BITMAP
0F80
1FC0
38E0
0000
FFF0
FFF0
FFF0
F800
F800
F800
F800
F800
FFE0
FFE0
FFE0
F800
F800
F800
F800
F800
FFF8
FFF8
FFF8
ENDCHAR
STARTCHAR Edieresis
ENCODING 203
SWIDTH 645 0
DWIDTH 17 0
BBX 13 23 2 0
BITMAP
39C0
39C0
39C0
0000
FFF0
FFF0
FFF0
F800
F800
F800
F800
F800
FFE0
FFE0
FFE0
F800
F800
F800
F800
F800
FFF8
FFF8
FFF8
ENDCHAR
STARTCHAR Igrave
ENCODING 204
SWIDTH 361 0
DWIDTH 9 0
BBX 7 23 0 0
BITMAP
F8
3C
1E
00
3E
3E
3E
3E
3E
3E
3E
3E
3E
3E
3E
3E
3E
3E
3E
3E
3E
3E
3E
ENDCHAR
STARTCHAR Iacute
ENCODING 205
SWIDTH 361 0
DWIDTH 9 0
BBX 7 23 2 0
BITMAP
3E
78
F0
00
F8
F8
F8
F8
F8
F8
F8
F8
F8
F8
F8
F8
F8
F8
F8
F8
F8
F8
F8
ENDCHAR
STARTCHAR Icircumflex
ENCODING 206
SWIDTH 361 0
DWIDTH 9 0
BBX 9 23 0 0
BITMAP
3E00
7F00
E380
0000
3E00
3E00
3E00
3E00
3E00
3E00
3E00
3E00
3E00
3E00
3E00
3E00
3E00
3E00
3E00
3E00
3E00
3E00
3E00
ENDCHAR
STARTCHAR Idieresis
ENCODING 207
SWIDTH 361 0
DWIDTH 9 0
BBX 8 23 1 0
BITMAP
E7
E7
E7
00
7C
7C
7C
7C
7C
7C
7C
7C
7C
7C
7C
7C
7C
7C
7C
7C
7C
7C
7C
ENDCHAR
STARTCHAR Eth
ENCODING 208
SWIDTH 819 0
DWIDTH 21 0
BBX 21 19 0 0
BITMAP
1FFF00
1FFFC0
1FFFE0
1F07F0
1F03F0
1F01F0
1F00F8
1F00F8
FFF0F8
FFF0F8
FFF0F8
1F00F8
1F00F8
1F01F0
1F01F0
1F07E0
1FFFE0
1FFF80
1FFE00
ENDCHAR
STARTCHAR Ntilde
ENCODING 209
SWIDTH 783 0
DWIDTH 20 0
BBX 16 23 2 0
BITMAP
07B8
0FF8
0EF0
0000
F007
F807
FC07
FE07
FE07
FF07
FF87
FFC7
EFC7
E7E7
E3F7
E3FF
E1FF
E0FF
E07F
E07F
E03F
E01F
E00F
ENDCHAR
STARTCHAR Ograve
ENCODING 210
SWIDTH 855 0
DWIDTH 22 0
BBX 20 23 1 0
BITMAP
03E000
00F000
007800
000000
03FC00
0FFF00
1FFF80
3F0FC0
7E07E0
7C03E0
F801F0
F801F0
F801F0
F801F0
F801F0
F801F0
F801F0
7C03E0
7E07E0
3F0FC0
1FFF80
0FFF00
03FC00
ENDCHAR
STARTCHAR Oacute
ENCODING 211
SWIDTH 855 0
DWIDTH 22 0
BBX 20 23 1 0
BITMAP
003E00
007800
00F000
000000
03FC00
0FFF00
1FFF80
3F0FC0
7E07E0
7C03E0
F801F0
F801F0
F801F0
F801F0
F801F0
F801F0
F801F0
7C03E0
7E07E0
3F0FC0
1FFF80
0FFF00
03FC00
ENDCHAR
STARTCHAR Ocircumflex
ENCODING 212
SWIDTH 855 0
DWIDTH 22 0
BBX 20 23 1 0
BITMAP
00F800
01FC00
038E00
000000
03FC00
0FFF00
1FFF80
3F0FC0
7E07E0
7C03E0
F801F0
F801F0
F801F0
F801F0
F801F0
F801F0
F801F0
7C03E0
7E07E0
3F0FC0
1FFF80
0FFF00
03FC00
ENDCHAR
STARTCHAR Otilde
ENCODING 213
SWIDTH 855 0
DWIDTH 22 0
BBX 20 23 1 0
BITMAP
01EE00
03FE00
03BC00
000000
03FC00
0FFF00
1FFF80
3F0FC0
7E07E0
7C03E0
F801F0
F801F0
F801F0
F801F0
F801F0
F801F0
F801F0
7C03E0
7E07E0
3F0FC0
1FFF80
0FFF00
03FC00
ENDCHAR
STARTCHAR Odieresis
ENCODING 214
SWIDTH 855 0
DWIDTH 22 0
BBX 20 23 1 0
BITMAP
039C00
039C00
039C00
000000
03FC00
0FFF00
1FFF80
3F0FC0
7E07E0
7C03E0
F801F0
F801F0
F801F0
F801F0
F801F0
F801F0
F801F0
7C03E0
7E07E0
3F0FC0
1FFF80
0FFF00
03FC00
ENDCHAR
STARTCHAR multiply
ENCODING 215
SWIDTH 687 0
DWIDTH 18 0
BBX 15 16 1 0
BITMAP
600C
600C
F01E
783C
3C78
1EF0
0FE0
07C0
07C0
0FE0
1EF0
3C78
783C
F01E
600C
600C
ENDCHAR
STARTCHAR Oslash
ENCODING 216
SWIDTH 855 0
DWIDTH 22 0
BBX 20 19 1 0
BITMAP
03FCF0
0FFFE0
1FFFC0
3F0FC0
7E0FE0
7C1FE0
F81DF0
F83DF0
F879F0
F8F1F0
F9E1F0
FBC1F0
FB81F0
7F83E0
7F07E0
3F0FC0
3FFF80
7FFF00
F3FC00
ENDCHAR
STARTCHAR Ugrave
ENCODING 217
SWIDTH 783 0
DWIDTH 20 0
BBX 16 23 2 0
BITMAP
0F80
03C0
01E0
0000
F81F
F81F
F81F
F81F
F81F
F81F
F81F
F81F
F81F
F81F
F81F
F81F
F81F
F81F
FC3F
7C3E
7FFE
1FFC
07F0
ENDCHAR
STARTCHAR Uacute
ENCODING 218
SWIDTH 783 0
DWIDTH 20 0
BBX 16 23 2 0
BITMAP
00F8
01E0
03C0
0000
F81F
F81F
F81F
F81F
F81F
F81F
F81F
F81F
F81F
F81F
F81F
F81F
F81F
F81F
FC3F
7C3E
7FFE
1FFC
07F0
ENDCHAR
STARTCHAR Ucircumflex
ENCODING 219
SWIDTH 783 0
DWIDTH 20 0
BBX 16 23 2 0
BITMAP
03E0
07F0
0E38
0000
F81F
F81F
F81F
F81F
F81F
F81F
F81F
F81F
F81F
F81F
F81F
F81F
F81F
F81F
FC3F
7C3E
7FFE
1FFC
07F0
ENDCHAR
STARTCHAR Udieresis
ENCODING 220
SWIDTH 783 0
DWIDTH 20 0
BBX 16 23 2 0
BITMAP
0E70
0E70
0E70
0000
F81F
F81F
F81F
F81F
F81F
F81F
F81F
F81F
F81F
F81F
F81F
F81F
F81F
F81F
FC3F
7C3E
7FFE
1FFC
07F0
ENDCHAR
STARTCHAR Yacute
ENCODING 221
SWIDTH 738 0
DWIDTH 19 0
BBX 17 23 1 0
BITMAP
00F800
01E000
03C000
000000
FC0780
7C0700
7E0F00
3E0E00
3F1C00
1F1C00
1FB800
0FF800
0FF000
07F000
03E000
03E000
03E000
03E000
03E000
03E000
03E000
03E000
03E000
ENDCHAR
STARTCHAR Thorn
ENCODING 222
SWIDTH 657 0
DWIDTH 17 0
BBX 14 19 2 0
BITMAP
F800
F800
F800
FFE0
FFF8
FFFC
F8FC
F87C
F87C
F87C
F8FC
F9F8
FFF8
FFF0
FFC0
F800
F800
F800
F800
ENDCHAR
STARTCHAR germandbls
ENCODING 223
SWIDTH 724 0
DWIDTH 19 0
BBX 16 20 2 0
BITMAP
0FC0
3FF0
7FF0
78F0
F870
F8F0
F8E0
F9C0
F9E0
FBF0
FBF8
F9FC
F9FE
F87F
F83F
F81F
F81F
F9FF
F9FE
F9F8
ENDCHAR
STARTCHAR agrave
ENCODING 224
SWIDTH 623 0
DWIDTH 16 0
BBX 14 18 1 0
BITMAP
1F00
0780
03C0
0000
1FC0
7FF0
7FF8
41F8
00F8
00F8
1FF8
7FF8
FFF8
F8F8
F8F8
FFFC
7FFC
3E7C
ENDCHAR
STARTCHAR aacute
ENCODING 225
SWIDTH 623 0
DWIDTH 16 0
BBX 14 18 1 0
BITMAP
01F0
03C0
0780
0000
1FC0
7FF0
7FF8
41F8
00F8
00F8
1FF8
7FF8
FFF8
F8F8
F8F8
FFFC
7FFC
3E7C
ENDCHAR
STARTCHAR acircumflex
ENCODING 226
SWIDTH 623 0
DWIDTH 16 0
BBX 14 18 1 0
BITMAP
07C0
0FE0
1C70
0000
1FC0
7FF0
7FF8
41F8
00F8
00F8
1FF8
7FF8
FFF8
F8F8
F8F8
FFFC
7FFC
3E7C
ENDCHAR
STARTCHAR atilde
ENCODING 227
SWIDTH 623 0
DWIDTH 16 0
BBX 14 18 1 0
BITMAP
0F70
1FF0
1DE0
0000
1FC0
7FF0
7FF8
41F8
00F8
00F8
1FF8
7FF8
FFF8
F8F8
F8F8
FFFC
7FFC
3E7C
ENDCHAR
STARTCHAR adieresis
ENCODING 228
SWIDTH 623 0
DWIDTH 16 0
BBX 14 18 1 0
BITMAP
1CE0
1CE0
1CE0
0000
1FC0
7FF0
7FF8
41F8
00F8
00F8
1FF8
7FF8
FFF8
F8F8
F8F8
FFFC
7FFC
3E7C
ENDCHAR
STARTCHAR aring
ENCODING 229
SWIDTH 623 0
DWIDTH 16 0
BBX 14 19 1 0
BITMAP
0300
0480
0480
0300
0000
1FC0
7FF0
7FF8
41F8
00F8
00F8
1FF8
7FF8
FFF8
F8F8
F8F8
FFFC
7FFC
3E7C
ENDCHAR
STARTCHAR ae
ENCODING 230
SWIDTH 913 0
DWIDTH 24 0
BBX 22 14 1 0
BITMAP
1F87C0
7FFFF0
7FFFF8
60FCF8
00F87C
00F87C
1FFFFC
7FFFFC
FFFFFC
F8F800
F8FC04
FFBFFC
7F9FFC
3E0FF8
ENDCHAR
STARTCHAR ccedilla
ENCODING 231
SWIDTH 545 0
DWIDTH 14 0
BBX 12 19 1 -5
BITMAP
0FE0
1FF0
3FF0
7E10
FC00
F800
F800
F800
F800
FC00
7E10
7FF0
3FF0
0FF0
0300
0600
0380
0F80
0F00
ENDCHAR
STARTCHAR egrave
ENCODING 232
SWIDTH 614 0
DWIDTH 16 0
BBX 14 18 1 0
BITMAP
1F00
0780
03C0
0000
0FE0
3FF0
7FF8
7CF8
F87C
FFFC
FFFC
FFFC
F800
FC00
7E04
3FFC
1FFC
07F8
ENDCHAR
STARTCHAR eacute
ENCODING 233
SWIDTH 614 0
DWIDTH 16 0
BBX 14 18 1 0
BITMAP
01F0
03C0
0780
0000
0FE0
3FF0
7FF8
7CF8
F87C
FFFC
FFFC
FFFC
F800
FC00
7E04
3FFC
1FFC
07F8
ENDCHAR
STARTCHAR ecircumflex
ENCODING 234
SWIDTH 614 0
DWIDTH 16 0
BBX 14 18 1 0
BITMAP
07C0
0FE0
1C70
0000
0FE0
3FF0
7FF8
7CF8
F87C
FFFC
FFFC
FFFC
F800
FC00
7E04
3FFC
1FFC
07F8
ENDCHAR
STARTCHAR edieresis
ENCODING 235
SWIDTH 614 0
DWIDTH 16 0
BBX 14 18 1 0
BITMAP
1CE0
1CE0
1CE0
0000
0FE0
3FF0
7FF8
7CF8
F87C
FFFC
FFFC
FFFC
F800
FC00
7E04
3FFC
1FFC
07F8
ENDCHAR
STARTCHAR igrave
ENCODING 236
SWIDTH 361 0
DWIDTH 9 0
BBX 7 18 0 0
BITMAP
F8
3C
1E
00
3E
3E
3E
3E
3E
3E
3E
3E
3E
3E
3E
3E
3E
3E
ENDCHAR
STARTCHAR iacute
ENCODING 237
SWIDTH 361 0
DWIDTH 9 0
BBX 7 18 2 0
BITMAP
3E
78
F0
00
F8
F8
F8
F8
F8
F8
F8
F8
F8
F8
F8
F8
F8
F8
ENDCHAR
STARTCHAR icircumflex
ENCODING 238
SWIDTH 361 0
DWIDTH 9 0
BBX 9 18 0 0
BITMAP
3E00
7F00
E380
0000
3E00
3E00
3E00
3E00
3E00
3E00
3E00
3E00
3E00
3E00
3E00
3E00
3E00
3E00
ENDCHAR
STARTCHAR idieresis
ENCODING 239
SWIDTH 361 0
DWIDTH 9 0
BBX 8 18 1 0
BITMAP
E7
E7
E7
00
7C
7C
7C
7C
7C
7C
7C
7C
7C
7C
7C
7C
7C
7C
ENDCHAR
STARTCHAR eth
ENCODING 240
SWIDTH 675 0
DWIDTH 18 0
BBX 15 23 1 0
BITMAP
0080
01C0
03E0
F780
FF80
FFC0
1FE0
3FF0
79F8
70FC
2FFC
3FFC
7FFE
7C7E
F83E
F83E
F83E
F83E
F83C
7C7C
7FF8
3FF0
0FC0
ENDCHAR
STARTCHAR ntilde
ENCODING 241
SWIDTH 693 0
DWIDTH 18 0
BBX 14 18 2 0
BITMAP
0F70
1FF0
1DE0
0000
F9F0
FBF8
FFFC
FFFC
FC7C
F87C
F87C
F87C
F87C
F87C
F87C
F87C
F87C
F87C
ENDCHAR
STARTCHAR ograve
ENCODING 242
SWIDTH 675 0
DWIDTH 18 0
BBX 16 18 1 0
BITMAP
0F80
03C0
01E0
0000
07E0
1FF8
7FFE
7C3E
FC3F
F81F
F81F
F81F
F81F
FC3F
7C3E
7FFE
1FF8
07E0
ENDCHAR
STARTCHAR oacute
ENCODING 243
SWIDTH 675 0
DWIDTH 18 0
BBX 16 18 1 0
BITMAP
00F8
01E0
03C0
0000
07E0
1FF8
7FFE
7C3E
FC3F
F81F
F81F
F81F
F81F
FC3F
7C3E
7FFE
1FF8
07E0
ENDCHAR
STARTCHAR ocircumflex
ENCODING 244
SWIDTH 675 0
DWIDTH 18 0
BBX 16 18 1 0
BITMAP
03E0
07F0
0E38
0000
07E0
1FF8
7FFE
7C3E
FC3F
F81F
F81F
F81F
F81F
FC3F
7C3E
7FFE
1FF8
07E0
ENDCHAR
STARTCHAR otilde
ENCODING 245
SWIDTH 675 0
DWIDTH 18 0
BBX 16 18 1 0
BITMAP
07B8
0FF8
0EF0
0000
07E0
1FF8
7FFE
7C3E
FC3F
F81F
F81F
F81F
F81F
FC3F
7C3E
7FFE
1FF8
07E0
ENDCHAR
STARTCHAR odieresis
ENCODING 246
SWIDTH 675 0
DWIDTH 18 0
BBX 16 18 1 0
BITMAP
0E70
0E70
0E70
0000
07E0
1FF8
7FFE
7C3E
FC3F
F81F
F81F
F81F
F81F
FC3F
7C3E
7FFE
1FF8
07E0
ENDCHAR
STARTCHAR divide
ENCODING 247
SWIDTH 687 0
DWIDTH 18 0
BBX 15 16 1 0
BITMAP
0380
0380
0380
0000
0000
0000
FFFE
FFFE
FFFE
0000
0000
0000
0000
0380
0380
0380
ENDCHAR
STARTCHAR oslash
ENCODING 248
SWIDTH 675 0
DWIDTH 18 0
BBX 16 14 1 0
BITMAP
07EF
1FFE
7FFE
7C7E
FCFF
F9FF
FBDF
FBDF
FF9F
FF3F
7E3E
7FFE
7FF8
F7E0
ENDCHAR
STARTCHAR ugrave
ENCODING 249
SWIDTH 693 0
DWIDTH 18 0
BBX 14 18 2 0
BITMAP
1F00
0780
03C0
0000
F87C
F87C
F87C
F87C
F87C
F87C
F87C
F87C
F87C
F87C
F8FC
FFFC
7F7C
3E7C
ENDCHAR
STARTCHAR uacute
ENCODING 250
SWIDTH 693 0
DWIDTH 18 0
BBX 14 18 2 0
BITMAP
01F0
03C0
0780
0000
F87C
F87C
F87C
F87C
F87C
F87C
F87C
F87C
F87C
F87C
F8FC
FFFC
7F7C
3E7C
ENDCHAR
STARTCHAR ucircumflex
ENCODING 251
SWIDTH 693 0
DWIDTH 18 0
BBX 14 18 2 0
BITMAP
07C0
0FE0
1C70
0000
F87C
F87C
F87C
F87C
F87C
F87C
F87C
F87C
F87C
F87C
F8FC
FFFC
7F7C
3E7C
ENDCHAR
STARTCHAR udieresis
ENCODING 252
SWIDTH 693 0
DWIDTH 18 0
BBX 14 18 2 0
BITMAP
1CE0
1CE0
1CE0
0000
F87C
F87C
F87C
F87C
F87C
F87C
F87C
F87C
F87C
F87C
F8FC
FFFC
7F7C
3E7C
ENDCHAR
STARTCHAR yacute
ENCODING 253
SWIDTH 645 0
DWIDTH 17 0
BBX 16 23 0 -5
BITMAP
01F0
03C0
0780
0000
FC0F
7C0E
7C1E
7E1C
3E3C
3F38
1F78
1F70
1FF0
0FE0
0FE0
07C0
07C0
0780
0780
0F00
0F00
1F00
3E00
ENDCHAR
STARTCHAR thorn
ENCODING 254
SWIDTH 696 0
DWIDTH 18 0
BBX 15 24 2 -5
BITMAP
F800
F800
F800
F800
F800
F9F0
FBF8
FBFC
FC7C
F83E
F83E
F83E
F83E
F83E
F87E
FC7C
FFFC
FFF8
F9F0
F800
F800
F800
F800
F800
ENDCHAR
STARTCHAR ydieresis
ENCODING 255
SWIDTH 645 0
DWIDTH 17 0
BBX 16 23 0 -5
BITMAP
0E70
0E70
0E70
0000
FC0F
7C0E
7C1E
7E1C
3E3C
3F38
1F78
1F70
1FF0
0FE0
0FE0
07C0
07C0
0780
0780
0F00
0F00
1F00
3E00
ENDCHAR
STARTCHAR Amacron
ENCODING 256
SWIDTH 773 0
DWIDTH 20 0
BBX 19 23 1 0
BITMAP
03FC00
03FC00
03FC00
000000
01F000
01F800
03F800
03F800
07FC00
077C00
077E00
0F3E00
0E3E00
0E3F00
1C1F00
1FFF00
3FFF80
3FFF80
380FC0
7807C0
7007C0
7003E0
E003E0
ENDCHAR
STARTCHAR amacron
ENCODING 257
SWIDTH 623 0
DWIDTH 16 0
BBX 14 18 1 0
BITMAP
1FE0
1FE0
1FE0
0000
1FC0
7FF0
7FF8
41F8
00F8
00F8
1FF8
7FF8
FFF8
F8F8
F8F8
FFFC
7FFC
3E7C
ENDCHAR
STARTCHAR Abreve
ENCODING 258
SWIDTH 773 0
DWIDTH 20 0
BBX 19 23 1 0
BITMAP
071C00
03F800
01F000
000000
01F000
01F800
03F800
03F800
07FC00
077C00
077E00
0F3E00
0E3E00
0E3F00
1C1F00
1FFF00
3FFF80
3FFF80
380FC0
7807C0
7007C0
7003E0
E003E0
ENDCHAR
STARTCHAR abreve
ENCODING 259
SWIDTH 623 0
DWIDTH 16 0
BBX 14 18 1 0
BITMAP
1C70
0FE0
07C0
0000
1FC0
7FF0
7FF8
41F8
00F8
00F8
1FF8
7FF8
FFF8
F8F8
F8F8
FFFC
7FFC
3E7C
ENDCHAR
STARTCHAR Aogonek
ENCODING 260
SWIDTH 773 0
DWIDTH 20 0
BBX 19 23 1 -4
BITMAP
01F000
01F800
03F800
03F800
07FC00
077C00
077E00
0F3E00
0E3E00
0E3F00
1C1F00
1FFF00
3FFF80
3FFF80
380FC0
7807C0
7007C0
7003E0
E003E0
000000
007000
00E000
007800
ENDCHAR
STARTCHAR aogonek
ENCODING 261
SWIDTH 623 0
DWIDTH 16 0
BBX 14 18 1 -4
BITMAP
1FC0
7FF0
7FF8
41F8
00F8
00F8
1FF8
7FF8
FFF8
F8F8
F8F8
FFFC
7FFC
3E7C
0000
0380
0700
03C0
ENDCHAR
STARTCHAR Cacute
ENCODING 262
SWIDTH 726 0
DWIDTH 19 0
BBX 17 23 1 0
BITMAP
007C00
00F000
01E000
000000
01FF00
0FFF80
1FFF80
3F0180
7E0000
7C0000
FC0000
F80000
F80000
F80000
F80000
F80000
FC0000
7C0000
7E0000
3F8180
1FFF80
0FFF80
03FE00
ENDCHAR
STARTCHAR cacute
ENCODING 263
SWIDTH 545 0
DWIDTH 14 0
BBX 12 18 1 0
BITMAP
03E0
0780
0F00
0000
0FE0
1FF0
3FF0
7E10
FC00
F800
F800
F800
F800
FC00
7E10
7FF0
3FF0
0FF0
ENDCHAR
STARTCHAR Ccircumflex
ENCODING 264
SWIDTH 726 0
DWIDTH 19 0
BBX 17 23 1 0
BITMAP
01F000
03F800
071C00
000000
01FF00
0FFF80
1FFF80
3F0180
7E0000
7C0000
FC0000
F80000
F80000
F80000
F80000
F80000
FC0000
7C0000
7E0000
3F8180
1FFF80
0FFF80
03FE00
ENDCHAR
STARTCHAR ccircumflex
ENCODING 265
SWIDTH 545 0
DWIDTH 14 0
BBX 12 18 1 0
BITMAP
0F80
1FC0
38E0
0000
0FE0
1FF0
3FF0
7E10
FC00
F800
F800
F800
F800
FC00
7E10
7FF0
3FF0
0FF0
ENDCHAR
STARTCHAR Cdotaccent
ENCODING 266
SWIDTH 726 0
DWIDTH 19 0
BBX 17 23 1 0
BITMAP
01E000
01E000
01E000
000000
01FF00
0FFF80
1FFF80
3F0180
7E0000
7C0000
FC0000
F80000
F80000
F80000
F80000
F80000
FC0000
7C0000
7E0000
3F8180
1FFF80
0FFF80
03FE00
ENDCHAR
STARTCHAR cdotaccent
ENCODING 267
SWIDTH 545 0
DWIDTH 14 0
BBX 12 18 1 0
BITMAP
0780
0780
0780
0000
0FE0
1FF0
3FF0
7E10
FC00
F800
F800
F800
F800
FC00
7E10
7FF0
3FF0
0FF0
ENDCHAR
STARTCHAR Ccaron
ENCODING 268
SWIDTH 726 0
DWIDTH 19 0
BBX 17 23 1 0
BITMAP
071C00
03F800
01F000
000000
01FF00
0FFF80
1FFF80
3F0180
7E0000
7C0000
FC0000
F80000
F80000
F80000
F80000
F80000
FC0000
7C0000
7E0000
3F8180
1FFF80
0FFF80
03FE00
ENDCHAR
STARTCHAR ccaron
ENCODING 269
SWIDTH 545 0
DWIDTH 14 0
BBX 12 18 1 0
BITMAP
38E0
1FC0
0F80
0000
0FE0
1FF0
3FF0
7E10
FC00
F800
F800
F800
F800
FC00
7E10
7FF0
3FF0
0FF0
ENDCHAR
STARTCHAR Dcaron
ENCODING 270
SWIDTH 819 0
DWIDTH 21 0
BBX 18 23 2 0
BITMAP
0E3800
07F000
03E000
000000
FFF800
FFFE00
FFFF00
F83F80
F81F80
F80F80
F807C0
F807C0
F807C0
F807C0
F807C0
F807C0
F807C0
F80F80
F80F80
F83F00
FFFF00
FFFC00
FFF000
ENDCHAR
STARTCHAR dcaron
ENCODING 271
SWIDTH 926 0
DWIDTH 24 0
BBX 22 20 1 0
BITMAP
003E7C
003E7C
003E7C
003E7C
003E7C
003E1C
1F3E18
3FFE78
7FFE60
7C7E00
FC3E00
F83E00
F83E00
F83E00
F83E00
F83E00
7C7E00
7FFE00
3FBE00
1F3E00
ENDCHAR
STARTCHAR Dcroat
ENCODING 272
SWIDTH 819 0
DWIDTH 21 0
BBX 21 19 0 0
BITMAP
1FFF00
1FFFC0
1FFFE0
1F07F0
1F03F0
1F01F0
1F00F8
1F00F8
FFF0F8
FFF0F8
FFF0F8
1F00F8
1F00F8
1F01F0
1F01F0
1F07E0
1FFFE0
1FFF80
1FFE00
ENDCHAR
STARTCHAR dcroat
ENCODING 273
SWIDTH 696 0
DWIDTH 18 0
BBX 15 20 1 0
BITMAP
003E
003E
003E
007E
007E
007E
1F3E
3FFE
7FFE
7C7E
FC3E
F83E
F83E
F83E
F83E
F83E
7C7E
7FFE
3FBE
1F3E
ENDCHAR
STARTCHAR Emacron
ENCODING 274
SWIDTH 645 0
DWIDTH 17 0
BBX 13 23 2 0
BITMAP
3FC0
3FC0
3FC0
0000
FFF0
FFF0
FFF0
F800
F800
F800
F800
F800
FFE0
FFE0
FFE0
F800
F800
F800
F800
F800
FFF8
FFF8
FFF8
ENDCHAR
STARTCHAR emacron
ENCODING 275
SWIDTH 614 0
DWIDTH 16 0
BBX 14 18 1 0
BITMAP
1FE0
1FE0
1FE0
0000
0FE0
3FF0
7FF8
7CF8
F87C
FFFC
FFFC
FFFC
F800
FC00
7E04
3FFC
1FFC
07F8
ENDCHAR
STARTCHAR Ebreve
ENCODING 276
SWIDTH 645 0
DWIDTH 17 0
BBX 13 23 2 0
BITMAP
71C0
3F80
1F00
0000
FFF0
FFF0
FFF0
F800
F800
F800
F800
F800
FFE0
FFE0
FFE0
F800
F800
F800
F800
F800
FFF8
FFF8
FFF8
ENDCHAR
STARTCHAR ebreve
ENCODING 277
SWIDTH 614 0
DWIDTH 16 0
BBX 14 18 1 0
BITMAP
1C70
0FE0
07C0
0000
0FE0
3FF0
7FF8
7CF8
F87C
FFFC
FFFC
FFFC
F800
FC00
7E04
3FFC
1FFC
07F8
ENDCHAR
STARTCHAR Edotaccent
ENCODING 278
SWIDTH 645 0
DWIDTH 17 0
BBX 13 23 2 0
BITMAP
0F00
0F00
0F00
0000
FFF0
FFF0
FFF0
F800
F800
F800
F800
F800
FFE0
FFE0
FFE0
F800
F800
F800
F800
F800
FFF8
FFF8
FFF8
ENDCHAR
STARTCHAR edotaccent
ENCODING 279
SWIDTH 614 0
DWIDTH 16 0
BBX 14 18 1 0
BITMAP
0780
0780
0780
0000
0FE0
3FF0
7FF8
7CF8
F87C
FFFC
FFFC
FFFC
F800
FC00
7E04
3FFC
1FFC
07F8
ENDCHAR
STARTCHAR Eogonek
ENCODING 280
SWIDTH 645 0
DWIDTH 17 0
BBX 13 23 2 -4
BITMAP
FFF0
FFF0
FFF0
F800
F800
F800
F800
F800
FFE0
FFE0
FFE0
F800
F800
F800
F800
F800
FFF8
FFF8
FFF8
0000
0E00
1C00
0F00
ENDCHAR
STARTCHAR eogonek
ENCODING 281
SWIDTH 614 0
DWIDTH 16 0
BBX 14 18 1 -4
BITMAP
0FE0
3FF0
7FF8
7CF8
F87C
FFFC
FFFC
FFFC
F800
FC00
7E04
3FFC
1FFC
07F8
0000
0380
0700
03C0
ENDCHAR
STARTCHAR Ecaron
ENCODING 282
SWIDTH 645 0
DWIDTH 17 0
BBX 13 23 2 0
BITMAP
71C0
3F80
1F00
0000
FFF0
FFF0
FFF0
F800
F800
F800
F800
F800
FFE0
FFE0
FFE0
F800
F800
F800
F800
F800
FFF8
FFF8
FFF8
ENDCHAR
STARTCHAR ecaron
ENCODING 283
SWIDTH 614 0
DWIDTH 16 0
BBX 14 18 1 0
BITMAP
1C70
0FE0
07C0
0000
0FE0
3FF0
7FF8
7CF8
F87C
FFFC
FFFC
FFFC
F800
FC00
7E04
3FFC
1FFC
07F8
ENDCHAR
STARTCHAR Gcircumflex
ENCODING 284
SWIDTH 759 0
DWIDTH 20 0
BBX 17 23 1 0
BITMAP
01F000
03F800
071C00
000000
01FF80
0FFF80
1FFF80
3F0180
7E0000
7C0000
FC0000
F80000
F80000
F80000
F80F80
F80F80
F80F80
7C0F80
7E0F80
3F8F80
1FFF80
0FFF80
03FF00
ENDCHAR
STARTCHAR gcircumflex
ENCODING 285
SWIDTH 696 0
DWIDTH 18 0
BBX 15 23 1 -5
BITMAP
03E0
07F0
0E38
0000
0FBE
3FFE
7FFE
7C7E
FC3E
F83E
F83E
F83E
F83E
F83E
7C7E
7FBE
3FBE
1E3E
003E
207E
3FFC
7FF8
1FE0
ENDCHAR
STARTCHAR Gbreve
ENCODING 286
SWIDTH 759 0
DWIDTH 20 0
BBX 17 23 1 0
BITMAP
071C00
03F800
01F000
000000
01FF80
0FFF80
1FFF80
3F0180
7E0000
7C0000
FC0000
F80000
F80000
F80000
F80F80
F80F80
F80F80
7C0F80
7E0F80
3F8F80
1FFF80
0FFF80
03FF00
ENDCHAR
STARTCHAR gbreve
ENCODING 287
SWIDTH 696 0
DWIDTH 18 0
BBX 15 23 1 -5
BITMAP
0E38
07F0
03E0
0000
0FBE
3FFE
7FFE
7C7E
FC3E
F83E
F83E
F83E
F83E
F83E
7C7E
7FBE
3FBE
1E3E
003E
207E
3FFC
7FF8
1FE0
ENDCHAR
STARTCHAR Gdotaccent
ENCODING 288
SWIDTH 759 0
DWIDTH 20 0
BBX 17 23 1 0
BITMAP
01E000
01E000
01E000
000000
01FF80
0FFF80
1FFF80
3F0180
7E0000
7C0000
FC0000
F80000
F80000
F80000
F80F80
F80F80
F80F80
7C0F80
7E0F80
3F8F80
1FFF80
0FFF80
03FF00
ENDCHAR
STARTCHAR gdotaccent
ENCODING 289
SWIDTH 696 0
DWIDTH 18 0
BBX 15 23 1 -5
BITMAP
03C0
03C0
03C0
0000
0FBE
3FFE
7FFE
7C7E
FC3E
F83E
F83E
F83E
F83E
F83E
7C7E
7FBE
3FBE
1E3E
003E
207E
3FFC
7FF8
1FE0
ENDCHAR
STARTCHAR Gcommaaccent
ENCODING 290
SWIDTH 759 0
DWIDTH 20 0
BBX 17 29 1 -10
BITMAP
01FF80
0FFF80
1FFF80
3F0180
7E0000
7C0000
FC0000
F80000
F80000
F80000
F80F80
F80F80
F80F80
7C0F80
7E0F80
3F8F80
1FFF80
0FFF80
03FF00
000000
01F000
01F000
01F000
01F000
01F000
007000
00E000
01E000
018000
ENDCHAR
STARTCHAR gcommaaccent
ENCODING 291
SWIDTH 696 0
DWIDTH 18 0
BBX 15 29 1 -5
BITMAP
0060
01E0
0180
0380
03E0
03E0
03E0
03E0
03E0
0000
0FBE
3FFE
7FFE
7C7E
FC3E
F83E
F83E
F83E
F83E
F83E
7C7E
7FBE
3FBE
1E3E
003E
207E
3FFC
7FF8
1FE0
ENDCHAR
STARTCHAR Hcircumflex
ENCODING 292
SWIDTH 813 0
DWIDTH 21 0
BBX 17 23 2 0
BITMAP
03E000
07F000
0E3800
000000
F80F80
F80F80
F80F80
F80F80
F80F80
F80F80
F80F80
F80F80
FFFF80
FFFF80
FFFF80
F80F80
F80F80
F80F80
F80F80
F80F80
F80F80
F80F80
F80F80
ENDCHAR
STARTCHAR hcircumflex
ENCODING 293
SWIDTH 693 0
DWIDTH 18 0
BBX 14 24 2 0
BITMAP
3E00
7F00
E380
0000
F800
F800
F800
F800
F800
F800
F9F0
FBF8
FFFC
FFFC
FC7C
F87C
F87C
F87C
F87C
F87C
F87C
F87C
F87C
F87C
ENDCHAR
STARTCHAR Hbar
ENCODING 294
SWIDTH 813 0
DWIDTH 21 0
BBX 17 19 2 0
BITMAP
F80F80
F80F80
F80F80
FFFF80
FFFF80
FFFF80
F80F80
F80F80
FFFF80
FFFF80
FFFF80
F80F80
F80F80
F80F80
F80F80
F80F80
F80F80
F80F80
F80F80
ENDCHAR
STARTCHAR hbar
ENCODING 295
SWIDTH 693 0
DWIDTH 18 0
BBX 14 20 2 0
BITMAP
F800
F800
F800
FE00
FE00
FE00
F9F0
FBF8
FFFC
FFFC
FC7C
F87C
F87C
F87C
F87C
F87C
F87C
F87C
F87C
F87C
ENDCHAR
STARTCHAR Itilde
ENCODING 296
SWIDTH 361 0
DWIDTH 9 0
BBX 9 23 0 0
BITMAP
7B80
FF80
EF00
0000
3E00
3E00
3E00
3E00
3E00
3E00
3E00
3E00
3E00
3E00
3E00
3E00
3E00
3E00
3E00
3E00
3E00
3E00
3E00
ENDCHAR
STARTCHAR itilde
ENCODING 297
SWIDTH 361 0
DWIDTH 9 0
BBX 9 18 0 0
BITMAP
7B80
FF80
EF00
0000
3E00
3E00
3E00
3E00
3E00
3E00
3E00
3E00
3E00
3E00
3E00
3E00
3E00
3E00
ENDCHAR
STARTCHAR Imacron
ENCODING 298
SWIDTH 361 0
DWIDTH 9 0
BBX 8 23 1 0
BITMAP
FF
FF
FF
00
7C
7C
7C
7C
7C
7C
7C
7C
7C
7C
7C
7C
7C
7C
7C
7C
7C
7C
7C
ENDCHAR
STARTCHAR imacron
ENCODING 299
SWIDTH 361 0
DWIDTH 9 0
BBX 8 18 1 0
BITMAP
FF
FF
FF
00
7C
7C
7C
7C
7C
7C
7C
7C
7C
7C
7C
7C
7C
7C
ENDCHAR
STARTCHAR Ibreve
ENCODING 300
SWIDTH 361 0
DWIDTH 9 0
BBX 9 23 0 0
BITMAP
E380
7F00
3E00
0000
3E00
3E00
3E00
3E00
3E00
3E00
3E00
3E00
3E00
3E00
3E00
3E00
3E00
3E00
3E00
3E00
3E00
3E00
3E00
ENDCHAR
STARTCHAR ibreve
ENCODING 301
SWIDTH 361 0
DWIDTH 9 0
BBX 9 18 0 0
BITMAP
E380
7F00
3E00
0000
3E00
3E00
3E00
3E00
3E00
3E00
3E00
3E00
3E00
3E00
3E00
3E00
3E00
3E00
ENDCHAR
STARTCHAR Iogonek
ENCODING 302
SWIDTH 361 0
DWIDTH 9 0
BBX 5 23 2 -4
BITMAP
F8
F8
F8
F8
F8
F8
F8
F8
F8
F8
F8
F8
F8
F8
F8
F8
F8
F8
F8
00
70
E0
78
ENDCHAR
STARTCHAR iogonek
ENCODING 303
SWIDTH 361 0
DWIDTH 9 0
BBX 5 24 2 -4
BITMAP
F8
F8
F8
00
00
00
F8
F8
F8
F8
F8
F8
F8
F8
F8
F8
F8
F8
F8
F8
00
70
E0
78
ENDCHAR
STARTCHAR Idotaccent
ENCODING 304
SWIDTH 361 0
DWIDTH 9 0
BBX 5 23 2 0
BITMAP
78
78
78
00
F8
F8
F8
F8
F8
F8
F8
F8
F8
F8
F8
F8
F8
F8
F8
F8
F8
F8
F8
ENDCHAR
STARTCHAR dotlessi
ENCODING 305
SWIDTH 361 0
DWIDTH 9 0
BBX 5 14 2 0
BITMAP
F8
F8
F8
F8
F8
F8
F8
F8
F8
F8
F8
F8
F8
F8
ENDCHAR
STARTCHAR IJ
ENCODING 306
SWIDTH 844 0
DWIDTH 22 0
BBX 18 23 2 -4
BITMAP
F807C0
F807C0
F807C0
F807C0
F807C0
F807C0
F807C0
F807C0
F807C0
F807C0
F807C0
F807C0
F807C0
F807C0
F807C0
F807C0
F807C0
F807C0
F807C0
010FC0
01FF80
01FF00
00FE00
ENDCHAR
STARTCHAR ij
ENCODING 307
SWIDTH 704 0
DWIDTH 18 0
BBX 15 25 2 -5
BITMAP
F83E
F83E
F83E
0000
0000
0000
F83E
F83E
F83E
F83E
F83E
F83E
F83E
F83E
F83E
F83E
F83E
F83E
F83E
F83E
003E
043E
07FC
07FC
07F0
ENDCHAR
STARTCHAR Jcircumflex
ENCODING 308
SWIDTH 501 0
DWIDTH 13 0
BBX 12 27 0 -4
BITMAP
07C0
0FE0
1C70
0000
03E0
03E0
03E0
03E0
03E0
03E0
03E0
03E0
03E0
03E0
03E0
03E0
03E0
03E0
03E0
03E0
03E0
03E0
03E0
87E0
FFC0
FF80
7F00
ENDCHAR
STARTCHAR jcircumflex
ENCODING 309
SWIDTH 361 0
DWIDTH 9 0
BBX 11 23 -2 -5
BITMAP
0F80
1FC0
38E0
0000
07C0
07C0
07C0
07C0
07C0
07C0
07C0
07C0
07C0
07C0
07C0
07C0
07C0
07C0
07C0
87C0
FF80
FF80
FE00
ENDCHAR
STARTCHAR Kcommaaccent
ENCODING 310
SWIDTH 753 0
DWIDTH 20 0
BBX 17 29 2 -10
BITMAP
F81E00
F81C00
F83C00
F87800
F8F000
F8E000
F9E000
FBC000
FBC000
FFC000
FFE000
FBF000
F9F800
F9F800
F8FC00
F87E00
F87E00
F83F00
F81F80
000000
03E000
03E000
03E000
03E000
03E000
00E000
01C000
03C000
030000
ENDCHAR
STARTCHAR kcommaaccent
ENCODING 311
SWIDTH 681 0
DWIDTH 18 0
BBX 15 30 2 -10
BITMAP
F800
F800
F800
F800
F800
F800
F878
F870
F8F0
F9E0
F9C0
FBC0
FFC0
FBE0
FBF0
F9F0
F9F8
F8FC
F8FC
F87E
0000
07C0
07C0
07C0
07C0
07C0
01C0
0380
0780
0600
ENDCHAR
STARTCHAR kgreenlandic
ENCODING 312
SWIDTH 681 0
DWIDTH 18 0
BBX 15 14 2 0
BITMAP
F878
F870
F8F0
F9E0
F9C0
FBC0
FFC0
FBE0
FBF0
F9F0
F9F8
F8FC
F8FC
F87E
ENDCHAR
STARTCHAR Lacute
ENCODING 313
SWIDTH 620 0
DWIDTH 16 0
BBX 13 23 2 0
BITMAP
1F00
3C00
7800
0000
F800
F800
F800
F800
F800
F800
F800
F800
F800
F800
F800
F800
F800
F800
F800
F800
FFF8
FFF8
FFF8
ENDCHAR
STARTCHAR lacute
ENCODING 314
SWIDTH 361 0
DWIDTH 9 0
BBX 7 24 2 0
BITMAP
3E
78
F0
00
F8
F8
F8
F8
F8
F8
F8
F8
F8
F8
F8
F8
F8
F8
F8
F8
F8
F8
F8
F8
ENDCHAR
STARTCHAR Lcommaaccent
ENCODING 315
SWIDTH 620 0
DWIDTH 16 0
BBX 13 29 2 -10
BITMAP
F800
F800
F800
F800
F800
F800
F800
F800
F800
F800
F800
F800
F800
F800
F800
F800
FFF8
FFF8
FFF8
0000
1F00
1F00
1F00
1F00
1F00
0700
0E00
1E00
1800
ENDCHAR
STARTCHAR lcommaaccent
ENCODING 316
SWIDTH 361 0
DWIDTH 9 0
BBX 5 30 2 -10
BITMAP
F8
F8
F8
F8
F8
F8
F8
F8
F8
F8
F8
F8
F8
F8
F8
F8
F8
F8
F8
F8
00
F8
F8
F8
F8
F8
38
70
F0
C0
ENDCHAR
STARTCHAR Lcaron
ENCODING 317
SWIDTH 854 0
DWIDTH 22 0
BBX 19 20 2 0
BITMAP
0003E0
F803E0
F803E0
F803E0
F803E0
F800E0
F800C0
F803C0
F80300
F80000
F80000
F80000
F80000
F80000
F80000
F80000
F80000
FFF800
FFF800
FFF800
ENDCHAR
STARTCHAR lcaron
ENCODING 318
SWIDTH 608 0
DWIDTH 16 0
BBX 13 20 2 0
BITMAP
F8F8
F8F8
F8F8
F8F8
F8F8
F838
F830
F8F0
F8C0
F800
F800
F800
F800
F800
F800
F800
F800
F800
F800
F800
ENDCHAR
STARTCHAR Ldot
ENCODING 319
SWIDTH 932 0
DWIDTH 33 0
BBX 24 19 2 0
BITMAP
F80000
F80000
F80000
F80000
F80000
F80000
F80000
F80000
F80000
F8000F
F8000F
F8000F
F80000
F80000
F80000
F80000
FFF800
FFF800
FFF800
ENDCHAR
STARTCHAR ldot
ENCODING 320
SWIDTH 686 0
DWIDTH 27 0
BBX 18 20 2 0
BITMAP
F80000
F80000
F80000
F80000
F80000
F80000
F80000
F80000
F80000
F80000
F803C0
F803C0
F803C0
F80000
F80000
F80000
F80000
F80000
F80000
F80000
ENDCHAR
STARTCHAR Lslash
ENCODING 321
SWIDTH 620 0
DWIDTH 16 0
BBX 16 19 0 0
BITMAP
1F00
1F00
1F00
1F00
1F00
1F20
1FE0
1FE0
1FC0
3F00
FF00
FF00
FF00
9F00
1F00
1F00
1FFF
1FFF
1FFF
ENDCHAR
STARTCHAR lslash
ENCODING 322
SWIDTH 361 0
DWIDTH 9 0
BBX 11 20 0 0
BITMAP
1F00
1F00
1F00
1F00
1F00
1F00
1F20
1FE0
1FE0
1FC0
7F00
FF00
FF00
DF00
1F00
1F00
1F00
1F00
1F00
1F00
ENDCHAR
STARTCHAR Nacute
ENCODING 323
SWIDTH 783 0
DWIDTH 20 0
BBX 16 23 2 0
BITMAP
01F0
03C0
0780
0000
F007
F807
FC07
FE07
FE07
FF07
FF87
FFC7
EFC7
E7E7
E3F7
E3FF
E1FF
E0FF
E07F
E07F
E03F
E01F
E00F
ENDCHAR
STARTCHAR nacute
ENCODING 324
SWIDTH 693 0
DWIDTH 18 0
BBX 14 18 2 0
BITMAP
03E0
0780
0F00
0000
F9F0
FBF8
FFFC
FFFC
FC7C
F87C
F87C
F87C
F87C
F87C
F87C
F87C
F87C
F87C
ENDCHAR
STARTCHAR Ncommaaccent
ENCODING 325
SWIDTH 783 0
DWIDTH 20 0
BBX 16 29 2 -10
BITMAP
F007
F807
FC07
FE07
FE07
FF07
FF87
FFC7
EFC7
E7E7
E3F7
E3FF
E1FF
E0FF
E07F
E07F
E03F
E01F
E00F
0000
03E0
03E0
03E0
03E0
03E0
00E0
01C0
03C0
0300
ENDCHAR
STARTCHAR ncommaaccent
ENCODING 326
SWIDTH 693 0
DWIDTH 18 0
BBX 14 24 2 -10
BITMAP
F9F0
FBF8
FFFC
FFFC
FC7C
F87C
F87C
F87C
F87C
F87C
F87C
F87C
F87C
F87C
0000
07C0
07C0
07C0
07C0
07C0
01C0
0380
0780
0600
ENDCHAR
STARTCHAR Ncaron
ENCODING 327
SWIDTH 783 0
DWIDTH 20 0
BBX 16 23 2 0
BITMAP
1C70
0FE0
07C0
0000
F007
F807
FC07
FE07
FE07
FF07
FF87
FFC7
EFC7
E7E7
E3F7
E3FF
E1FF
E0FF
E07F
E07F
E03F
E01F
E00F
ENDCHAR
STARTCHAR ncaron
ENCODING 328
SWIDTH 693 0
DWIDTH 18 0
BBX 14 18 2 0
BITMAP
38E0
1FC0
0F80
0000
F9F0
FBF8
FFFC
FFFC
FC7C
F87C
F87C
F87C
F87C
F87C
F87C
F87C
F87C
F87C
ENDCHAR
STARTCHAR napostrophe
ENCODING 329
SWIDTH 945 0
DWIDTH 25 0
BBX 22 20 1 0
BITMAP
F80000
F80000
F80000
F80000
F80000
380000
30F9F0
F0FBF8
C0FFFC
00FFFC
00FC7C
00F87C
00F87C
00F87C
00F87C
00F87C
00F87C
00F87C
00F87C
00F87C
ENDCHAR
STARTCHAR Eng
ENCODING 330
SWIDTH 783 0
DWIDTH 20 0
BBX 16 24 2 -5
BITMAP
F007
F807
FC07
FE07
FE07
FF07
FF87
FFC7
EFC7
E7E7
E3F7
E3FF
E1FF
E0FF
E07F
E07F
E03F
E01F
E01F
001F
021F
03FE
03FE
03F8
ENDCHAR
STARTCHAR eng
ENCODING 331
SWIDTH 693 0
DWIDTH 18 0
BBX 14 19 2 -5
BITMAP
F9F0
FBF8
FFFC
FFFC
FC7C
F87C
F87C
F87C
F87C
F87C
F87C
F87C
F87C
F87C
007C
087C
0FF8
0FF8
0FE0
ENDCHAR
STARTCHAR Omacron
ENCODING 332
SWIDTH 855 0
DWIDTH 22 0
BBX 20 23 1 0
BITMAP
03FC00
03FC00
03FC00
000000
03FC00
0FFF00
1FFF80
3F0FC0
7E07E0
7C03E0
F801F0
F801F0
F801F0
F801F0
F801F0
F801F0
F801F0
7C03E0
7E07E0
3F0FC0
1FFF80
0FFF00
03FC00
ENDCHAR
STARTCHAR omacron
ENCODING 333
SWIDTH 675 0
DWIDTH 18 0
BBX 16 18 1 0
BITMAP
0FF0
0FF0
0FF0
0000
07E0
1FF8
7FFE
7C3E
FC3F
F81F
F81F
F81F
F81F
FC3F
7C3E
7FFE
1FF8
07E0
ENDCHAR
STARTCHAR Obreve
ENCODING 334
SWIDTH 855 0
DWIDTH 22 0
BBX 20 23 1 0
BITMAP
038E00
01FC00
00F800
000000
03FC00
0FFF00
1FFF80
3F0FC0
7E07E0
7C03E0
F801F0
F801F0
F801F0
F801F0
F801F0
F801F0
F801F0
7C03E0
7E07E0
3F0FC0
1FFF80
0FFF00
03FC00
ENDCHAR
STARTCHAR obreve
ENCODING 335
SWIDTH 675 0
DWIDTH 18 0
BBX 16 18 1 0
BITMAP
0E38
07F0
03E0
0000
07E0
1FF8
7FFE
7C3E
FC3F
F81F
F81F
F81F
F81F
FC3F
7C3E
7FFE
1FF8
07E0
ENDCHAR
STARTCHAR Ohungarumlaut
ENCODING 336
SWIDTH 855 0
DWIDTH 22 0
BBX 20 23 1 0
BITMAP
00F700
01CC00
03B800
000000
03FC00
0FFF00
1FFF80
3F0FC0
7E07E0
7C03E0
F801F0
F801F0
F801F0
F801F0
F801F0
F801F0
F801F0
7C03E0
7E07E0
3F0FC0
1FFF80
0FFF00
03FC00
ENDCHAR
STARTCHAR ohungarumlaut
ENCODING 337
SWIDTH 675 0
DWIDTH 18 0
BBX 16 18 1 0
BITMAP
03DC
0730
0EE0
0000
07E0
1FF8
7FFE
7C3E
FC3F
F81F
F81F
F81F
F81F
FC3F
7C3E
7FFE
1FF8
07E0
ENDCHAR
STARTCHAR OE
ENCODING 338
SWIDTH 1102 0
DWIDTH 29 0
BBX 26 19 1 0
BITMAP
03FFFF80
0FFFFF80
1FFFFF80
3F0FC000
7E07C000
7C07C000
F807C000
F807C000
F807FF00
F807FF00
F807FF00
F807C000
F807C000
7C07C000
7E07C000
3F0FC000
1FFFFFC0
0FFFFFC0
03FFFFC0
ENDCHAR
STARTCHAR oe
ENCODING 339
SWIDTH 990 0
DWIDTH 26 0
BBX 24 14 1 0
BITMAP
0FC1F0
1FF3FC
7FFFFE
7C7F3E
FC3E1F
F83E1F
F83FFF
F83FFF
F83FFF
FC3E00
7C7F03
7FFFFF
1FFFFF
0FE1FE
ENDCHAR
STARTCHAR Racute
ENCODING 340
SWIDTH 734 0
DWIDTH 19 0
BBX 17 23 2 0
BITMAP
01F000
03C000
078000
000000
FFE000
FFF800
FFF800
F8FC00
F87C00
F87C00
F87C00
F8F800
FFF800
FFF000
FFE000
F9F000
F9F800
F8F800
F8FC00
F87E00
F87F00
F83F00
F83F80
ENDCHAR
STARTCHAR racute
ENCODING 341
SWIDTH 500 0
DWIDTH 13 0
BBX 10 18 2 0
BITMAP
0F80
1E00
3C00
0000
F9C0
FBC0
FFC0
FFC0
FC00
F800
F800
F800
F800
F800
F800
F800
F800
F800
ENDCHAR
STARTCHAR Rcommaaccent
ENCODING 342
SWIDTH 734 0
DWIDTH 19 0
BBX 17 29 2 -10
BITMAP
FFE000
FFF800
FFF800
F8FC00
F87C00
F87C00
F87C00
F8F800
FFF800
FFF000
FFE000
F9F000
F9F800
F8F800
F8FC00
F87E00
F87F00
F83F00
F83F80
000000
03E000
03E000
03E000
03E000
03E000
00E000
01C000
03C000
030000
ENDCHAR
STARTCHAR rcommaaccent
ENCODING 343
SWIDTH 500 0
DWIDTH 13 0
BBX 10 24 2 -10
BITMAP
F9C0
FBC0
FFC0
FFC0
FC00
F800
F800
F800
F800
F800
F800
F800
F800
F800
0000
7C00
7C00
7C00
7C00
7C00
1C00
3800
7800
6000
ENDCHAR
STARTCHAR Rcaron
ENCODING 344
SWIDTH 734 0
DWIDTH 19 0
BBX 17 23 2 0
BITMAP
1C7000
0FE000
07C000
000000
FFE000
FFF800
FFF800
F8FC00
F87C00
F87C00
F87C00
F8F800
FFF800
FFF000
FFE000
F9F000
F9F800
F8F800
F8FC00
F87E00
F87F00
F83F00
F83F80
ENDCHAR
STARTCHAR rcaron
ENCODING 345
SWIDTH 500 0
DWIDTH 13 0
BBX 10 18 2 0
BITMAP
E380
7F00
3E00
0000
F9C0
FBC0
FFC0
FFC0
FC00
F800
F800
F800
F800
F800
F800
F800
F800
F800
ENDCHAR
STARTCHAR Sacute
ENCODING 346
SWIDTH 594 0
DWIDTH 15 0
BBX 14 23 1 0
BITMAP
03E0
0780
0F00
0000
0FF8
3FF8
7FF8
FC18
F800
FC00
FE00
7F80
7FE0
3FF0
0FF8
03FC
00FC
007C
007C
C0FC
FFF8
FFF0
FFC0
ENDCHAR
STARTCHAR sacute
ENCODING 347
SWIDTH 622 0
DWIDTH 16 0
BBX 13 18 2 0
BITMAP
03E0
0780
0F00
0000
1FE0
7FF0
FFF0
F830
F800
FF00
7FC0
1FF0
07F8
01F8
C0F8
FFF0
FFF0
7FC0
ENDCHAR
STARTCHAR Scircumflex
ENCODING 348
SWIDTH 594 0
DWIDTH 15 0
BBX 14 23 1 0
BITMAP
0F80
1FC0
38E0
0000
0FF8
3FF8
7FF8
FC18
F800
FC00
FE00
7F80
7FE0
3FF0
0FF8
03FC
00FC
007C
007C
C0FC
FFF8
FFF0
FFC0
ENDCHAR
STARTCHAR scircumflex
ENCODING 349
SWIDTH 622 0
DWIDTH 16 0
BBX 13 18 2 0
BITMAP
0F80
1FC0
38E0
0000
1FE0
7FF0
FFF0
F830
F800
FF00
7FC0
1FF0
07F8
01F8
C0F8
FFF0
FFF0
7FC0
ENDCHAR
STARTCHAR Scedilla
ENCODING 350
SWIDTH 594 0
DWIDTH 15 0
BBX 14 24 1 -5
BITMAP
0FF8
3FF8
7FF8
FC18
F800
FC00
FE00
7F80
7FE0
3FF0
0FF8
03FC
00FC
007C
007C
C0FC
FFF8
FFF0
FFC0
0300
0600
0380
0F80
0F00
ENDCHAR
STARTCHAR scedilla
ENCODING 351
SWIDTH 622 0
DWIDTH 16 0
BBX 13 19 2 -5
BITMAP
1FE0
7FF0
FFF0
F830
F800
FF00
7FC0
1FF0
07F8
01F8
C0F8
FFF0
FFF0
7FC0
0300
0600
0380
0F80
0F00
ENDCHAR
STARTCHAR Scaron
ENCODING 352
SWIDTH 594 0
DWIDTH 15 0
BBX 14 23 1 0
BITMAP
1C70
0FE0
07C0
0000
0FF8
3FF8
7FF8
FC18
F800
FC00
FE00
7F80
7FE0
3FF0
0FF8
03FC
00FC
007C
007C
C0FC
FFF8
FFF0
FFC0
ENDCHAR
STARTCHAR scaron
ENCODING 353
SWIDTH 622 0
DWIDTH 16 0
BBX 13 18 2 0
BITMAP
38E0
1FC0
0F80
0000
1FE0
7FF0
FFF0
F830
F800
FF00
7FC0
1FF0
07F8
01F8
C0F8
FFF0
FFF0
7FC0
ENDCHAR
STARTCHAR Tcommaaccent
ENCODING 354
SWIDTH 735 0
DWIDTH 19 0
BBX 19 24 0 -5
BITMAP
FFFFE0
FFFFE0
FFFFE0
01F000
01F000
01F000
01F000
01F000
01F000
01F000
01F000
01F000
01F000
01F000
01F000
01F000
01F000
01F000
01F000
006000
00C000
007000
01F000
01E000
ENDCHAR
STARTCHAR tcommaaccent
ENCODING 355
SWIDTH 436 0
DWIDTH 11 0
BBX 9 23 1 -5
BITMAP
1C00
7C00
7C00
7C00
FF80
FF80
FF80
7C00
7C00
7C00
7C00
7C00
7C00
7C00
7C00
7F80
3F80
1F80
0C00
1800
0E00
3E00
3C00
ENDCHAR
STARTCHAR Tcaron
ENCODING 356
SWIDTH 735 0
DWIDTH 19 0
BBX 19 23 0 0
BITMAP
071C00
03F800
01F000
000000
FFFFE0
FFFFE0
FFFFE0
01F000
01F000
01F000
01F000
01F000
01F000
01F000
01F000
01F000
01F000
01F000
01F000
01F000
01F000
01F000
01F000
ENDCHAR
STARTCHAR tcaron
ENCODING 357
SWIDTH 679 0
DWIDTH 17 0
BBX 15 20 1 0
BITMAP
003E
003E
1C3E
7C3E
7C3E
7C0E
FF8C
FFBC
FFB0
7C00
7C00
7C00
7C00
7C00
7C00
7C00
7C00
7F80
3F80
1F80
ENDCHAR
STARTCHAR Tbar
ENCODING 358
SWIDTH 735 0
DWIDTH 19 0
BBX 19 19 0 0
BITMAP
FFFFE0
FFFFE0
FFFFE0
01F000
01F000
01F000
01F000
01F000
01F000
01F000
01F000
01F000
01F000
01F000
01F000
01F000
01F000
01F000
01F000
ENDCHAR
STARTCHAR tbar
ENCODING 359
SWIDTH 436 0
DWIDTH 11 0
BBX 9 18 1 0
BITMAP
1C00
7C00
7C00
7C00
FF80
FF80
FF80
7C00
7C00
7E00
7E00
7E00
7C00
7C00
7C00
7F80
3F80
1F80
ENDCHAR
STARTCHAR Utilde
ENCODING 360
SWIDTH 783 0
DWIDTH 20 0
BBX 16 23 2 0
BITMAP
07B8
0FF8
0EF0
0000
F81F
F81F
F81F
F81F
F81F
F81F
F81F
F81F
F81F
F81F
F81F
F81F
F81F
F81F
FC3F
7C3E
7FFE
1FFC
07F0
ENDCHAR
STARTCHAR utilde
ENCODING 361
SWIDTH 693 0
DWIDTH 18 0
BBX 14 18 2 0
BITMAP
0F70
1FF0
1DE0
0000
F87C
F87C
F87C
F87C
F87C
F87C
F87C
F87C
F87C
F87C
F8FC
FFFC
7F7C
3E7C
ENDCHAR
STARTCHAR Umacron
ENCODING 362
SWIDTH 783 0
DWIDTH 20 0
BBX 16 23 2 0
BITMAP
0FF0
0FF0
0FF0
0000
F81F
F81F
F81F
F81F
F81F
F81F
F81F
F81F
F81F
F81F
F81F
F81F
F81F
F81F
FC3F
7C3E
7FFE
1FFC
07F0
ENDCHAR
STARTCHAR umacron
ENCODING 363
SWIDTH 693 0
DWIDTH 18 0
BBX 14 18 2 0
BITMAP
1FE0
1FE0
1FE0
0000
F87C
F87C
F87C
F87C
F87C
F87C
F87C
F87C
F87C
F87C
F8FC
FFFC
7F7C
3E7C
ENDCHAR
STARTCHAR Ubreve
ENCODING 364
SWIDTH 783 0
DWIDTH 20 0
BBX 16 23 2 0
BITMAP
0E38
07F0
03E0
0000
F81F
F81F
F81F
F81F
F81F
F81F
F81F
F81F
F81F
F81F
F81F
F81F
F81F
F81F
FC3F
7C3E
7FFE
1FFC
07F0
ENDCHAR
STARTCHAR ubreve
ENCODING 365
SWIDTH 693 0
DWIDTH 18 0
BBX 14 18 2 0
BITMAP
1C70
0FE0
07C0
0000
F87C
F87C
F87C
F87C
F87C
F87C
F87C
F87C
F87C
F87C
F8FC
FFFC
7F7C
3E7C
ENDCHAR
STARTCHAR Uring
ENCODING 366
SWIDTH 783 0
DWIDTH 20 0
BBX 16 24 2 0
BITMAP
0180
0240
0240
0180
0000
F81F
F81F
F81F
F81F
F81F
F81F
F81F
F81F
F81F
F81F
F81F
F81F
F81F
F81F
FC3F
7C3E
7FFE
1FFC
07F0
ENDCHAR
STARTCHAR uring
ENCODING 367
SWIDTH 693 0
DWIDTH 18 0
BBX 14 19 2 0
BITMAP
0300
0480
0480
0300
0000
F87C
F87C
F87C
F87C
F87C
F87C
F87C
F87C
F87C
F87C
F8FC
FFFC
7F7C
3E7C
ENDCHAR
STARTCHAR Uhungarumlaut
ENCODING 368
SWIDTH 783 0
DWIDTH 20 0
BBX 16 23 2 0
BITMAP
03DC
0730
0EE0
0000
F81F
F81F
F81F
F81F
F81F
F81F
F81F
F81F
F81F
F81F
F81F
F81F
F81F
F81F
FC3F
7C3E
7FFE
1FFC
07F0
ENDCHAR
STARTCHAR uhungarumlaut
ENCODING 369
SWIDTH 693 0
DWIDTH 18 0
BBX 14 18 2 0
BITMAP
07B8
0E60
1DC0
0000
F87C
F87C
F87C
F87C
F87C
F87C
F87C
F87C
F87C
F87C
F8FC
FFFC
7F7C
3E7C
ENDCHAR
STARTCHAR Uogonek
ENCODING 370
SWIDTH 783 0
DWIDTH 20 0
BBX 16 23 2 -4
BITMAP
F81F
F81F
F81F
F81F
F81F
F81F
F81F
F81F
F81F
F81F
F81F
F81F
F81F
F81F
FC3F
7C3E
7FFE
1FFC
07F0
0000
01C0
0380
01E0
ENDCHAR
STARTCHAR uogonek
ENCODING 371
SWIDTH 693 0
DWIDTH 18 0
BBX 14 18 2 -4
BITMAP
F87C
F87C
F87C
F87C
F87C
F87C
F87C
F87C
F87C
F87C
F8FC
FFFC
7F7C
3E7C
0000
0380
0700
03C0
ENDCHAR
STARTCHAR Wcircumflex
ENCODING 372
SWIDTH 940 0
DWIDTH 24 0
BBX 24 23 0 0
BITMAP
007C00
00FE00
01C700
000000
F81E07
F83E07
FC3E0E
7C3E0E
7C3F0E
7C7F0E
7E7F1C
3E7F1C
3E7F1C
3E77BC
3EE7B8
1FE7B8
1FE7B8
1FE7F8
1FC3F0
0FC3F0
0FC3F0
0FC3F0
0FC1E0
ENDCHAR
STARTCHAR wcircumflex
ENCODING 373
SWIDTH 885 0
DWIDTH 23 0
BBX 21 18 1 0
BITMAP
00F800
01FC00
038E00
000000
F07838
F87C38
78FC70
78FC70
78FC70
7DFEE0
3DDEE0
3DDEE0
3DDEE0
3F8FC0
1F8FC0
1F8FC0
1F8FC0
1F0F80
ENDCHAR
STARTCHAR Ycircumflex
ENCODING 374
SWIDTH 738 0
DWIDTH 19 0
BBX 17 23 1 0
BITMAP
03E000
07F000
0E3800
000000
FC0780
7C0700
7E0F00
3E0E00
3F1C00
1F1C00
1FB800
0FF800
0FF000
07F000
03E000
03E000
03E000
03E000
03E000
03E000
03E000
03E000
03E000
ENDCHAR
STARTCHAR ycircumflex
ENCODING 375
SWIDTH 645 0
DWIDTH 17 0
BBX 16 23 0 -5
BITMAP
07C0
0FE0
1C70
0000
FC0F
7C0E
7C1E
7E1C
3E3C
3F38
1F78
1F70
1FF0
0FE0
0FE0
07C0
07C0
0780
0780
0F00
0F00
1F00
3E00
ENDCHAR
STARTCHAR Ydieresis
ENCODING 376
SWIDTH 738 0
DWIDTH 19 0
BBX 17 23 1 0
BITMAP
073800
073800
073800
000000
FC0780
7C0700
7E0F00
3E0E00
3F1C00
1F1C00
1FB800
0FF800
0FF000
07F000
03E000
03E000
03E000
03E000
03E000
03E000
03E000
03E000
03E000
ENDCHAR
STARTCHAR Zacute
ENCODING 377
SWIDTH 675 0
DWIDTH 18 0
BBX 14 23 2 0
BITMAP
01F0
03C0
0780
0000
FFFC
FFFC
FFFC
00FC
01F8
01F8
03F0
07E0
07E0
0FC0
1F80
1F80
3F00
7E00
7E00
FC00
FFFC
FFFC
FFFC
ENDCHAR
STARTCHAR zacute
ENCODING 378
SWIDTH 608 0
DWIDTH 16 0
BBX 13 18 2 0
BITMAP
03E0
0780
0F00
0000
FFF8
FFF8
FFF8
03F8
07F0
0FE0
0FC0
1F80
3F00
7F00
FE00
FFF8
FFF8
FFF8
ENDCHAR
STARTCHAR Zdotaccent
ENCODING 379
SWIDTH 675 0
DWIDTH 18 0
BBX 14 23 2 0
BITMAP
03C0
03C0
03C0
0000
FFFC
FFFC
FFFC
00FC
01F8
01F8
03F0
07E0
07E0
0FC0
1F80
1F80
3F00
7E00
7E00
FC00
FFFC
FFFC
FFFC
ENDCHAR
STARTCHAR zdotaccent
ENCODING 380
SWIDTH 608 0
DWIDTH 16 0
BBX 13 18 2 0
BITMAP
0780
0780
0780
0000
FFF8
FFF8
FFF8
03F8
07F0
0FE0
0FC0
1F80
3F00
7F00
FE00
FFF8
FFF8
FFF8
ENDCHAR
STARTCHAR Zcaron
ENCODING 381
SWIDTH 675 0
DWIDTH 18 0
BBX 14 23 2 0
BITMAP
1C70
0FE0
07C0
0000
FFFC
FFFC
FFFC
00FC
01F8
01F8
03F0
07E0
07E0
0FC0
1F80
1F80
3F00
7E00
7E00
FC00
FFFC
FFFC
FFFC
ENDCHAR
STARTCHAR zcaron
ENCODING 382
SWIDTH 608 0
DWIDTH 16 0
BBX 13 18 2 0
BITMAP
38E0
1FC0
0F80
0000
FFF8
FFF8
FFF8
03F8
07F0
0FE0
0FC0
1F80
3F00
7F00
FE00
FFF8
FFF8
FFF8
ENDCHAR
STARTCHAR uni0186
ENCODING 390
SWIDTH 726 0
DWIDTH 19 0
BBX 17 19 1 0
BITMAP
3FE000
FFF800
FFFC00
C0FE00
003F00
001F00
001F80
000F80
000F80
000F80
000F80
000F80
001F80
001F00
003F00
C07E00
FFFC00
FFF800
7FC000
ENDCHAR
STARTCHAR uni0189
ENCODING 393
SWIDTH 819 0
DWIDTH 21 0
BBX 21 19 0 0
BITMAP
1FFF00
1FFFC0
1FFFE0
1F07F0
1F03F0
1F01F0
1F00F8
1F00F8
FFF0F8
FFF0F8
FFF0F8
1F00F8
1F00F8
1F01F0
1F01F0
1F07E0
1FFFE0
1FFF80
1FFE00
ENDCHAR
STARTCHAR uni018E
ENCODING 398
SWIDTH 645 0
DWIDTH 17 0
BBX 13 19 2 0
BITMAP
FFF8
FFF8
FFF8
00F8
00F8
00F8
00F8
00F8
3FF8
3FF8
3FF8
00F8
00F8
00F8
00F8
00F8
7FF8
7FF8
7FF8
ENDCHAR
STARTCHAR florin
ENCODING 402
SWIDTH 687 0
DWIDTH 18 0
BBX 14 23 3 -4
BITMAP
00FC
03FC
07FC
0780
0F80
0F00
1F00
1F00
7FC0
7FC0
7FC0
3E00
3E00
3E00
3E00
7C00
7C00
7C00
7C00
7C00
F800
F800
F800
ENDCHAR
STARTCHAR uni0197
ENCODING 407
SWIDTH 361 0
DWIDTH 9 0
BBX 5 19 2 0
BITMAP
F8
F8
F8
F8
F8
F8
F8
F8
F8
F8
F8
F8
F8
F8
F8
F8
F8
F8
F8
ENDCHAR
STARTCHAR uni019A
ENCODING 410
SWIDTH 361 0
DWIDTH 9 0
BBX 5 20 2 0
BITMAP
F8
F8
F8
F8
F8
F8
F8
F8
F8
F8
F8
F8
F8
F8
F8
F8
F8
F8
F8
F8
ENDCHAR
STARTCHAR uni019D
ENCODING 413
SWIDTH 783 0
DWIDTH 20 0
BBX 21 24 -3 -5
BITMAP
078038
07C038
07E038
07F038
07F038
07F838
07FC38
07FE38
077E38
073F38
071FB8
071FF8
070FF8
07C7F8
07C3F8
07C3F8
07C1F8
07C0F8
07C078
07C000
87C000
FF8000
FF8000
FE0000
ENDCHAR
STARTCHAR uni019F
ENCODING 415
SWIDTH 855 0
DWIDTH 22 0
BBX 20 19 1 0
BITMAP
03FC00
0FFF00
1FFF80
3F0FC0
7E07E0
7C03E0
F801F0
F801F0
FFFFF0
FFFFF0
FFFFF0
F801F0
F801F0
7C03E0
7E07E0
3F0FC0
1FFF80
0FFF00
03FC00
ENDCHAR
STARTCHAR Ohorn
ENCODING 416
SWIDTH 855 0
DWIDTH 22 0
BBX 23 19 1 0
BITMAP
03FC3E
0FFF3E
1FFFBE
3F0FFE
7E07FE
7C03EE
F801FC
F801FC
F801F0
F801F0
F801F0
F801F0
F801F0
7C03E0
7E07E0
3F0FC0
1FFF80
0FFF00
03FC00
ENDCHAR
STARTCHAR ohorn
ENCODING 417
SWIDTH 675 0
DWIDTH 18 0
BBX 20 14 1 0
BITMAP
07E1F0
1FF9F0
7FFFF0
7C3FF0
FC3FF0
F81F70
F81F60
F81FE0
F81F80
FC3F00
7C3E00
7FFE00
1FF800
07E000
ENDCHAR
STARTCHAR uni01A7
ENCODING 423
SWIDTH 594 0
DWIDTH 15 0
BBX 14 19 1 0
BITMAP
7FC0
7FF0
7FF8
60FC
007C
00FC
01FC
07F8
1FF8
3FF0
7FC0
FF00
FC00
F800
F800
FC0C
7FFC
3FFC
0FFC
ENDCHAR
STARTCHAR uni01A8
ENCODING 424
SWIDTH 622 0
DWIDTH 16 0
BBX 13 14 2 0
BITMAP
3FC0
7FF0
7FF8
60F8
00F8
07F8
1FF0
7FC0
FF00
FC00
F818
7FF8
7FF8
1FF0
ENDCHAR
STARTCHAR uni01AE
ENCODING 430
SWIDTH 735 0
DWIDTH 19 0
BBX 19 24 0 -5
BITMAP
FFFFE0
FFFFE0
FFFFE0
01F000
01F000
01F000
01F000
01F000
01F000
01F000
01F000
01F000
01F000
01F000
01F000
01F000
01F000
01F000
01F000
01F000
01F080
00FF80
00FF80
003F80
ENDCHAR
STARTCHAR Uhorn
ENCODING 431
SWIDTH 783 0
DWIDTH 20 0
BBX 20 19 2 0
BITMAP
F81FF0
F81FF0
F81FF0
F81FF0
F81FF0
F81F70
F81F60
F81FE0
F81F80
F81F00
F81F00
F81F00
F81F00
F81F00
FC3F00
7C3E00
7FFE00
1FFC00
07F000
ENDCHAR
STARTCHAR uhorn
ENCODING 432
SWIDTH 693 0
DWIDTH 18 0
BBX 18 14 2 0
BITMAP
F87FC0
F87FC0
F87FC0
F87FC0
F87FC0
F87DC0
F87D80
F87F80
F87E00
F87C00
F8FC00
FFFC00
7F7C00
3E7C00
ENDCHAR
STARTCHAR uni01B5
ENCODING 437
SWIDTH 675 0
DWIDTH 18 0
BBX 14 19 2 0
BITMAP
FFFC
FFFC
FFFC
00FC
01F8
01F8
03F0
07E0
07E0
0FC0
1FC0
1F80
3F00
7E00
7E00
FC00
FFFC
FFFC
FFFC
ENDCHAR
STARTCHAR uni01B6
ENCODING 438
SWIDTH 608 0
DWIDTH 16 0
BBX 13 14 2 0
BITMAP
FFF8
FFF8
FFF8
03F8
07F0
0FE0
0FC0
1F80
3F00
7F00
FE00
FFF8
FFF8
FFF8
ENDCHAR
STARTCHAR uni01BB
ENCODING 443
SWIDTH 687 0
DWIDTH 18 0
BBX 14 19 2 0
BITMAP
3FC0
7FF0
7FF8
40FC
007C
007C
007C
00FC
FFFC
FFFC
FFFC
07C0
0F80
3E00
7C00
FC00
FFFC
FFFC
FFFC
ENDCHAR
STARTCHAR uni01BC
ENCODING 444
SWIDTH 687 0
DWIDTH 18 0
BBX 13 19 3 0
BITMAP
FFF8
FFF8
FFF8
E000
E000
E000
FF00
FFC0
FFE0
07F0
01F8
00F8
00F8
00F8
00F8
C1F0
FFF0
FFE0
7F80
ENDCHAR
STARTCHAR uni01C0
ENCODING 448
SWIDTH 265 0
DWIDTH 7 0
BBX 3 24 2 -4
BITMAP
E0
E0
E0
E0
E0
E0
E0
E0
E0
E0
E0
E0
E0
E0
E0
E0
E0
E0
E0
E0
E0
E0
E0
E0
ENDCHAR
STARTCHAR uni01C2
ENCODING 450
SWIDTH 687 0
DWIDTH 18 0
BBX 15 24 1 -5
BITMAP
0380
0380
0380
0380
0380
0380
0380
FFFE
FFFE
FFFE
0380
0380
0380
0380
FFFE
FFFE
FFFE
0380
0380
0380
0380
0380
0380
0380
ENDCHAR
STARTCHAR uni01C3
ENCODING 451
SWIDTH 265 0
DWIDTH 9 0
BBX 5 19 2 0
BITMAP
F8
F8
F8
F8
F8
F8
F8
F8
F8
70
70
70
70
00
00
00
F8
F8
F8
ENDCHAR
STARTCHAR uni01CD
ENCODING 461
SWIDTH 773 0
DWIDTH 20 0
BBX 19 23 1 0
BITMAP
071C00
03F800
01F000
000000
01F000
01F800
03F800
03F800
07FC00
077C00
077E00
0F3E00
0E3E00
0E3F00
1C1F00
1FFF00
3FFF80
3FFF80
380FC0
7807C0
7007C0
7003E0
E003E0
ENDCHAR
STARTCHAR uni01CE
ENCODING 462
SWIDTH 623 0
DWIDTH 16 0
BBX 14 18 1 0
BITMAP
1C70
0FE0
07C0
0000
1FC0
7FF0
7FF8
41F8
00F8
00F8
1FF8
7FF8
FFF8
F8F8
F8F8
FFFC
7FFC
3E7C
ENDCHAR
STARTCHAR uni01CF
ENCODING 463
SWIDTH 361 0
DWIDTH 9 0
BBX 9 23 0 0
BITMAP
E380
7F00
3E00
0000
3E00
3E00
3E00
3E00
3E00
3E00
3E00
3E00
3E00
3E00
3E00
3E00
3E00
3E00
3E00
3E00
3E00
3E00
3E00
ENDCHAR
STARTCHAR uni01D0
ENCODING 464
SWIDTH 361 0
DWIDTH 9 0
BBX 9 18 0 0
BITMAP
E380
7F00
3E00
0000
3E00
3E00
3E00
3E00
3E00
3E00
3E00
3E00
3E00
3E00
3E00
3E00
3E00
3E00
ENDCHAR
STARTCHAR uni01D1
ENCODING 465
SWIDTH 855 0
DWIDTH 22 0
BBX 20 23 1 0
BITMAP
038E00
01FC00
00F800
000000
03FC00
0FFF00
1FFF80
3F0FC0
7E07E0
7C03E0
F801F0
F801F0
F801F0
F801F0
F801F0
F801F0
F801F0
7C03E0
7E07E0
3F0FC0
1FFF80
0FFF00
03FC00
ENDCHAR
STARTCHAR uni01D2
ENCODING 466
SWIDTH 675 0
DWIDTH 18 0
BBX 16 18 1 0
BITMAP
0E38
07F0
03E0
0000
07E0
1FF8
7FFE
7C3E
FC3F
F81F
F81F
F81F
F81F
FC3F
7C3E
7FFE
1FF8
07E0
ENDCHAR
STARTCHAR uni01D3
ENCODING 467
SWIDTH 783 0
DWIDTH 20 0
BBX 16 23 2 0
BITMAP
0E38
07F0
03E0
0000
F81F
F81F
F81F
F81F
F81F
F81F
F81F
F81F
F81F
F81F
F81F
F81F
F81F
F81F
FC3F
7C3E
7FFE
1FFC
07F0
ENDCHAR
STARTCHAR uni01D4
ENCODING 468
SWIDTH 693 0
DWIDTH 18 0
BBX 14 18 2 0
BITMAP
1C70
0FE0
07C0
0000
F87C
F87C
F87C
F87C
F87C
F87C
F87C
F87C
F87C
F87C
F8FC
FFFC
7F7C
3E7C
ENDCHAR
STARTCHAR uni01D5
ENCODING 469
SWIDTH 783 0
DWIDTH 20 0
BBX 16 27 2 0
BITMAP
0FF0
0FF0
0FF0
0000
0E70
0E70
0E70
0000
F81F
F81F
F81F
F81F
F81F
F81F
F81F
F81F
F81F
F81F
F81F
F81F
F81F
F81F
FC3F
7C3E
7FFE
1FFC
07F0
ENDCHAR
STARTCHAR uni01D6
ENCODING 470
SWIDTH 693 0
DWIDTH 18 0
BBX 14 22 2 0
BITMAP
1FE0
1FE0
1FE0
0000
1CE0
1CE0
1CE0
0000
F87C
F87C
F87C
F87C
F87C
F87C
F87C
F87C
F87C
F87C
F8FC
FFFC
7F7C
3E7C
ENDCHAR
STARTCHAR uni01D7
ENCODING 471
SWIDTH 783 0
DWIDTH 20 0
BBX 16 27 2 0
BITMAP
00F8
01E0
03C0
0000
0E70
0E70
0E70
0000
F81F
F81F
F81F
F81F
F81F
F81F
F81F
F81F
F81F
F81F
F81F
F81F
F81F
F81F
FC3F
7C3E
7FFE
1FFC
07F0
ENDCHAR
STARTCHAR uni01D8
ENCODING 472
SWIDTH 693 0
DWIDTH 18 0
BBX 14 22 2 0
BITMAP
01F0
03C0
0780
0000
1CE0
1CE0
1CE0
0000
F87C
F87C
F87C
F87C
F87C
F87C
F87C
F87C
F87C
F87C
F8FC
FFFC
7F7C
3E7C
ENDCHAR
STARTCHAR uni01D9
ENCODING 473
SWIDTH 783 0
DWIDTH 20 0
BBX 16 27 2 0
BITMAP
0E38
07F0
03E0
0000
0E70
0E70
0E70
0000
F81F
F81F
F81F
F81F
F81F
F81F
F81F
F81F
F81F
F81F
F81F
F81F
F81F
F81F
FC3F
7C3E
7FFE
1FFC
07F0
ENDCHAR
STARTCHAR uni01DA
ENCODING 474
SWIDTH 693 0
DWIDTH 18 0
BBX 14 22 2 0
BITMAP
1C70
0FE0
07C0
0000
1CE0
1CE0
1CE0
0000
F87C
F87C
F87C
F87C
F87C
F87C
F87C
F87C
F87C
F87C
F8FC
FFFC
7F7C
3E7C
ENDCHAR
STARTCHAR uni01DB
ENCODING 475
SWIDTH 783 0
DWIDTH 20 0
BBX 16 27 2 0
BITMAP
0F80
03C0
01E0
0000
0E70
0E70
0E70
0000
F81F
F81F
F81F
F81F
F81F
F81F
F81F
F81F
F81F
F81F
F81F
F81F
F81F
F81F
FC3F
7C3E
7FFE
1FFC
07F0
ENDCHAR
STARTCHAR uni01DC
ENCODING 476
SWIDTH 693 0
DWIDTH 18 0
BBX 14 22 2 0
BITMAP
1F00
0780
03C0
0000
1CE0
1CE0
1CE0
0000
F87C
F87C
F87C
F87C
F87C
F87C
F87C
F87C
F87C
F87C
F8FC
FFFC
7F7C
3E7C
ENDCHAR
STARTCHAR uni01DD
ENCODING 477
SWIDTH 614 0
DWIDTH 16 0
BBX 14 14 1 0
BITMAP
7F80
FFE0
FFF0
81F8
00FC
007C
FFFC
FFFC
FFFC
F87C
7CF8
7FF8
3FF0
1FC0
ENDCHAR
STARTCHAR uni01DE
ENCODING 478
SWIDTH 773 0
DWIDTH 20 0
BBX 19 27 1 0
BITMAP
03FC00
03FC00
03FC00
000000
039C00
039C00
039C00
000000
01F000
01F800
03F800
03F800
07FC00
077C00
077E00
0F3E00
0E3E00
0E3F00
1C1F00
1FFF00
3FFF80
3FFF80
380FC0
7807C0
7007C0
7003E0
E003E0
ENDCHAR
STARTCHAR uni01DF
ENCODING 479
SWIDTH 623 0
DWIDTH 16 0
BBX 14 22 1 0
BITMAP
1FE0
1FE0
1FE0
0000
1CE0
1CE0
1CE0
0000
1FC0
7FF0
7FF8
41F8
00F8
00F8
1FF8
7FF8
FFF8
F8F8
F8F8
FFFC
7FFC
3E7C
ENDCHAR
STARTCHAR uni01E0
ENCODING 480
SWIDTH 773 0
DWIDTH 20 0
BBX 19 27 1 0
BITMAP
03FC00
03FC00
03FC00
000000
00F000
00F000
00F000
000000
01F000
01F800
03F800
03F800
07FC00
077C00
077E00
0F3E00
0E3E00
0E3F00
1C1F00
1FFF00
3FFF80
3FFF80
380FC0
7807C0
7007C0
7003E0
E003E0
ENDCHAR
STARTCHAR uni01E1
ENCODING 481
SWIDTH 623 0
DWIDTH 16 0
BBX 14 22 1 0
BITMAP
1FE0
1FE0
1FE0
0000
0780
0780
0780
0000
1FC0
7FF0
7FF8
41F8
00F8
00F8
1FF8
7FF8
FFF8
F8F8
F8F8
FFFC
7FFC
3E7C
ENDCHAR
STARTCHAR uni01E2
ENCODING 482
SWIDTH 997 0
DWIDTH 26 0
BBX 25 23 0 0
BITMAP
001FE000
001FE000
001FE000
00000000
003FFF00
003FFF00
007FFF00
007F0000
00FF0000
00FF0000
01DF0000
01DF0000
039FFE00
079FFE00
071FFE00
0F1F0000
0FFF0000
1FFF0000
1FFF0000
381F0000
381FFF80
701FFF80
F01FFF80
ENDCHAR
STARTCHAR uni01E3
ENCODING 483
SWIDTH 913 0
DWIDTH 24 0
BBX 22 18 1 0
BITMAP
01FE00
01FE00
01FE00
000000
1F87C0
7FFFF0
7FFFF8
60FCF8
00F87C
00F87C
1FFFFC
7FFFFC
FFFFFC
F8F800
F8FC04
FFBFFC
7F9FFC
3E0FF8
ENDCHAR
STARTCHAR uni01E4
ENCODING 484
SWIDTH 759 0
DWIDTH 20 0
BBX 17 19 1 0
BITMAP
01FF80
0FFF80
1FFF80
3F0180
7E0000
7C0000
FC0000
F80000
F80000
F80000
F80F80
F80F80
F80F80
7C0F80
7E0F80
3F8F80
1FFF80
0FFF80
03FF00
ENDCHAR
STARTCHAR uni01E5
ENCODING 485
SWIDTH 696 0
DWIDTH 18 0
BBX 15 19 1 -5
BITMAP
0FBE
3FFE
7FFE
7C7E
FC3E
F83E
F83E
F83E
F83E
F83E
7C7E
7FBE
FFFE
FFFE
FFFE
207E
3FFC
7FF8
1FE0
ENDCHAR
STARTCHAR Gcaron
ENCODING 486
SWIDTH 759 0
DWIDTH 20 0
BBX 17 23 1 0
BITMAP
071C00
03F800
01F000
000000
01FF80
0FFF80
1FFF80
3F0180
7E0000
7C0000
FC0000
F80000
F80000
F80000
F80F80
F80F80
F80F80
7C0F80
7E0F80
3F8F80
1FFF80
0FFF80
03FF00
ENDCHAR
STARTCHAR gcaron
ENCODING 487
SWIDTH 696 0
DWIDTH 18 0
BBX 15 23 1 -5
BITMAP
0E38
07F0
03E0
0000
0FBE
3FFE
7FFE
7C7E
FC3E
F83E
F83E
F83E
F83E
F83E
7C7E
7FBE
3FBE
1E3E
003E
207E
3FFC
7FF8
1FE0
ENDCHAR
STARTCHAR uni01E8
ENCODING 488
SWIDTH 753 0
DWIDTH 20 0
BBX 17 23 2 0
BITMAP
1C7000
0FE000
07C000
000000
F81E00
F81C00
F83C00
F87800
F8F000
F8E000
F9E000
FBC000
FBC000
FFC000
FFE000
FBF000
F9F800
F9F800
F8FC00
F87E00
F87E00
F83F00
F81F80
ENDCHAR
STARTCHAR uni01E9
ENCODING 489
SWIDTH 681 0
DWIDTH 18 0
BBX 15 24 2 0
BITMAP
E380
7F00
3E00
0000
F800
F800
F800
F800
F800
F800
F878
F870
F8F0
F9E0
F9C0
FBC0
FFC0
FBE0
FBF0
F9F0
F9F8
F8FC
F8FC
F87E
ENDCHAR
STARTCHAR uni01EA
ENCODING 490
SWIDTH 855 0
DWIDTH 22 0
BBX 20 23 1 -4
BITMAP
03FC00
0FFF00
1FFF80
3F0FC0
7E07E0
7C03E0
F801F0
F801F0
F801F0
F801F0
F801F0
F801F0
F801F0
7C03E0
7E07E0
3F0FC0
1FFF80
0FFF00
03FC00
000000
007000
00E000
007800
ENDCHAR
STARTCHAR uni01EB
ENCODING 491
SWIDTH 675 0
DWIDTH 18 0
BBX 16 18 1 -4
BITMAP
07E0
1FF8
7FFE
7C3E
FC3F
F81F
F81F
F81F
F81F
FC3F
7C3E
7FFE
1FF8
07E0
0000
01C0
0380
01E0
ENDCHAR
STARTCHAR uni01EC
ENCODING 492
SWIDTH 855 0
DWIDTH 22 0
BBX 20 27 1 -4
BITMAP
03FC00
03FC00
03FC00
000000
03FC00
0FFF00
1FFF80
3F0FC0
7E07E0
7C03E0
F801F0
F801F0
F801F0
F801F0
F801F0
F801F0
F801F0
7C03E0
7E07E0
3F0FC0
1FFF80
0FFF00
03FC00
000000
007000
00E000
007800
ENDCHAR
STARTCHAR uni01ED
ENCODING 493
SWIDTH 675 0
DWIDTH 18 0
BBX 16 22 1 -4
BITMAP
0FF0
0FF0
0FF0
0000
07E0
1FF8
7FFE
7C3E
FC3F
F81F
F81F
F81F
F81F
FC3F
7C3E
7FFE
1FF8
07E0
0000
01C0
0380
01E0
ENDCHAR
STARTCHAR uni01F0
ENCODING 496
SWIDTH 361 0
DWIDTH 9 0
BBX 11 23 -2 -5
BITMAP
38E0
1FC0
0F80
0000
07C0
07C0
07C0
07C0
07C0
07C0
07C0
07C0
07C0
07C0
07C0
07C0
07C0
07C0
07C0
87C0
FF80
FF80
FE00
ENDCHAR
STARTCHAR uni01F4
ENCODING 500
SWIDTH 759 0
DWIDTH 20 0
BBX 17 23 1 0
BITMAP
007C00
00F000
01E000
000000
01FF80
0FFF80
1FFF80
3F0180
7E0000
7C0000
FC0000
F80000
F80000
F80000
F80F80
F80F80
F80F80
7C0F80
7E0F80
3F8F80
1FFF80
0FFF80
03FF00
ENDCHAR
STARTCHAR uni01F5
ENCODING 501
SWIDTH 696 0
DWIDTH 18 0
BBX 15 23 1 -5
BITMAP
00F8
01E0
03C0
0000
0FBE
3FFE
7FFE
7C7E
FC3E
F83E
F83E
F83E
F83E
F83E
7C7E
7FBE
3FBE
1E3E
003E
207E
3FFC
7FF8
1FE0
ENDCHAR
STARTCHAR uni01F8
ENCODING 504
SWIDTH 783 0
DWIDTH 20 0
BBX 16 23 2 0
BITMAP
1F00
0780
03C0
0000
F007
F807
FC07
FE07
FE07
FF07
FF87
FFC7
EFC7
E7E7
E3F7
E3FF
E1FF
E0FF
E07F
E07F
E03F
E01F
E00F
ENDCHAR
STARTCHAR uni01F9
ENCODING 505
SWIDTH 693 0
DWIDTH 18 0
BBX 14 18 2 0
BITMAP
3E00
0F00
0780
0000
F9F0
FBF8
FFFC
FFFC
FC7C
F87C
F87C
F87C
F87C
F87C
F87C
F87C
F87C
F87C
ENDCHAR
STARTCHAR Aringacute
ENCODING 506
SWIDTH 773 0
DWIDTH 20 0
BBX 19 28 1 0
BITMAP
007C00
00F000
01E000
000000
00C000
012000
012000
00C000
000000
01F000
01F800
03F800
03F800
07FC00
077C00
077E00
0F3E00
0E3E00
0E3F00
1C1F00
1FFF00
3FFF80
3FFF80
380FC0
7807C0
7007C0
7003E0
E003E0
ENDCHAR
STARTCHAR aringacute
ENCODING 507
SWIDTH 623 0
DWIDTH 16 0
BBX 14 23 1 0
BITMAP
01F0
03C0
0780
0000
0300
0480
0480
0300
0000
1FC0
7FF0
7FF8
41F8
00F8
00F8
1FF8
7FF8
FFF8
F8F8
F8F8
FFFC
7FFC
3E7C
ENDCHAR
STARTCHAR AEacute
ENCODING 508
SWIDTH 997 0
DWIDTH 26 0
BBX 25 23 0 0
BITMAP
0003E000
00078000
000F0000
00000000
003FFF00
003FFF00
007FFF00
007F0000
00FF0000
00FF0000
01DF0000
01DF0000
039FFE00
079FFE00
071FFE00
0F1F0000
0FFF0000
1FFF0000
1FFF0000
381F0000
381FFF80
701FFF80
F01FFF80
ENDCHAR
STARTCHAR aeacute
ENCODING 509
SWIDTH 913 0
DWIDTH 24 0
BBX 22 18 1 0
BITMAP
001F00
003C00
007800
000000
1F87C0
7FFFF0
7FFFF8
60FCF8
00F87C
00F87C
1FFFFC
7FFFFC
FFFFFC
F8F800
F8FC04
FFBFFC
7F9FFC
3E0FF8
ENDCHAR
STARTCHAR Oslashacute
ENCODING 510
SWIDTH 855 0
DWIDTH 22 0
BBX 20 23 1 0
BITMAP
003E00
007800
00F000
000000
03FCF0
0FFFE0
1FFFC0
3F0FC0
7E0FE0
7C1FE0
F81DF0
F83DF0
F879F0
F8F1F0
F9E1F0
FBC1F0
FB81F0
7F83E0
7F07E0
3F0FC0
3FFF80
7FFF00
F3FC00
ENDCHAR
STARTCHAR oslashacute
ENCODING 511
SWIDTH 675 0
DWIDTH 18 0
BBX 16 18 1 0
BITMAP
00F8
01E0
03C0
0000
07EF
1FFE
7FFE
7C7E
FCFF
F9FF
FBDF
FBDF
FF9F
FF3F
7E3E
7FFE
7FF8
F7E0
ENDCHAR
STARTCHAR uni0200
ENCODING 512
SWIDTH 773 0
DWIDTH 20 0
BBX 19 23 1 0
BITMAP
0EF000
033800
01DC00
000000
01F000
01F800
03F800
03F800
07FC00
077C00
077E00
0F3E00
0E3E00
0E3F00
1C1F00
1FFF00
3FFF80
3FFF80
380FC0
7807C0
7007C0
7003E0
E003E0
ENDCHAR
STARTCHAR uni0201
ENCODING 513
SWIDTH 623 0
DWIDTH 16 0
BBX 14 18 1 0
BITMAP
7780
19C0
0EE0
0000
1FC0
7FF0
7FF8
41F8
00F8
00F8
1FF8
7FF8
FFF8
F8F8
F8F8
FFFC
7FFC
3E7C
ENDCHAR
STARTCHAR uni0202
ENCODING 514
SWIDTH 773 0
DWIDTH 20 0
BBX 19 23 1 0
BITMAP
01F000
03F800
071C00
000000
01F000
01F800
03F800
03F800
07FC00
077C00
077E00
0F3E00
0E3E00
0E3F00
1C1F00
1FFF00
3FFF80
3FFF80
380FC0
7807C0
7007C0
7003E0
E003E0
ENDCHAR
STARTCHAR uni0203
ENCODING 515
SWIDTH 623 0
DWIDTH 16 0
BBX 14 18 1 0
BITMAP
07C0
0FE0
1C70
0000
1FC0
7FF0
7FF8
41F8
00F8
00F8
1FF8
7FF8
FFF8
F8F8
F8F8
FFFC
7FFC
3E7C
ENDCHAR
STARTCHAR uni0204
ENCODING 516
SWIDTH 645 0
DWIDTH 17 0
BBX 13 23 2 0
BITMAP
EF00
3380
1DC0
0000
FFF0
FFF0
FFF0
F800
F800
F800
F800
F800
FFE0
FFE0
FFE0
F800
F800
F800
F800
F800
FFF8
FFF8
FFF8
ENDCHAR
STARTCHAR uni0205
ENCODING 517
SWIDTH 614 0
DWIDTH 16 0
BBX 14 18 1 0
BITMAP
7780
19C0
0EE0
0000
0FE0
3FF0
7FF8
7CF8
F87C
FFFC
FFFC
FFFC
F800
FC00
7E04
3FFC
1FFC
07F8
ENDCHAR
STARTCHAR uni0206
ENCODING 518
SWIDTH 645 0
DWIDTH 17 0
BBX 13 23 2 0
BITMAP
1F00
3F80
71C0
0000
FFF0
FFF0
FFF0
F800
F800
F800
F800
F800
FFE0
FFE0
FFE0
F800
F800
F800
F800
F800
FFF8
FFF8
FFF8
ENDCHAR
STARTCHAR uni0207
ENCODING 519
SWIDTH 614 0
DWIDTH 16 0
BBX 14 18 1 0
BITMAP
07C0
0FE0
1C70
0000
0FE0
3FF0
7FF8
7CF8
F87C
FFFC
FFFC
FFFC
F800
FC00
7E04
3FFC
1FFC
07F8
ENDCHAR
STARTCHAR uni0208
ENCODING 520
SWIDTH 361 0
DWIDTH 9 0
BBX 10 23 -1 0
BITMAP
EF00
3380
1DC0
0000
1F00
1F00
1F00
1F00
1F00
1F00
1F00
1F00
1F00
1F00
1F00
1F00
1F00
1F00
1F00
1F00
1F00
1F00
1F00
ENDCHAR
STARTCHAR uni0209
ENCODING 521
SWIDTH 361 0
DWIDTH 9 0
BBX 10 18 -1 0
BITMAP
EF00
3380
1DC0
0000
1F00
1F00
1F00
1F00
1F00
1F00
1F00
1F00
1F00
1F00
1F00
1F00
1F00
1F00
ENDCHAR
STARTCHAR uni020A
ENCODING 522
SWIDTH 361 0
DWIDTH 9 0
BBX 9 23 0 0
BITMAP
3E00
7F00
E380
0000
3E00
3E00
3E00
3E00
3E00
3E00
3E00
3E00
3E00
3E00
3E00
3E00
3E00
3E00
3E00
3E00
3E00
3E00
3E00
ENDCHAR
STARTCHAR uni020B
ENCODING 523
SWIDTH 361 0
DWIDTH 9 0
BBX 9 18 0 0
BITMAP
3E00
7F00
E380
0000
3E00
3E00
3E00
3E00
3E00
3E00
3E00
3E00
3E00
3E00
3E00
3E00
3E00
3E00
ENDCHAR
STARTCHAR uni020C
ENCODING 524
SWIDTH 855 0
DWIDTH 22 0
BBX 20 23 1 0
BITMAP
0EF000
033800
01DC00
000000
03FC00
0FFF00
1FFF80
3F0FC0
7E07E0
7C03E0
F801F0
F801F0
F801F0
F801F0
F801F0
F801F0
F801F0
7C03E0
7E07E0
3F0FC0
1FFF80
0FFF00
03FC00
ENDCHAR
STARTCHAR uni020D
ENCODING 525
SWIDTH 675 0
DWIDTH 18 0
BBX 16 18 1 0
BITMAP
3BC0
0CE0
0770
0000
07E0
1FF8
7FFE
7C3E
FC3F
F81F
F81F
F81F
F81F
FC3F
7C3E
7FFE
1FF8
07E0
ENDCHAR
STARTCHAR uni020E
ENCODING 526
SWIDTH 855 0
DWIDTH 22 0
BBX 20 23 1 0
BITMAP
00F800
01FC00
038E00
000000
03FC00
0FFF00
1FFF80
3F0FC0
7E07E0
7C03E0
F801F0
F801F0
F801F0
F801F0
F801F0
F801F0
F801F0
7C03E0
7E07E0
3F0FC0
1FFF80
0FFF00
03FC00
ENDCHAR
STARTCHAR uni020F
ENCODING 527
SWIDTH 675 0
DWIDTH 18 0
BBX 16 18 1 0
BITMAP
03E0
07F0
0E38
0000
07E0
1FF8
7FFE
7C3E
FC3F
F81F
F81F
F81F
F81F
FC3F
7C3E
7FFE
1FF8
07E0
ENDCHAR
STARTCHAR uni0210
ENCODING 528
SWIDTH 734 0
DWIDTH 19 0
BBX 17 23 2 0
BITMAP
778000
19C000
0EE000
000000
FFE000
FFF800
FFF800
F8FC00
F87C00
F87C00
F87C00
F8F800
FFF800
FFF000
FFE000
F9F000
F9F800
F8F800
F8FC00
F87E00
F87F00
F83F00
F83F80
ENDCHAR
STARTCHAR uni0211
ENCODING 529
SWIDTH 500 0
DWIDTH 13 0
BBX 11 18 1 0
BITMAP
EF00
3380
1DC0
0000
7CE0
7DE0
7FE0
7FE0
7E00
7C00
7C00
7C00
7C00
7C00
7C00
7C00
7C00
7C00
ENDCHAR
STARTCHAR uni0212
ENCODING 530
SWIDTH 734 0
DWIDTH 19 0
BBX 17 23 2 0
BITMAP
07C000
0FE000
1C7000
000000
FFE000
FFF800
FFF800
F8FC00
F87C00
F87C00
F87C00
F8F800
FFF800
FFF000
FFE000
F9F000
F9F800
F8F800
F8FC00
F87E00
F87F00
F83F00
F83F80
ENDCHAR
STARTCHAR uni0213
ENCODING 531
SWIDTH 500 0
DWIDTH 13 0
BBX 10 18 2 0
BITMAP
3E00
7F00
E380
0000
F9C0
FBC0
FFC0
FFC0
FC00
F800
F800
F800
F800
F800
F800
F800
F800
F800
ENDCHAR
STARTCHAR uni0214
ENCODING 532
SWIDTH 783 0
DWIDTH 20 0
BBX 16 23 2 0
BITMAP
3BC0
0CE0
0770
0000
F81F
F81F
F81F
F81F
F81F
F81F
F81F
F81F
F81F
F81F
F81F
F81F
F81F
F81F
FC3F
7C3E
7FFE
1FFC
07F0
ENDCHAR
STARTCHAR uni0215
ENCODING 533
SWIDTH 693 0
DWIDTH 18 0
BBX 14 18 2 0
BITMAP
7780
19C0
0EE0
0000
F87C
F87C
F87C
F87C
F87C
F87C
F87C
F87C
F87C
F87C
F8FC
FFFC
7F7C
3E7C
ENDCHAR
STARTCHAR uni0216
ENCODING 534
SWIDTH 783 0
DWIDTH 20 0
BBX 16 23 2 0
BITMAP
03E0
07F0
0E38
0000
F81F
F81F
F81F
F81F
F81F
F81F
F81F
F81F
F81F
F81F
F81F
F81F
F81F
F81F
FC3F
7C3E
7FFE
1FFC
07F0
ENDCHAR
STARTCHAR uni0217
ENCODING 535
SWIDTH 693 0
DWIDTH 18 0
BBX 14 18 2 0
BITMAP
07C0
0FE0
1C70
0000
F87C
F87C
F87C
F87C
F87C
F87C
F87C
F87C
F87C
F87C
F8FC
FFFC
7F7C
3E7C
ENDCHAR
STARTCHAR Scommaaccent
ENCODING 536
SWIDTH 594 0
DWIDTH 15 0
BBX 14 29 1 -10
BITMAP
0FF8
3FF8
7FF8
FC18
F800
FC00
FE00
7F80
7FE0
3FF0
0FF8
03FC
00FC
007C
007C
C0FC
FFF8
FFF0
FFC0
0000
0F80
0F80
0F80
0F80
0F80
0380
0700
0F00
0C00
ENDCHAR
STARTCHAR scommaaccent
ENCODING 537
SWIDTH 622 0
DWIDTH 16 0
BBX 13 24 2 -10
BITMAP
1FE0
7FF0
FFF0
F830
F800
FF00
7FC0
1FF0
07F8
01F8
C0F8
FFF0
FFF0
7FC0
0000
0F80
0F80
0F80
0F80
0F80
0380
0700
0F00
0C00
ENDCHAR
STARTCHAR Tcommaaccent
ENCODING 538
SWIDTH 735 0
DWIDTH 19 0
BBX 19 29 0 -10
BITMAP
FFFFE0
FFFFE0
FFFFE0
01F000
01F000
01F000
01F000
01F000
01F000
01F000
01F000
01F000
01F000
01F000
01F000
01F000
01F000
01F000
01F000
000000
01F000
01F000
01F000
01F000
01F000
007000
00E000
01E000
018000
ENDCHAR
STARTCHAR tcommaaccent
ENCODING 539
SWIDTH 436 0
DWIDTH 11 0
BBX 9 28 1 -10
BITMAP
1C00
7C00
7C00
7C00
FF80
FF80
FF80
7C00
7C00
7C00
7C00
7C00
7C00
7C00
7C00
7F80
3F80
1F80
0000
3E00
3E00
3E00
3E00
3E00
0E00
1C00
3C00
3000
ENDCHAR
STARTCHAR uni021E
ENCODING 542
SWIDTH 813 0
DWIDTH 21 0
BBX 17 23 2 0
BITMAP
0E3800
07F000
03E000
000000
F80F80
F80F80
F80F80
F80F80
F80F80
F80F80
F80F80
F80F80
FFFF80
FFFF80
FFFF80
F80F80
F80F80
F80F80
F80F80
F80F80
F80F80
F80F80
F80F80
ENDCHAR
STARTCHAR uni021F
ENCODING 543
SWIDTH 693 0
DWIDTH 18 0
BBX 14 24 2 0
BITMAP
E380
7F00
3E00
0000
F800
F800
F800
F800
F800
F800
F9F0
FBF8
FFFC
FFFC
FC7C
F87C
F87C
F87C
F87C
F87C
F87C
F87C
F87C
F87C
ENDCHAR
STARTCHAR uni0226
ENCODING 550
SWIDTH 773 0
DWIDTH 20 0
BBX 19 23 1 0
BITMAP
00F000
00F000
00F000
000000
01F000
01F800
03F800
03F800
07FC00
077C00
077E00
0F3E00
0E3E00
0E3F00
1C1F00
1FFF00
3FFF80
3FFF80
380FC0
7807C0
7007C0
7003E0
E003E0
ENDCHAR
STARTCHAR uni0227
ENCODING 551
SWIDTH 623 0
DWIDTH 16 0
BBX 14 18 1 0
BITMAP
0780
0780
0780
0000
1FC0
7FF0
7FF8
41F8
00F8
00F8
1FF8
7FF8
FFF8
F8F8
F8F8
FFFC
7FFC
3E7C
ENDCHAR
STARTCHAR uni0228
ENCODING 552
SWIDTH 645 0
DWIDTH 17 0
BBX 13 24 2 -5
BITMAP
FFF0
FFF0
FFF0
F800
F800
F800
F800
F800
FFE0
FFE0
FFE0
F800
F800
F800
F800
F800
FFF8
FFF8
FFF8
0600
0C00
0700
1F00
1E00
ENDCHAR
STARTCHAR uni0229
ENCODING 553
SWIDTH 614 0
DWIDTH 16 0
BBX 14 19 1 -5
BITMAP
0FE0
3FF0
7FF8
7CF8
F87C
FFFC
FFFC
FFFC
F800
FC00
7E04
3FFC
1FFC
07F8
0180
0300
01C0
07C0
0780
ENDCHAR
STARTCHAR uni022A
ENCODING 554
SWIDTH 855 0
DWIDTH 22 0
BBX 20 27 1 0
BITMAP
03FC00
03FC00
03FC00
000000
039C00
039C00
039C00
000000
03FC00
0FFF00
1FFF80
3F0FC0
7E07E0
7C03E0
F801F0
F801F0
F801F0
F801F0
F801F0
F801F0
F801F0
7C03E0
7E07E0
3F0FC0
1FFF80
0FFF00
03FC00
ENDCHAR
STARTCHAR uni022B
ENCODING 555
SWIDTH 675 0
DWIDTH 18 0
BBX 16 22 1 0
BITMAP
0FF0
0FF0
0FF0
0000
0E70
0E70
0E70
0000
07E0
1FF8
7FFE
7C3E
FC3F
F81F
F81F
F81F
F81F
FC3F
7C3E
7FFE
1FF8
07E0
ENDCHAR
STARTCHAR uni022C
ENCODING 556
SWIDTH 855 0
DWIDTH 22 0
BBX 20 27 1 0
BITMAP
03FC00
03FC00
03FC00
000000
01EE00
03FE00
03BC00
000000
03FC00
0FFF00
1FFF80
3F0FC0
7E07E0
7C03E0
F801F0
F801F0
F801F0
F801F0
F801F0
F801F0
F801F0
7C03E0
7E07E0
3F0FC0
1FFF80
0FFF00
03FC00
ENDCHAR
STARTCHAR uni022D
ENCODING 557
SWIDTH 675 0
DWIDTH 18 0
BBX 16 22 1 0
BITMAP
0FF0
0FF0
0FF0
0000
07B8
0FF8
0EF0
0000
07E0
1FF8
7FFE
7C3E
FC3F
F81F
F81F
F81F
F81F
FC3F
7C3E
7FFE
1FF8
07E0
ENDCHAR
STARTCHAR uni022E
ENCODING 558
SWIDTH 855 0
DWIDTH 22 0
BBX 20 23 1 0
BITMAP
00F000
00F000
00F000
000000
03FC00
0FFF00
1FFF80
3F0FC0
7E07E0
7C03E0
F801F0
F801F0
F801F0
F801F0
F801F0
F801F0
F801F0
7C03E0
7E07E0
3F0FC0
1FFF80
0FFF00
03FC00
ENDCHAR
STARTCHAR uni022F
ENCODING 559
SWIDTH 675 0
DWIDTH 18 0
BBX 16 18 1 0
BITMAP
03C0
03C0
03C0
0000
07E0
1FF8
7FFE
7C3E
FC3F
F81F
F81F
F81F
F81F
FC3F
7C3E
7FFE
1FF8
07E0
ENDCHAR
STARTCHAR uni0230
ENCODING 560
SWIDTH 855 0
DWIDTH 22 0
BBX 20 27 1 0
BITMAP
03FC00
03FC00
03FC00
000000
00F000
00F000
00F000
000000
03FC00
0FFF00
1FFF80
3F0FC0
7E07E0
7C03E0
F801F0
F801F0
F801F0
F801F0
F801F0
F801F0
F801F0
7C03E0
7E07E0
3F0FC0
1FFF80
0FFF00
03FC00
ENDCHAR
STARTCHAR uni0231
ENCODING 561
SWIDTH 675 0
DWIDTH 18 0
BBX 16 22 1 0
BITMAP
0FF0
0FF0
0FF0
0000
03C0
03C0
03C0
0000
07E0
1FF8
7FFE
7C3E
FC3F
F81F
F81F
F81F
F81F
FC3F
7C3E
7FFE
1FF8
07E0
ENDCHAR
STARTCHAR uni0232
ENCODING 562
SWIDTH 738 0
DWIDTH 19 0
BBX 17 23 1 0
BITMAP
0FF000
0FF000
0FF000
000000
FC0780
7C0700
7E0F00
3E0E00
3F1C00
1F1C00
1FB800
0FF800
0FF000
07F000
03E000
03E000
03E000
03E000
03E000
03E000
03E000
03E000
03E000
ENDCHAR
STARTCHAR uni0233
ENCODING 563
SWIDTH 645 0
DWIDTH 17 0
BBX 16 23 0 -5
BITMAP
0FF0
0FF0
0FF0
0000
FC0F
7C0E
7C1E
7E1C
3E3C
3F38
1F78
1F70
1FF0
0FE0
0FE0
07C0
07C0
0780
0780
0F00
0F00
1F00
3E00
ENDCHAR
STARTCHAR uni0250
ENCODING 592
SWIDTH 623 0
DWIDTH 16 0
BBX 14 14 1 0
BITMAP
F9F0
FFF8
FFFC
7C7C
7C7C
7FFC
7FF8
7FE0
7C00
7C00
7E08
7FF8
3FF8
0FE0
ENDCHAR
STARTCHAR uni0254
ENCODING 596
SWIDTH 545 0
DWIDTH 14 0
BBX 12 14 1 0
BITMAP
7F00
FF80
FFC0
87E0
03F0
01F0
01F0
01F0
01F0
03F0
87E0
FFE0
FFC0
FF00
ENDCHAR
STARTCHAR uni0258
ENCODING 600
SWIDTH 614 0
DWIDTH 16 0
BBX 14 14 1 0
BITMAP
1FC0
3FF0
7FF8
7CF8
F87C
FFFC
FFFC
FFFC
007C
00FC
81F8
FFF0
FFE0
7F80
ENDCHAR
STARTCHAR uni0259
ENCODING 601
SWIDTH 614 0
DWIDTH 16 0
BBX 14 14 1 0
BITMAP
7F80
FFE0
FFF0
81F8
00FC
007C
FFFC
FFFC
FFFC
F87C
7CF8
7FF8
3FF0
1FC0
ENDCHAR
STARTCHAR uni025F
ENCODING 607
SWIDTH 461 0
DWIDTH 12 0
BBX 12 20 0 -6
BITMAP
07C0
07C0
07C0
07C0
07C0
07C0
07C0
07C0
07C0
07C0
07C0
7FF0
7FF0
7FF0
07C0
07C0
07C0
FF80
FF80
FE00
ENDCHAR
STARTCHAR uni0265
ENCODING 613
SWIDTH 693 0
DWIDTH 18 0
BBX 14 20 2 -6
BITMAP
F87C
F87C
F87C
F87C
F87C
F87C
F87C
F87C
F87C
F8FC
FFFC
FFFC
7F7C
3E7C
007C
007C
007C
007C
007C
007C
ENDCHAR
STARTCHAR uni0275
ENCODING 629
SWIDTH 675 0
DWIDTH 18 0
BBX 16 14 1 0
BITMAP
07E0
1FF8
7FFE
7C3E
FC3F
FFFF
FFFF
FFFF
F81F
FC3F
7C3E
7FFE
1FF8
07E0
ENDCHAR
STARTCHAR uni0279
ENCODING 633
SWIDTH 500 0
DWIDTH 13 0
BBX 10 14 2 0
BITMAP
07C0
07C0
07C0
07C0
07C0
07C0
07C0
07C0
07C0
0FC0
FFC0
FFC0
F7C0
E7C0
ENDCHAR
STARTCHAR uni0287
ENCODING 647
SWIDTH 436 0
DWIDTH 11 0
BBX 9 18 1 0
BITMAP
FC00
FE00
FF00
1F00
1F00
1F00
1F00
1F00
1F00
1F00
1F00
FF80
FF80
FF80
1F00
1F00
1F00
1C00
ENDCHAR
STARTCHAR uni0288
ENCODING 648
SWIDTH 436 0
DWIDTH 11 0
BBX 11 23 1 -5
BITMAP
1C00
7C00
7C00
7C00
FF80
FF80
FF80
7C00
7C00
7C00
7C00
7C00
7C00
7C00
7C00
7C00
7C00
7C00
7C00
7C20
3FE0
3FE0
0FE0
ENDCHAR
STARTCHAR uni0289
ENCODING 649
SWIDTH 693 0
DWIDTH 18 0
BBX 14 14 2 0
BITMAP
F87C
F87C
F87C
F87C
F87C
FFFC
FFFC
FFFC
F87C
F87C
F8FC
FFFC
7F7C
3E7C
ENDCHAR
STARTCHAR uni028C
ENCODING 652
SWIDTH 663 0
DWIDTH 17 0
BBX 16 14 1 0
BITMAP
07E0
07E0
07E0
0FF0
0FF0
1FF8
1CF8
1CF8
38FC
387C
787E
703E
703E
F03F
ENDCHAR
STARTCHAR uni028D
ENCODING 653
SWIDTH 885 0
DWIDTH 23 0
BBX 21 14 1 0
BITMAP
0F87C0
1F8FC0
1F8FC0
1F8FC0
1F8FE0
3BDDE0
3BDDE0
3BDDE0
3BFDF0
71F8F0
71F8F0
71F8F0
E1F0F8
E0F078
ENDCHAR
STARTCHAR uni028E
ENCODING 654
SWIDTH 645 0
DWIDTH 17 0
BBX 16 19 0 0
BITMAP
007C
00F8
00F0
00F0
01E0
01E0
03E0
03E0
07F0
07F0
0FF8
0EF8
1EF8
1CFC
3C7C
387E
783E
703E
F03F
ENDCHAR
STARTCHAR uni029E
ENCODING 670
SWIDTH 681 0
DWIDTH 18 0
BBX 15 20 2 -6
BITMAP
FC3E
7E3E
7E3E
3F3E
1F3E
1FBE
0FBE
07FE
07BE
073E
0F3E
1E3E
1C3E
3C3E
003E
003E
003E
003E
003E
003E
ENDCHAR
STARTCHAR uni02BB
ENCODING 699
SWIDTH 265 0
DWIDTH 7 0
BBX 5 9 1 11
BITMAP
18
78
60
E0
F8
F8
F8
F8
F8
ENDCHAR
STARTCHAR afii57929
ENCODING 700
SWIDTH 265 0
DWIDTH 7 0
BBX 5 9 1 11
BITMAP
F8
F8
F8
F8
F8
38
30
F0
C0
ENDCHAR
STARTCHAR afii64937
ENCODING 701
SWIDTH 265 0
DWIDTH 7 0
BBX 5 9 1 11
BITMAP
F8
F8
F8
F8
F8
E0
60
78
18
ENDCHAR
STARTCHAR circumflex
ENCODING 710
SWIDTH 675 0
DWIDTH 18 0
BBX 9 3 4 17
BITMAP
3E00
7F00
E380
ENDCHAR
STARTCHAR caron
ENCODING 711
SWIDTH 675 0
DWIDTH 18 0
BBX 9 3 4 17
BITMAP
E380
7F00
3E00
ENDCHAR
STARTCHAR uni02C8
ENCODING 712
SWIDTH 265 0
DWIDTH 7 0
BBX 5 9 1 11
BITMAP
F8
F8
F8
F8
F8
70
70
70
70
ENDCHAR
STARTCHAR macron
ENCODING 713
SWIDTH 675 0
DWIDTH 18 0
BBX 8 3 5 16
BITMAP
FF
FF
FF
ENDCHAR
STARTCHAR uni02CA
ENCODING 714
SWIDTH 675 0
DWIDTH 18 0
BBX 7 3 6 17
BITMAP
3E
78
F0
ENDCHAR
STARTCHAR uni02CB
ENCODING 715
SWIDTH 675 0
DWIDTH 18 0
BBX 7 3 4 17
BITMAP
F8
3C
1E
ENDCHAR
STARTCHAR uni02CD
ENCODING 717
SWIDTH 675 0
DWIDTH 18 0
BBX 8 3 5 -4
BITMAP
FF
FF
FF
ENDCHAR
STARTCHAR uni02CE
ENCODING 718
SWIDTH 675 0
DWIDTH 18 0
BBX 7 3 4 -4
BITMAP
F8
3C
1E
ENDCHAR
STARTCHAR uni02CF
ENCODING 719
SWIDTH 675 0
DWIDTH 18 0
BBX 7 3 6 -4
BITMAP
3E
78
F0
ENDCHAR
STARTCHAR breve
ENCODING 728
SWIDTH 675 0
DWIDTH 18 0
BBX 9 3 4 17
BITMAP
E380
7F00
3E00
ENDCHAR
STARTCHAR dotaccent
ENCODING 729
SWIDTH 675 0
DWIDTH 18 0
BBX 4 3 7 17
BITMAP
F0
F0
F0
ENDCHAR
STARTCHAR ring
ENCODING 730
SWIDTH 675 0
DWIDTH 18 0
BBX 4 4 6 16
BITMAP
60
90
90
60
ENDCHAR
STARTCHAR ogonek
ENCODING 731
SWIDTH 675 0
DWIDTH 18 0
BBX 5 3 6 -4
BITMAP
70
E0
78
ENDCHAR
STARTCHAR tilde
ENCODING 732
SWIDTH 675 0
DWIDTH 18 0
BBX 9 3 4 17
BITMAP
7B80
FF80
EF00
ENDCHAR
STARTCHAR hungarumlaut
ENCODING 733
SWIDTH 675 0
DWIDTH 18 0
BBX 10 3 5 17
BITMAP
3DC0
7300
EE00
ENDCHAR
STARTCHAR uni02EE
ENCODING 750
SWIDTH 530 0
DWIDTH 14 0
BBX 12 9 1 11
BITMAP
F9F0
F9F0
F9F0
F9F0
F9F0
3870
70E0
F1E0
C180
ENDCHAR
STARTCHAR uni037E
ENCODING 894
SWIDTH 343 0
DWIDTH 9 0
BBX 5 18 2 -4
BITMAP
F8
F8
F8
F8
F8
00
00
00
00
F8
F8
F8
F8
F8
38
70
F0
C0
ENDCHAR
STARTCHAR tonos
ENCODING 900
SWIDTH 675 0
DWIDTH 18 0
BBX 7 3 6 17
BITMAP
3E
78
F0
ENDCHAR
STARTCHAR dieresistonos
ENCODING 901
SWIDTH 675 0
DWIDTH 18 0
BBX 9 7 5 16
BITMAP
0F80
1E00
3C00
0000
E700
E700
E700
ENDCHAR
STARTCHAR anoteleia
ENCODING 903
SWIDTH 343 0
DWIDTH 18 0
BBX 4 3 7 7
BITMAP
F0
F0
F0
ENDCHAR
STARTCHAR mu
ENCODING 956
SWIDTH 699 0
DWIDTH 18 0
BBX 14 18 2 -4
BITMAP
F87C
F87C
F87C
F87C
F87C
F87C
F87C
F87C
F87C
F87C
F8FC
FFFC
FF7C
FE7C
F800
F800
F800
F800
ENDCHAR
STARTCHAR uni1E00
ENCODING 7680
SWIDTH 773 0
DWIDTH 20 0
BBX 19 24 1 -5
BITMAP
01F000
01F800
03F800
03F800
07FC00
077C00
077E00
0F3E00
0E3E00
0E3F00
1C1F00
1FFF00
3FFF80
3FFF80
380FC0
7807C0
7007C0
7003E0
E003E0
000000
006000
009000
009000
006000
ENDCHAR
STARTCHAR uni1E01
ENCODING 7681
SWIDTH 623 0
DWIDTH 16 0
BBX 14 19 1 -5
BITMAP
1FC0
7FF0
7FF8
41F8
00F8
00F8
1FF8
7FF8
FFF8
F8F8
F8F8
FFFC
7FFC
3E7C
0000
0300
0480
0480
0300
ENDCHAR
STARTCHAR uni1E02
ENCODING 7682
SWIDTH 669 0
DWIDTH 17 0
BBX 15 23 2 0
BITMAP
0780
0780
0780
0000
FFE0
FFF8
FFFC
F8FC
F87C
F87C
F878
F8F0
FFE0
FFE0
FFF8
F8FC
F83E
F83E
F83E
F87E
FFFC
FFFC
FFF0
ENDCHAR
STARTCHAR uni1E03
ENCODING 7683
SWIDTH 696 0
DWIDTH 18 0
BBX 15 24 2 0
BITMAP
3C00
3C00
3C00
0000
F800
F800
F800
F800
F800
F800
F9F0
FBF8
FFFC
FC7C
F83E
F83E
F83E
F83E
F83E
F87E
FC7C
FFFC
FFF8
F3E0
ENDCHAR
STARTCHAR uni1E04
ENCODING 7684
SWIDTH 669 0
DWIDTH 17 0
BBX 15 23 2 -4
BITMAP
FFE0
FFF8
FFFC
F8FC
F87C
F87C
F878
F8F0
FFE0
FFE0
FFF8
F8FC
F83E
F83E
F83E
F87E
FFFC
FFFC
FFF0
0000
0780
0780
0780
ENDCHAR
STARTCHAR uni1E05
ENCODING 7685
SWIDTH 696 0
DWIDTH 18 0
BBX 15 24 2 -4
BITMAP
F800
F800
F800
F800
F800
F800
F9F0
FBF8
FFFC
FC7C
F83E
F83E
F83E
F83E
F83E
F87E
FC7C
FFFC
FFF8
F3E0
0000
0780
0780
0780
ENDCHAR
STARTCHAR uni1E06
ENCODING 7686
SWIDTH 669 0
DWIDTH 17 0
BBX 15 23 2 -4
BITMAP
FFE0
FFF8
FFFC
F8FC
F87C
F87C
F878
F8F0
FFE0
FFE0
FFF8
F8FC
F83E
F83E
F83E
F87E
FFFC
FFFC
FFF0
0000
1FE0
1FE0
1FE0
ENDCHAR
STARTCHAR uni1E07
ENCODING 7687
SWIDTH 696 0
DWIDTH 18 0
BBX 15 24 2 -4
BITMAP
F800
F800
F800
F800
F800
F800
F9F0
FBF8
FFFC
FC7C
F83E
F83E
F83E
F83E
F83E
F87E
FC7C
FFFC
FFF8
F3E0
0000
1FE0
1FE0
1FE0
ENDCHAR
STARTCHAR uni1E08
ENCODING 7688
SWIDTH 726 0
DWIDTH 19 0
BBX 17 28 1 -5
BITMAP
00F800
01E000
03C000
000000
01FF00
0FFF80
1FFF80
3F0180
7E0000
7C0000
FC0000
F80000
F80000
F80000
F80000
F80000
FC0000
7C0000
7E0000
3F8180
1FFF80
0FFF80
03FE00
00C000
018000
00E000
03E000
03C000
ENDCHAR
STARTCHAR uni1E09
ENCODING 7689
SWIDTH 545 0
DWIDTH 14 0
BBX 12 23 1 -5
BITMAP
03E0
0780
0F00
0000
0FE0
1FF0
3FF0
7E10
FC00
F800
F800
F800
F800
FC00
7E10
7FF0
3FF0
0FF0
0300
0600
0380
0F80
0F00
ENDCHAR
STARTCHAR uni1E0A
ENCODING 7690
SWIDTH 819 0
DWIDTH 21 0
BBX 18 23 2 0
BITMAP
03C000
03C000
03C000
000000
FFF800
FFFE00
FFFF00
F83F80
F81F80
F80F80
F807C0
F807C0
F807C0
F807C0
F807C0
F807C0
F807C0
F80F80
F80F80
F83F00
FFFF00
FFFC00
FFF000
ENDCHAR
STARTCHAR uni1E0B
ENCODING 7691
SWIDTH 696 0
DWIDTH 18 0
BBX 15 24 1 0
BITMAP
0078
0078
0078
0000
003E
003E
003E
003E
003E
003E
1F3E
3FFE
7FFE
7C7E
FC3E
F83E
F83E
F83E
F83E
F83E
7C7E
7FFE
3FBE
1F3E
ENDCHAR
STARTCHAR uni1E0C
ENCODING 7692
SWIDTH 819 0
DWIDTH 21 0
BBX 18 23 2 -4
BITMAP
FFF800
FFFE00
FFFF00
F83F80
F81F80
F80F80
F807C0
F807C0
F807C0
F807C0
F807C0
F807C0
F807C0
F80F80
F80F80
F83F00
FFFF00
FFFC00
FFF000
000000
03C000
03C000
03C000
ENDCHAR
STARTCHAR uni1E0D
ENCODING 7693
SWIDTH 696 0
DWIDTH 18 0
BBX 15 24 1 -4
BITMAP
003E
003E
003E
003E
003E
003E
1F3E
3FFE
7FFE
7C7E
FC3E
F83E
F83E
F83E
F83E
F83E
7C7E
7FFE
3FBE
1F3E
0000
03C0
03C0
03C0
ENDCHAR
STARTCHAR uni1E0E
ENCODING 7694
SWIDTH 819 0
DWIDTH 21 0
BBX 18 23 2 -4
BITMAP
FFF800
FFFE00
FFFF00
F83F80
F81F80
F80F80
F807C0
F807C0
F807C0
F807C0
F807C0
F807C0
F807C0
F80F80
F80F80
F83F00
FFFF00
FFFC00
FFF000
000000
0FF000
0FF000
0FF000
ENDCHAR
STARTCHAR uni1E0F
ENCODING 7695
SWIDTH 696 0
DWIDTH 18 0
BBX 15 24 1 -4
BITMAP
003E
003E
003E
003E
003E
003E
1F3E
3FFE
7FFE
7C7E
FC3E
F83E
F83E
F83E
F83E
F83E
7C7E
7FFE
3FBE
1F3E
0000
0FF0
0FF0
0FF0
ENDCHAR
STARTCHAR uni1E10
ENCODING 7696
SWIDTH 819 0
DWIDTH 21 0
BBX 18 24 2 -5
BITMAP
FFF800
FFFE00
FFFF00
F83F80
F81F80
F80F80
F807C0
F807C0
F807C0
F807C0
F807C0
F807C0
F807C0
F80F80
F80F80
F83F00
FFFF00
FFFC00
FFF000
00C000
018000
00E000
03E000
03C000
ENDCHAR
STARTCHAR uni1E11
ENCODING 7697
SWIDTH 696 0
DWIDTH 18 0
BBX 15 25 1 -5
BITMAP
003E
003E
003E
003E
003E
003E
1F3E
3FFE
7FFE
7C7E
FC3E
F83E
F83E
F83E
F83E
F83E
7C7E
7FFE
3FBE
1F3E
0180
0300
01C0
07C0
0780
ENDCHAR
STARTCHAR uni1E12
ENCODING 7698
SWIDTH 819 0
DWIDTH 21 0
BBX 18 23 2 -4
BITMAP
FFF800
FFFE00
FFFF00
F83F80
F81F80
F80F80
F807C0
F807C0
F807C0
F807C0
F807C0
F807C0
F807C0
F80F80
F80F80
F83F00
FFFF00
FFFC00
FFF000
000000
03E000
07F000
0E3800
ENDCHAR
STARTCHAR uni1E13
ENCODING 7699
SWIDTH 696 0
DWIDTH 18 0
BBX 15 24 1 -4
BITMAP
003E
003E
003E
003E
003E
003E
1F3E
3FFE
7FFE
7C7E
FC3E
F83E
F83E
F83E
F83E
F83E
7C7E
7FFE
3FBE
1F3E
0000
07C0
0FE0
1C70
ENDCHAR
STARTCHAR uni1E14
ENCODING 7700
SWIDTH 645 0
DWIDTH 17 0
BBX 13 27 2 0
BITMAP
3E00
0F00
0780
0000
3FC0
3FC0
3FC0
0000
FFF0
FFF0
FFF0
F800
F800
F800
F800
F800
FFE0
FFE0
FFE0
F800
F800
F800
F800
F800
FFF8
FFF8
FFF8
ENDCHAR
STARTCHAR uni1E15
ENCODING 7701
SWIDTH 614 0
DWIDTH 16 0
BBX 14 22 1 0
BITMAP
1F00
0780
03C0
0000
1FE0
1FE0
1FE0
0000
0FE0
3FF0
7FF8
7CF8
F87C
FFFC
FFFC
FFFC
F800
FC00
7E04
3FFC
1FFC
07F8
ENDCHAR
STARTCHAR uni1E16
ENCODING 7702
SWIDTH 645 0
DWIDTH 17 0
BBX 13 27 2 0
BITMAP
03E0
0780
0F00
0000
3FC0
3FC0
3FC0
0000
FFF0
FFF0
FFF0
F800
F800
F800
F800
F800
FFE0
FFE0
FFE0
F800
F800
F800
F800
F800
FFF8
FFF8
FFF8
ENDCHAR
STARTCHAR uni1E17
ENCODING 7703
SWIDTH 614 0
DWIDTH 16 0
BBX 14 22 1 0
BITMAP
01F0
03C0
0780
0000
1FE0
1FE0
1FE0
0000
0FE0
3FF0
7FF8
7CF8
F87C
FFFC
FFFC
FFFC
F800
FC00
7E04
3FFC
1FFC
07F8
ENDCHAR
STARTCHAR uni1E18
ENCODING 7704
SWIDTH 645 0
DWIDTH 17 0
BBX 13 23 2 -4
BITMAP
FFF0
FFF0
FFF0
F800
F800
F800
F800
F800
FFE0
FFE0
FFE0
F800
F800
F800
F800
F800
FFF8
FFF8
FFF8
0000
1F00
3F80
71C0
ENDCHAR
STARTCHAR uni1E19
ENCODING 7705
SWIDTH 614 0
DWIDTH 16 0
BBX 14 18 1 -4
BITMAP
0FE0
3FF0
7FF8
7CF8
F87C
FFFC
FFFC
FFFC
F800
FC00
7E04
3FFC
1FFC
07F8
0000
07C0
0FE0
1C70
ENDCHAR
STARTCHAR uni1E1A
ENCODING 7706
SWIDTH 645 0
DWIDTH 17 0
BBX 13 23 2 -4
BITMAP
FFF0
FFF0
FFF0
F800
F800
F800
F800
F800
FFE0
FFE0
FFE0
F800
F800
F800
F800
F800
FFF8
FFF8
FFF8
0000
3DC0
7FC0
7780
ENDCHAR
STARTCHAR uni1E1B
ENCODING 7707
SWIDTH 614 0
DWIDTH 16 0
BBX 14 18 1 -4
BITMAP
0FE0
3FF0
7FF8
7CF8
F87C
FFFC
FFFC
FFFC
F800
FC00
7E04
3FFC
1FFC
07F8
0000
0F70
1FF0
1DE0
ENDCHAR
STARTCHAR uni1E1C
ENCODING 7708
SWIDTH 645 0
DWIDTH 17 0
BBX 13 28 2 -5
BITMAP
71C0
3F80
1F00
0000
FFF0
FFF0
FFF0
F800
F800
F800
F800
F800
FFE0
FFE0
FFE0
F800
F800
F800
F800
F800
FFF8
FFF8
FFF8
0600
0C00
0700
1F00
1E00
ENDCHAR
STARTCHAR uni1E1D
ENCODING 7709
SWIDTH 614 0
DWIDTH 16 0
BBX 14 23 1 -5
BITMAP
1C70
0FE0
07C0
0000
0FE0
3FF0
7FF8
7CF8
F87C
FFFC
FFFC
FFFC
F800
FC00
7E04
3FFC
1FFC
07F8
0180
0300
01C0
07C0
0780
ENDCHAR
STARTCHAR uni1E1E
ENCODING 7710
SWIDTH 602 0
DWIDTH 16 0
BBX 13 23 2 0
BITMAP
0F00
0F00
0F00
0000
FFF8
FFF8
FFF8
F800
F800
F800
F800
F800
FFF0
FFF0
FFF0
F800
F800
F800
F800
F800
F800
F800
F800
ENDCHAR
STARTCHAR uni1E1F
ENCODING 7711
SWIDTH 461 0
DWIDTH 12 0
BBX 12 24 0 0
BITMAP
0F00
0F00
0F00
0000
07F0
1FF0
1FF0
3E00
3E00
3E00
FFE0
FFE0
FFE0
3E00
3E00
3E00
3E00
3E00
3E00
3E00
3E00
3E00
3E00
3E00
ENDCHAR
STARTCHAR uni1E20
ENCODING 7712
SWIDTH 759 0
DWIDTH 20 0
BBX 17 23 1 0
BITMAP
07F800
07F800
07F800
000000
01FF80
0FFF80
1FFF80
3F0180
7E0000
7C0000
FC0000
F80000
F80000
F80000
F80F80
F80F80
F80F80
7C0F80
7E0F80
3F8F80
1FFF80
0FFF80
03FF00
ENDCHAR
STARTCHAR uni1E21
ENCODING 7713
SWIDTH 696 0
DWIDTH 18 0
BBX 15 23 1 -5
BITMAP
0FF0
0FF0
0FF0
0000
0FBE
3FFE
7FFE
7C7E
FC3E
F83E
F83E
F83E
F83E
F83E
7C7E
7FBE
3FBE
1E3E
003E
207E
3FFC
7FF8
1FE0
ENDCHAR
STARTCHAR uni1E22
ENCODING 7714
SWIDTH 813 0
DWIDTH 21 0
BBX 17 23 2 0
BITMAP
01E000
01E000
01E000
000000
F80F80
F80F80
F80F80
F80F80
F80F80
F80F80
F80F80
F80F80
FFFF80
FFFF80
FFFF80
F80F80
F80F80
F80F80
F80F80
F80F80
F80F80
F80F80
F80F80
ENDCHAR
STARTCHAR uni1E23
ENCODING 7715
SWIDTH 693 0
DWIDTH 18 0
BBX 14 24 2 0
BITMAP
3C00
3C00
3C00
0000
F800
F800
F800
F800
F800
F800
F9F0
FBF8
FFFC
FFFC
FC7C
F87C
F87C
F87C
F87C
F87C
F87C
F87C
F87C
F87C
ENDCHAR
STARTCHAR uni1E24
ENCODING 7716
SWIDTH 813 0
DWIDTH 21 0
BBX 17 23 2 -4
BITMAP
F80F80
F80F80
F80F80
F80F80
F80F80
F80F80
F80F80
F80F80
FFFF80
FFFF80
FFFF80
F80F80
F80F80
F80F80
F80F80
F80F80
F80F80
F80F80
F80F80
000000
01E000
01E000
01E000
ENDCHAR
STARTCHAR uni1E25
ENCODING 7717
SWIDTH 693 0
DWIDTH 18 0
BBX 14 24 2 -4
BITMAP
F800
F800
F800
F800
F800
F800
F9F0
FBF8
FFFC
FFFC
FC7C
F87C
F87C
F87C
F87C
F87C
F87C
F87C
F87C
F87C
0000
0780
0780
0780
ENDCHAR
STARTCHAR uni1E26
ENCODING 7718
SWIDTH 813 0
DWIDTH 21 0
BBX 17 23 2 0
BITMAP
073800
073800
073800
000000
F80F80
F80F80
F80F80
F80F80
F80F80
F80F80
F80F80
F80F80
FFFF80
FFFF80
FFFF80
F80F80
F80F80
F80F80
F80F80
F80F80
F80F80
F80F80
F80F80
ENDCHAR
STARTCHAR uni1E27
ENCODING 7719
SWIDTH 693 0
DWIDTH 18 0
BBX 14 24 2 0
BITMAP
E700
E700
E700
0000
F800
F800
F800
F800
F800
F800
F9F0
FBF8
FFFC
FFFC
FC7C
F87C
F87C
F87C
F87C
F87C
F87C
F87C
F87C
F87C
ENDCHAR
STARTCHAR uni1E28
ENCODING 7720
SWIDTH 813 0
DWIDTH 21 0
BBX 17 24 2 -5
BITMAP
F80F80
F80F80
F80F80
F80F80
F80F80
F80F80
F80F80
F80F80
FFFF80
FFFF80
FFFF80
F80F80
F80F80
F80F80
F80F80
F80F80
F80F80
F80F80
F80F80
00C000
018000
00E000
03E000
03C000
ENDCHAR
STARTCHAR uni1E29
ENCODING 7721
SWIDTH 693 0
DWIDTH 18 0
BBX 14 25 2 -5
BITMAP
F800
F800
F800
F800
F800
F800
F9F0
FBF8
FFFC
FFFC
FC7C
F87C
F87C
F87C
F87C
F87C
F87C
F87C
F87C
F87C
0180
0300
01C0
07C0
0780
ENDCHAR
STARTCHAR uni1E2A
ENCODING 7722
SWIDTH 813 0
DWIDTH 21 0
BBX 17 23 2 -4
BITMAP
F80F80
F80F80
F80F80
F80F80
F80F80
F80F80
F80F80
F80F80
FFFF80
FFFF80
FFFF80
F80F80
F80F80
F80F80
F80F80
F80F80
F80F80
F80F80
F80F80
000000
0E3800
07F000
03E000
ENDCHAR
STARTCHAR uni1E2B
ENCODING 7723
SWIDTH 693 0
DWIDTH 18 0
BBX 14 24 2 -4
BITMAP
F800
F800
F800
F800
F800
F800
F9F0
FBF8
FFFC
FFFC
FC7C
F87C
F87C
F87C
F87C
F87C
F87C
F87C
F87C
F87C
0000
1C70
0FE0
07C0
ENDCHAR
STARTCHAR uni1E2C
ENCODING 7724
SWIDTH 361 0
DWIDTH 9 0
BBX 9 23 0 -4
BITMAP
3E00
3E00
3E00
3E00
3E00
3E00
3E00
3E00
3E00
3E00
3E00
3E00
3E00
3E00
3E00
3E00
3E00
3E00
3E00
0000
7B80
FF80
EF00
ENDCHAR
STARTCHAR uni1E2D
ENCODING 7725
SWIDTH 361 0
DWIDTH 9 0
BBX 9 24 0 -4
BITMAP
3E00
3E00
3E00
0000
0000
0000
3E00
3E00
3E00
3E00
3E00
3E00
3E00
3E00
3E00
3E00
3E00
3E00
3E00
3E00
0000
7B80
FF80
EF00
ENDCHAR
STARTCHAR uni1E2E
ENCODING 7726
SWIDTH 361 0
DWIDTH 9 0
BBX 8 27 1 0
BITMAP
1F
3C
78
00
E7
E7
E7
00
7C
7C
7C
7C
7C
7C
7C
7C
7C
7C
7C
7C
7C
7C
7C
7C
7C
7C
7C
ENDCHAR
STARTCHAR uni1E2F
ENCODING 7727
SWIDTH 361 0
DWIDTH 9 0
BBX 8 22 1 0
BITMAP
1F
3C
78
00
E7
E7
E7
00
7C
7C
7C
7C
7C
7C
7C
7C
7C
7C
7C
7C
7C
7C
ENDCHAR
STARTCHAR uni1E30
ENCODING 7728
SWIDTH 753 0
DWIDTH 20 0
BBX 17 23 2 0
BITMAP
01F000
03C000
078000
000000
F81E00
F81C00
F83C00
F87800
F8F000
F8E000
F9E000
FBC000
FBC000
FFC000
FFE000
FBF000
F9F800
F9F800
F8FC00
F87E00
F87E00
F83F00
F81F80
ENDCHAR
STARTCHAR uni1E31
ENCODING 7729
SWIDTH 681 0
DWIDTH 18 0
BBX 15 24 2 0
BITMAP
0F80
1E00
3C00
0000
F800
F800
F800
F800
F800
F800
F878
F870
F8F0
F9E0
F9C0
FBC0
FFC0
FBE0
FBF0
F9F0
F9F8
F8FC
F8FC
F87E
ENDCHAR
STARTCHAR uni1E32
ENCODING 7730
SWIDTH 753 0
DWIDTH 20 0
BBX 17 23 2 -4
BITMAP
F81E00
F81C00
F83C00
F87800
F8F000
F8E000
F9E000
FBC000
FBC000
FFC000
FFE000
FBF000
F9F800
F9F800
F8FC00
F87E00
F87E00
F83F00
F81F80
000000
03C000
03C000
03C000
ENDCHAR
STARTCHAR uni1E33
ENCODING 7731
SWIDTH 681 0
DWIDTH 18 0
BBX 15 24 2 -4
BITMAP
F800
F800
F800
F800
F800
F800
F878
F870
F8F0
F9E0
F9C0
FBC0
FFC0
FBE0
FBF0
F9F0
F9F8
F8FC
F8FC
F87E
0000
0780
0780
0780
ENDCHAR
STARTCHAR uni1E34
ENCODING 7732
SWIDTH 753 0
DWIDTH 20 0
BBX 17 23 2 -4
BITMAP
F81E00
F81C00
F83C00
F87800
F8F000
F8E000
F9E000
FBC000
FBC000
FFC000
FFE000
FBF000
F9F800
F9F800
F8FC00
F87E00
F87E00
F83F00
F81F80
000000
0FF000
0FF000
0FF000
ENDCHAR
STARTCHAR uni1E35
ENCODING 7733
SWIDTH 681 0
DWIDTH 18 0
BBX 15 24 2 -4
BITMAP
F800
F800
F800
F800
F800
F800
F878
F870
F8F0
F9E0
F9C0
FBC0
FFC0
FBE0
FBF0
F9F0
F9F8
F8FC
F8FC
F87E
0000
1FE0
1FE0
1FE0
ENDCHAR
STARTCHAR uni1E36
ENCODING 7734
SWIDTH 620 0
DWIDTH 16 0
BBX 13 23 2 -4
BITMAP
F800
F800
F800
F800
F800
F800
F800
F800
F800
F800
F800
F800
F800
F800
F800
F800
FFF8
FFF8
FFF8
0000
0F00
0F00
0F00
ENDCHAR
STARTCHAR uni1E37
ENCODING 7735
SWIDTH 361 0
DWIDTH 9 0
BBX 5 24 2 -4
BITMAP
F8
F8
F8
F8
F8
F8
F8
F8
F8
F8
F8
F8
F8
F8
F8
F8
F8
F8
F8
F8
00
78
78
78
ENDCHAR
STARTCHAR uni1E38
ENCODING 7736
SWIDTH 620 0
DWIDTH 16 0
BBX 13 27 2 -4
BITMAP
FF00
FF00
FF00
0000
F800
F800
F800
F800
F800
F800
F800
F800
F800
F800
F800
F800
F800
F800
F800
F800
FFF8
FFF8
FFF8
0000
0F00
0F00
0F00
ENDCHAR
STARTCHAR uni1E39
ENCODING 7737
SWIDTH 361 0
DWIDTH 9 0
BBX 8 28 1 -4
BITMAP
FF
FF
FF
00
7C
7C
7C
7C
7C
7C
7C
7C
7C
7C
7C
7C
7C
7C
7C
7C
7C
7C
7C
7C
00
3C
3C
3C
ENDCHAR
STARTCHAR uni1E3A
ENCODING 7738
SWIDTH 620 0
DWIDTH 16 0
BBX 13 23 2 -4
BITMAP
F800
F800
F800
F800
F800
F800
F800
F800
F800
F800
F800
F800
F800
F800
F800
F800
FFF8
FFF8
FFF8
0000
3FC0
3FC0
3FC0
ENDCHAR
STARTCHAR uni1E3B
ENCODING 7739
SWIDTH 361 0
DWIDTH 9 0
BBX 8 24 1 -4
BITMAP
7C
7C
7C
7C
7C
7C
7C
7C
7C
7C
7C
7C
7C
7C
7C
7C
7C
7C
7C
7C
00
FF
FF
FF
ENDCHAR
STARTCHAR uni1E3C
ENCODING 7740
SWIDTH 620 0
DWIDTH 16 0
BBX 13 23 2 -4
BITMAP
F800
F800
F800
F800
F800
F800
F800
F800
F800
F800
F800
F800
F800
F800
F800
F800
FFF8
FFF8
FFF8
0000
1F00
3F80
71C0
ENDCHAR
STARTCHAR uni1E3D
ENCODING 7741
SWIDTH 361 0
DWIDTH 9 0
BBX 9 24 0 -4
BITMAP
3E00
3E00
3E00
3E00
3E00
3E00
3E00
3E00
3E00
3E00
3E00
3E00
3E00
3E00
3E00
3E00
3E00
3E00
3E00
3E00
0000
3E00
7F00
E380
ENDCHAR
STARTCHAR uni1E3E
ENCODING 7742
SWIDTH 940 0
DWIDTH 24 0
BBX 20 23 2 0
BITMAP
003E00
007800
00F000
000000
FC03F0
FC03F0
FE07F0
FE07F0
FE07F0
FF0FF0
EF0FF0
EF0FF0
EF9DF0
E79DF0
E79DF0
E7F9F0
E3F9F0
E3F9F0
E3F1F0
E1F1F0
E1F1F0
E1E1F0
E001F0
ENDCHAR
STARTCHAR uni1E3F
ENCODING 7743
SWIDTH 1006 0
DWIDTH 26 0
BBX 21 18 3 0
BITMAP
003E00
007800
00F000
000000
FBE1F0
F7F3F8
FFFFF8
FFFFF8
FCFCF8
F8F8F8
F8F8F8
F8F8F8
F8F8F8
F8F8F8
F8F8F8
F8F8F8
F8F8F8
F8F8F8
ENDCHAR
STARTCHAR uni1E40
ENCODING 7744
SWIDTH 940 0
DWIDTH 24 0
BBX 20 23 2 0
BITMAP
00F000
00F000
00F000
000000
FC03F0
FC03F0
FE07F0
FE07F0
FE07F0
FF0FF0
EF0FF0
EF0FF0
EF9DF0
E79DF0
E79DF0
E7F9F0
E3F9F0
E3F9F0
E3F1F0
E1F1F0
E1F1F0
E1E1F0
E001F0
ENDCHAR
STARTCHAR uni1E41
ENCODING 7745
SWIDTH 1006 0
DWIDTH 26 0
BBX 21 18 3 0
BITMAP
00F000
00F000
00F000
000000
FBE1F0
F7F3F8
FFFFF8
FFFFF8
FCFCF8
F8F8F8
F8F8F8
F8F8F8
F8F8F8
F8F8F8
F8F8F8
F8F8F8
F8F8F8
F8F8F8
ENDCHAR
STARTCHAR uni1E42
ENCODING 7746
SWIDTH 940 0
DWIDTH 24 0
BBX 20 23 2 -4
BITMAP
FC03F0
FC03F0
FE07F0
FE07F0
FE07F0
FF0FF0
EF0FF0
EF0FF0
EF9DF0
E79DF0
E79DF0
E7F9F0
E3F9F0
E3F9F0
E3F1F0
E1F1F0
E1F1F0
E1E1F0
E001F0
000000
007800
007800
007800
ENDCHAR
STARTCHAR uni1E43
ENCODING 7747
SWIDTH 1006 0
DWIDTH 26 0
BBX 21 18 3 -4
BITMAP
FBE1F0
F7F3F8
FFFFF8
FFFFF8
FCFCF8
F8F8F8
F8F8F8
F8F8F8
F8F8F8
F8F8F8
F8F8F8
F8F8F8
F8F8F8
F8F8F8
000000
007800
007800
007800
ENDCHAR
STARTCHAR uni1E44
ENCODING 7748
SWIDTH 783 0
DWIDTH 20 0
BBX 16 23 2 0
BITMAP
0780
0780
0780
0000
F007
F807
FC07
FE07
FE07
FF07
FF87
FFC7
EFC7
E7E7
E3F7
E3FF
E1FF
E0FF
E07F
E07F
E03F
E01F
E00F
ENDCHAR
STARTCHAR uni1E45
ENCODING 7749
SWIDTH 693 0
DWIDTH 18 0
BBX 14 18 2 0
BITMAP
0780
0780
0780
0000
F9F0
FBF8
FFFC
FFFC
FC7C
F87C
F87C
F87C
F87C
F87C
F87C
F87C
F87C
F87C
ENDCHAR
STARTCHAR uni1E46
ENCODING 7750
SWIDTH 783 0
DWIDTH 20 0
BBX 16 23 2 -4
BITMAP
F007
F807
FC07
FE07
FE07
FF07
FF87
FFC7
EFC7
E7E7
E3F7
E3FF
E1FF
E0FF
E07F
E07F
E03F
E01F
E00F
0000
01E0
01E0
01E0
ENDCHAR
STARTCHAR uni1E47
ENCODING 7751
SWIDTH 693 0
DWIDTH 18 0
BBX 14 18 2 -4
BITMAP
F9F0
FBF8
FFFC
FFFC
FC7C
F87C
F87C
F87C
F87C
F87C
F87C
F87C
F87C
F87C
0000
0780
0780
0780
ENDCHAR
STARTCHAR uni1E48
ENCODING 7752
SWIDTH 783 0
DWIDTH 20 0
BBX 16 23 2 -4
BITMAP
F007
F807
FC07
FE07
FE07
FF07
FF87
FFC7
EFC7
E7E7
E3F7
E3FF
E1FF
E0FF
E07F
E07F
E03F
E01F
E00F
0000
07F8
07F8
07F8
ENDCHAR
STARTCHAR uni1E49
ENCODING 7753
SWIDTH 693 0
DWIDTH 18 0
BBX 14 18 2 -4
BITMAP
F9F0
FBF8
FFFC
FFFC
FC7C
F87C
F87C
F87C
F87C
F87C
F87C
F87C
F87C
F87C
0000
1FE0
1FE0
1FE0
ENDCHAR
STARTCHAR uni1E4A
ENCODING 7754
SWIDTH 783 0
DWIDTH 20 0
BBX 16 23 2 -4
BITMAP
F007
F807
FC07
FE07
FE07
FF07
FF87
FFC7
EFC7
E7E7
E3F7
E3FF
E1FF
E0FF
E07F
E07F
E03F
E01F
E00F
0000
03E0
07F0
0E38
ENDCHAR
STARTCHAR uni1E4B
ENCODING 7755
SWIDTH 693 0
DWIDTH 18 0
BBX 14 18 2 -4
BITMAP
F9F0
FBF8
FFFC
FFFC
FC7C
F87C
F87C
F87C
F87C
F87C
F87C
F87C
F87C
F87C
0000
07C0
0FE0
1C70
ENDCHAR
STARTCHAR uni1E4C
ENCODING 7756
SWIDTH 855 0
DWIDTH 22 0
BBX 20 27 1 0
BITMAP
003E00
007800
00F000
000000
01EE00
03FE00
03BC00
000000
03FC00
0FFF00
1FFF80
3F0FC0
7E07E0
7C03E0
F801F0
F801F0
F801F0
F801F0
F801F0
F801F0
F801F0
7C03E0
7E07E0
3F0FC0
1FFF80
0FFF00
03FC00
ENDCHAR
STARTCHAR uni1E4D
ENCODING 7757
SWIDTH 675 0
DWIDTH 18 0
BBX 16 22 1 0
BITMAP
00F8
01E0
03C0
0000
07B8
0FF8
0EF0
0000
07E0
1FF8
7FFE
7C3E
FC3F
F81F
F81F
F81F
F81F
FC3F
7C3E
7FFE
1FF8
07E0
ENDCHAR
STARTCHAR uni1E4E
ENCODING 7758
SWIDTH 855 0
DWIDTH 22 0
BBX 20 27 1 0
BITMAP
039C00
039C00
039C00
000000
01EE00
03FE00
03BC00
000000
03FC00
0FFF00
1FFF80
3F0FC0
7E07E0
7C03E0
F801F0
F801F0
F801F0
F801F0
F801F0
F801F0
F801F0
7C03E0
7E07E0
3F0FC0
1FFF80
0FFF00
03FC00
ENDCHAR
STARTCHAR uni1E4F
ENCODING 7759
SWIDTH 675 0
DWIDTH 18 0
BBX 16 22 1 0
BITMAP
0E70
0E70
0E70
0000
07B8
0FF8
0EF0
0000
07E0
1FF8
7FFE
7C3E
FC3F
F81F
F81F
F81F
F81F
FC3F
7C3E
7FFE
1FF8
07E0
ENDCHAR
STARTCHAR uni1E50
ENCODING 7760
SWIDTH 855 0
DWIDTH 22 0
BBX 20 27 1 0
BITMAP
03E000
00F000
007800
000000
03FC00
03FC00
03FC00
000000
03FC00
0FFF00
1FFF80
3F0FC0
7E07E0
7C03E0
F801F0
F801F0
F801F0
F801F0
F801F0
F801F0
F801F0
7C03E0
7E07E0
3F0FC0
1FFF80
0FFF00
03FC00
ENDCHAR
STARTCHAR uni1E51
ENCODING 7761
SWIDTH 675 0
DWIDTH 18 0
BBX 16 22 1 0
BITMAP
0F80
03C0
01E0
0000
0FF0
0FF0
0FF0
0000
07E0
1FF8
7FFE
7C3E
FC3F
F81F
F81F
F81F
F81F
FC3F
7C3E
7FFE
1FF8
07E0
ENDCHAR
STARTCHAR uni1E52
ENCODING 7762
SWIDTH 855 0
DWIDTH 22 0
BBX 20 27 1 0
BITMAP
003E00
007800
00F000
000000
03FC00
03FC00
03FC00
000000
03FC00
0FFF00
1FFF80
3F0FC0
7E07E0
7C03E0
F801F0
F801F0
F801F0
F801F0
F801F0
F801F0
F801F0
7C03E0
7E07E0
3F0FC0
1FFF80
0FFF00
03FC00
ENDCHAR
STARTCHAR uni1E53
ENCODING 7763
SWIDTH 675 0
DWIDTH 18 0
BBX 16 22 1 0
BITMAP
00F8
01E0
03C0
0000
0FF0
0FF0
0FF0
0000
07E0
1FF8
7FFE
7C3E
FC3F
F81F
F81F
F81F
F81F
FC3F
7C3E
7FFE
1FF8
07E0
ENDCHAR
STARTCHAR uni1E54
ENCODING 7764
SWIDTH 657 0
DWIDTH 17 0
BBX 14 23 2 0
BITMAP
03E0
0780
0F00
0000
FFE0
FFF8
FFFC
F8FC
F87C
F87C
F87C
F8FC
F9F8
FFF8
FFF0
FFC0
F800
F800
F800
F800
F800
F800
F800
ENDCHAR
STARTCHAR uni1E55
ENCODING 7765
SWIDTH 696 0
DWIDTH 18 0
BBX 15 23 2 -5
BITMAP
01F0
03C0
0780
0000
F9F0
FBF8
FFFC
FC7C
F83E
F83E
F83E
F83E
F83E
F87E
FC7C
FFFC
FFF8
F9F0
F800
F800
F800
F800
F800
ENDCHAR
STARTCHAR uni1E56
ENCODING 7766
SWIDTH 657 0
DWIDTH 17 0
BBX 14 23 2 0
BITMAP
0780
0780
0780
0000
FFE0
FFF8
FFFC
F8FC
F87C
F87C
F87C
F8FC
F9F8
FFF8
FFF0
FFC0
F800
F800
F800
F800
F800
F800
F800
ENDCHAR
STARTCHAR uni1E57
ENCODING 7767
SWIDTH 696 0
DWIDTH 18 0
BBX 15 23 2 -5
BITMAP
0780
0780
0780
0000
F9F0
FBF8
FFFC
FC7C
F83E
F83E
F83E
F83E
F83E
F87E
FC7C
FFFC
FFF8
F9F0
F800
F800
F800
F800
F800
ENDCHAR
STARTCHAR uni1E58
ENCODING 7768
SWIDTH 734 0
DWIDTH 19 0
BBX 17 23 2 0
BITMAP
078000
078000
078000
000000
FFE000
FFF800
FFF800
F8FC00
F87C00
F87C00
F87C00
F8F800
FFF800
FFF000
FFE000
F9F000
F9F800
F8F800
F8FC00
F87E00
F87F00
F83F00
F83F80
ENDCHAR
STARTCHAR uni1E59
ENCODING 7769
SWIDTH 500 0
DWIDTH 13 0
BBX 10 18 2 0
BITMAP
1E00
1E00
1E00
0000
F9C0
FBC0
FFC0
FFC0
FC00
F800
F800
F800
F800
F800
F800
F800
F800
F800
ENDCHAR
STARTCHAR uni1E5A
ENCODING 7770
SWIDTH 734 0
DWIDTH 19 0
BBX 17 23 2 -4
BITMAP
FFE000
FFF800
FFF800
F8FC00
F87C00
F87C00
F87C00
F8F800
FFF800
FFF000
FFE000
F9F000
F9F800
F8F800
F8FC00
F87E00
F87F00
F83F00
F83F80
000000
03C000
03C000
03C000
ENDCHAR
STARTCHAR uni1E5B
ENCODING 7771
SWIDTH 500 0
DWIDTH 13 0
BBX 10 18 2 -4
BITMAP
F9C0
FBC0
FFC0
FFC0
FC00
F800
F800
F800
F800
F800
F800
F800
F800
F800
0000
7800
7800
7800
ENDCHAR
STARTCHAR uni1E5C
ENCODING 7772
SWIDTH 734 0
DWIDTH 19 0
BBX 17 27 2 -4
BITMAP
1FE000
1FE000
1FE000
000000
FFE000
FFF800
FFF800
F8FC00
F87C00
F87C00
F87C00
F8F800
FFF800
FFF000
FFE000
F9F000
F9F800
F8F800
F8FC00
F87E00
F87F00
F83F00
F83F80
000000
03C000
03C000
03C000
ENDCHAR
STARTCHAR uni1E5D
ENCODING 7773
SWIDTH 500 0
DWIDTH 13 0
BBX 10 22 2 -4
BITMAP
7F80
7F80
7F80
0000
F9C0
FBC0
FFC0
FFC0
FC00
F800
F800
F800
F800
F800
F800
F800
F800
F800
0000
7800
7800
7800
ENDCHAR
STARTCHAR uni1E5E
ENCODING 7774
SWIDTH 734 0
DWIDTH 19 0
BBX 17 23 2 -4
BITMAP
FFE000
FFF800
FFF800
F8FC00
F87C00
F87C00
F87C00
F8F800
FFF800
FFF000
FFE000
F9F000
F9F800
F8F800
F8FC00
F87E00
F87F00
F83F00
F83F80
000000
0FF000
0FF000
0FF000
ENDCHAR
STARTCHAR uni1E5F
ENCODING 7775
SWIDTH 500 0
DWIDTH 13 0
BBX 11 18 1 -4
BITMAP
7CE0
7DE0
7FE0
7FE0
7E00
7C00
7C00
7C00
7C00
7C00
7C00
7C00
7C00
7C00
0000
FF00
FF00
FF00
ENDCHAR
STARTCHAR uni1E60
ENCODING 7776
SWIDTH 594 0
DWIDTH 15 0
BBX 14 23 1 0
BITMAP
0780
0780
0780
0000
0FF8
3FF8
7FF8
FC18
F800
FC00
FE00
7F80
7FE0
3FF0
0FF8
03FC
00FC
007C
007C
C0FC
FFF8
FFF0
FFC0
ENDCHAR
STARTCHAR uni1E61
ENCODING 7777
SWIDTH 622 0
DWIDTH 16 0
BBX 13 18 2 0
BITMAP
0F00
0F00
0F00
0000
1FE0
7FF0
FFF0
F830
F800
FF00
7FC0
1FF0
07F8
01F8
C0F8
FFF0
FFF0
7FC0
ENDCHAR
STARTCHAR uni1E62
ENCODING 7778
SWIDTH 594 0
DWIDTH 15 0
BBX 14 23 1 -4
BITMAP
0FF8
3FF8
7FF8
FC18
F800
FC00
FE00
7F80
7FE0
3FF0
0FF8
03FC
00FC
007C
007C
C0FC
FFF8
FFF0
FFC0
0000
0780
0780
0780
ENDCHAR
STARTCHAR uni1E63
ENCODING 7779
SWIDTH 622 0
DWIDTH 16 0
BBX 13 18 2 -4
BITMAP
1FE0
7FF0
FFF0
F830
F800
FF00
7FC0
1FF0
07F8
01F8
C0F8
FFF0
FFF0
7FC0
0000
0F00
0F00
0F00
ENDCHAR
STARTCHAR uni1E64
ENCODING 7780
SWIDTH 594 0
DWIDTH 15 0
BBX 14 27 1 0
BITMAP
0780
0780
0780
0000
03E0
0780
0F00
0000
0FF8
3FF8
7FF8
FC18
F800
FC00
FE00
7F80
7FE0
3FF0
0FF8
03FC
00FC
007C
007C
C0FC
FFF8
FFF0
FFC0
ENDCHAR
STARTCHAR uni1E65
ENCODING 7781
SWIDTH 622 0
DWIDTH 16 0
BBX 13 22 2 0
BITMAP
0780
0780
0780
0000
03E0
0780
0F00
0000
1FE0
7FF0
FFF0
F830
F800
FF00
7FC0
1FF0
07F8
01F8
C0F8
FFF0
FFF0
7FC0
ENDCHAR
STARTCHAR uni1E66
ENCODING 7782
SWIDTH 594 0
DWIDTH 15 0
BBX 14 27 1 0
BITMAP
0780
0780
0780
0000
1C70
0FE0
07C0
0000
0FF8
3FF8
7FF8
FC18
F800
FC00
FE00
7F80
7FE0
3FF0
0FF8
03FC
00FC
007C
007C
C0FC
FFF8
FFF0
FFC0
ENDCHAR
STARTCHAR uni1E67
ENCODING 7783
SWIDTH 622 0
DWIDTH 16 0
BBX 13 22 2 0
BITMAP
0780
0780
0780
0000
38E0
1FC0
0F80
0000
1FE0
7FF0
FFF0
F830
F800
FF00
7FC0
1FF0
07F8
01F8
C0F8
FFF0
FFF0
7FC0
ENDCHAR
STARTCHAR uni1E68
ENCODING 7784
SWIDTH 594 0
DWIDTH 15 0
BBX 14 27 1 -4
BITMAP
0F00
0F00
0F00
0000
0FF8
3FF8
7FF8
FC18
F800
FC00
FE00
7F80
7FE0
3FF0
0FF8
03FC
00FC
007C
007C
C0FC
FFF8
FFF0
FFC0
0000
0780
0780
0780
ENDCHAR
STARTCHAR uni1E69
ENCODING 7785
SWIDTH 622 0
DWIDTH 16 0
BBX 13 22 2 -4
BITMAP
0F00
0F00
0F00
0000
1FE0
7FF0
FFF0
F830
F800
FF00
7FC0
1FF0
07F8
01F8
C0F8
FFF0
FFF0
7FC0
0000
0F00
0F00
0F00
ENDCHAR
STARTCHAR uni1E6A
ENCODING 7786
SWIDTH 735 0
DWIDTH 19 0
BBX 19 23 0 0
BITMAP
00F000
00F000
00F000
000000
FFFFE0
FFFFE0
FFFFE0
01F000
01F000
01F000
01F000
01F000
01F000
01F000
01F000
01F000
01F000
01F000
01F000
01F000
01F000
01F000
01F000
ENDCHAR
STARTCHAR uni1E6B
ENCODING 7787
SWIDTH 436 0
DWIDTH 11 0
BBX 9 22 1 0
BITMAP
3C00
3C00
3C00
0000
1C00
7C00
7C00
7C00
FF80
FF80
FF80
7C00
7C00
7C00
7C00
7C00
7C00
7C00
7C00
7F80
3F80
1F80
ENDCHAR
STARTCHAR uni1E6C
ENCODING 7788
SWIDTH 735 0
DWIDTH 19 0
BBX 19 23 0 -4
BITMAP
FFFFE0
FFFFE0
FFFFE0
01F000
01F000
01F000
01F000
01F000
01F000
01F000
01F000
01F000
01F000
01F000
01F000
01F000
01F000
01F000
01F000
000000
00F000
00F000
00F000
ENDCHAR
STARTCHAR uni1E6D
ENCODING 7789
SWIDTH 436 0
DWIDTH 11 0
BBX 9 22 1 -4
BITMAP
1C00
7C00
7C00
7C00
FF80
FF80
FF80
7C00
7C00
7C00
7C00
7C00
7C00
7C00
7C00
7F80
3F80
1F80
0000
1E00
1E00
1E00
ENDCHAR
STARTCHAR uni1E6E
ENCODING 7790
SWIDTH 735 0
DWIDTH 19 0
BBX 19 23 0 -4
BITMAP
FFFFE0
FFFFE0
FFFFE0
01F000
01F000
01F000
01F000
01F000
01F000
01F000
01F000
01F000
01F000
01F000
01F000
01F000
01F000
01F000
01F000
000000
03FC00
03FC00
03FC00
ENDCHAR
STARTCHAR uni1E6F
ENCODING 7791
SWIDTH 436 0
DWIDTH 11 0
BBX 9 22 1 -4
BITMAP
1C00
7C00
7C00
7C00
FF80
FF80
FF80
7C00
7C00
7C00
7C00
7C00
7C00
7C00
7C00
7F80
3F80
1F80
0000
7F80
7F80
7F80
ENDCHAR
STARTCHAR uni1E70
ENCODING 7792
SWIDTH 735 0
DWIDTH 19 0
BBX 19 23 0 -4
BITMAP
FFFFE0
FFFFE0
FFFFE0
01F000
01F000
01F000
01F000
01F000
01F000
01F000
01F000
01F000
01F000
01F000
01F000
01F000
01F000
01F000
01F000
000000
01F000
03F800
071C00
ENDCHAR
STARTCHAR uni1E71
ENCODING 7793
SWIDTH 436 0
DWIDTH 11 0
BBX 9 22 1 -4
BITMAP
1C00
7C00
7C00
7C00
FF80
FF80
FF80
7C00
7C00
7C00
7C00
7C00
7C00
7C00
7C00
7F80
3F80
1F80
0000
3E00
7F00
E380
ENDCHAR
STARTCHAR uni1E72
ENCODING 7794
SWIDTH 783 0
DWIDTH 20 0
BBX 16 23 2 -4
BITMAP
F81F
F81F
F81F
F81F
F81F
F81F
F81F
F81F
F81F
F81F
F81F
F81F
F81F
F81F
FC3F
7C3E
7FFE
1FFC
07F0
0000
0E70
0E70
0E70
ENDCHAR
STARTCHAR uni1E73
ENCODING 7795
SWIDTH 693 0
DWIDTH 18 0
BBX 14 18 2 -4
BITMAP
F87C
F87C
F87C
F87C
F87C
F87C
F87C
F87C
F87C
F87C
F8FC
FFFC
7F7C
3E7C
0000
1CE0
1CE0
1CE0
ENDCHAR
STARTCHAR uni1E74
ENCODING 7796
SWIDTH 783 0
DWIDTH 20 0
BBX 16 23 2 -4
BITMAP
F81F
F81F
F81F
F81F
F81F
F81F
F81F
F81F
F81F
F81F
F81F
F81F
F81F
F81F
FC3F
7C3E
7FFE
1FFC
07F0
0000
0F70
1FF0
1DE0
ENDCHAR
STARTCHAR uni1E75
ENCODING 7797
SWIDTH 693 0
DWIDTH 18 0
BBX 14 18 2 -4
BITMAP
F87C
F87C
F87C
F87C
F87C
F87C
F87C
F87C
F87C
F87C
F8FC
FFFC
7F7C
3E7C
0000
1EE0
3FE0
3BC0
ENDCHAR
STARTCHAR uni1E76
ENCODING 7798
SWIDTH 783 0
DWIDTH 20 0
BBX 16 23 2 -4
BITMAP
F81F
F81F
F81F
F81F
F81F
F81F
F81F
F81F
F81F
F81F
F81F
F81F
F81F
F81F
FC3F
7C3E
7FFE
1FFC
07F0
0000
03E0
07F0
0E38
ENDCHAR
STARTCHAR uni1E77
ENCODING 7799
SWIDTH 693 0
DWIDTH 18 0
BBX 14 18 2 -4
BITMAP
F87C
F87C
F87C
F87C
F87C
F87C
F87C
F87C
F87C
F87C
F8FC
FFFC
7F7C
3E7C
0000
07C0
0FE0
1C70
ENDCHAR
STARTCHAR uni1E78
ENCODING 7800
SWIDTH 783 0
DWIDTH 20 0
BBX 16 27 2 0
BITMAP
00F8
01E0
03C0
0000
07B8
0FF8
0EF0
0000
F81F
F81F
F81F
F81F
F81F
F81F
F81F
F81F
F81F
F81F
F81F
F81F
F81F
F81F
FC3F
7C3E
7FFE
1FFC
07F0
ENDCHAR
STARTCHAR uni1E79
ENCODING 7801
SWIDTH 693 0
DWIDTH 18 0
BBX 14 22 2 0
BITMAP
01F0
03C0
0780
0000
0F70
1FF0
1DE0
0000
F87C
F87C
F87C
F87C
F87C
F87C
F87C
F87C
F87C
F87C
F8FC
FFFC
7F7C
3E7C
ENDCHAR
STARTCHAR uni1E7A
ENCODING 7802
SWIDTH 783 0
DWIDTH 20 0
BBX 16 27 2 0
BITMAP
0E70
0E70
0E70
0000
0FF0
0FF0
0FF0
0000
F81F
F81F
F81F
F81F
F81F
F81F
F81F
F81F
F81F
F81F
F81F
F81F
F81F
F81F
FC3F
7C3E
7FFE
1FFC
07F0
ENDCHAR
STARTCHAR uni1E7B
ENCODING 7803
SWIDTH 693 0
DWIDTH 18 0
BBX 14 22 2 0
BITMAP
1CE0
1CE0
1CE0
0000
1FE0
1FE0
1FE0
0000
F87C
F87C
F87C
F87C
F87C
F87C
F87C
F87C
F87C
F87C
F8FC
FFFC
7F7C
3E7C
ENDCHAR
STARTCHAR uni1E7C
ENCODING 7804
SWIDTH 735 0
DWIDTH 19 0
BBX 18 23 0 0
BITMAP
07B800
0FF800
0EF000
000000
F801C0
FC0380
7C0380
7C0380
3E0700
3E0700
3F0700
1F0E00
1F0E00
1F8E00
0F9C00
0F9C00
0FDC00
07F800
07F800
07F800
03F000
03F000
03F000
ENDCHAR
STARTCHAR uni1E7D
ENCODING 7805
SWIDTH 663 0
DWIDTH 17 0
BBX 16 18 1 0
BITMAP
0F70
1FF0
1DE0
0000
FC0F
7C0E
7C0E
7E1E
3E1C
3F1C
1F38
1F38
1FF8
0FF0
0FF0
07E0
07E0
07E0
ENDCHAR
STARTCHAR uni1E7E
ENCODING 7806
SWIDTH 735 0
DWIDTH 19 0
BBX 18 23 0 -4
BITMAP
F801C0
FC0380
7C0380
7C0380
3E0700
3E0700
3F0700
1F0E00
1F0E00
1F8E00
0F9C00
0F9C00
0FDC00
07F800
07F800
07F800
03F000
03F000
03F000
000000
01E000
01E000
01E000
ENDCHAR
STARTCHAR uni1E7F
ENCODING 7807
SWIDTH 663 0
DWIDTH 17 0
BBX 16 18 1 -4
BITMAP
FC0F
7C0E
7C0E
7E1E
3E1C
3F1C
1F38
1F38
1FF8
0FF0
0FF0
07E0
07E0
07E0
0000
03C0
03C0
03C0
ENDCHAR
STARTCHAR Wgrave
ENCODING 7808
SWIDTH 940 0
DWIDTH 24 0
BBX 24 23 0 0
BITMAP
01F000
007800
003C00
000000
F81E07
F83E07
FC3E0E
7C3E0E
7C3F0E
7C7F0E
7E7F1C
3E7F1C
3E7F1C
3E77BC
3EE7B8
1FE7B8
1FE7B8
1FE7F8
1FC3F0
0FC3F0
0FC3F0
0FC3F0
0FC1E0
ENDCHAR
STARTCHAR wgrave
ENCODING 7809
SWIDTH 885 0
DWIDTH 23 0
BBX 21 18 1 0
BITMAP
03E000
00F000
007800
000000
F07838
F87C38
78FC70
78FC70
78FC70
7DFEE0
3DDEE0
3DDEE0
3DDEE0
3F8FC0
1F8FC0
1F8FC0
1F8FC0
1F0F80
ENDCHAR
STARTCHAR Wacute
ENCODING 7810
SWIDTH 940 0
DWIDTH 24 0
BBX 24 23 0 0
BITMAP
001F00
003C00
007800
000000
F81E07
F83E07
FC3E0E
7C3E0E
7C3F0E
7C7F0E
7E7F1C
3E7F1C
3E7F1C
3E77BC
3EE7B8
1FE7B8
1FE7B8
1FE7F8
1FC3F0
0FC3F0
0FC3F0
0FC3F0
0FC1E0
ENDCHAR
STARTCHAR wacute
ENCODING 7811
SWIDTH 885 0
DWIDTH 23 0
BBX 21 18 1 0
BITMAP
003E00
007800
00F000
000000
F07838
F87C38
78FC70
78FC70
78FC70
7DFEE0
3DDEE0
3DDEE0
3DDEE0
3F8FC0
1F8FC0
1F8FC0
1F8FC0
1F0F80
ENDCHAR
STARTCHAR Wdieresis
ENCODING 7812
SWIDTH 940 0
DWIDTH 24 0
BBX 24 23 0 0
BITMAP
01CE00
01CE00
01CE00
000000
F81E07
F83E07
FC3E0E
7C3E0E
7C3F0E
7C7F0E
7E7F1C
3E7F1C
3E7F1C
3E77BC
3EE7B8
1FE7B8
1FE7B8
1FE7F8
1FC3F0
0FC3F0
0FC3F0
0FC3F0
0FC1E0
ENDCHAR
STARTCHAR wdieresis
ENCODING 7813
SWIDTH 885 0
DWIDTH 23 0
BBX 21 18 1 0
BITMAP
039C00
039C00
039C00
000000
F07838
F87C38
78FC70
78FC70
78FC70
7DFEE0
3DDEE0
3DDEE0
3DDEE0
3F8FC0
1F8FC0
1F8FC0
1F8FC0
1F0F80
ENDCHAR
STARTCHAR uni1E86
ENCODING 7814
SWIDTH 940 0
DWIDTH 24 0
BBX 24 23 0 0
BITMAP
007800
007800
007800
000000
F81E07
F83E07
FC3E0E
7C3E0E
7C3F0E
7C7F0E
7E7F1C
3E7F1C
3E7F1C
3E77BC
3EE7B8
1FE7B8
1FE7B8
1FE7F8
1FC3F0
0FC3F0
0FC3F0
0FC3F0
0FC1E0
ENDCHAR
STARTCHAR uni1E87
ENCODING 7815
SWIDTH 885 0
DWIDTH 23 0
BBX 21 18 1 0
BITMAP
00F000
00F000
00F000
000000
F07838
F87C38
78FC70
78FC70
78FC70
7DFEE0
3DDEE0
3DDEE0
3DDEE0
3F8FC0
1F8FC0
1F8FC0
1F8FC0
1F0F80
ENDCHAR
STARTCHAR uni1E88
ENCODING 7816
SWIDTH 940 0
DWIDTH 24 0
BBX 24 23 0 -4
BITMAP
F81E07
F83E07
FC3E0E
7C3E0E
7C3F0E
7C7F0E
7E7F1C
3E7F1C
3E7F1C
3E77BC
3EE7B8
1FE7B8
1FE7B8
1FE7F8
1FC3F0
0FC3F0
0FC3F0
0FC3F0
0FC1E0
000000
003C00
003C00
003C00
ENDCHAR
STARTCHAR uni1E89
ENCODING 7817
SWIDTH 885 0
DWIDTH 23 0
BBX 21 18 1 -4
BITMAP
F07838
F87C38
78FC70
78FC70
78FC70
7DFEE0
3DDEE0
3DDEE0
3DDEE0
3F8FC0
1F8FC0
1F8FC0
1F8FC0
1F0F80
000000
00F000
00F000
00F000
ENDCHAR
STARTCHAR uni1E8A
ENCODING 7818
SWIDTH 699 0
DWIDTH 18 0
BBX 17 23 1 0
BITMAP
03C000
03C000
03C000
000000
FC0780
7E0F00
3E1E00
3F1C00
1FBC00
1FB800
0FF000
07F000
07E000
03F000
03F000
07F800
0FF800
0EFC00
1E7C00
3C7E00
383F00
783F00
F01F80
ENDCHAR
STARTCHAR uni1E8B
ENCODING 7819
SWIDTH 568 0
DWIDTH 15 0
BBX 14 18 1 0
BITMAP
0780
0780
0780
0000
FC3C
7E78
3E70
3FF0
1FE0
1FC0
0FC0
0FC0
0FE0
1FE0
3FF0
39F8
78F8
F0FC
ENDCHAR
STARTCHAR uni1E8C
ENCODING 7820
SWIDTH 699 0
DWIDTH 18 0
BBX 17 23 1 0
BITMAP
0E7000
0E7000
0E7000
000000
FC0780
7E0F00
3E1E00
3F1C00
1FBC00
1FB800
0FF000
07F000
07E000
03F000
03F000
07F800
0FF800
0EFC00
1E7C00
3C7E00
383F00
783F00
F01F80
ENDCHAR
STARTCHAR uni1E8D
ENCODING 7821
SWIDTH 568 0
DWIDTH 15 0
BBX 14 18 1 0
BITMAP
1CE0
1CE0
1CE0
0000
FC3C
7E78
3E70
3FF0
1FE0
1FC0
0FC0
0FC0
0FE0
1FE0
3FF0
39F8
78F8
F0FC
ENDCHAR
STARTCHAR uni1E8E
ENCODING 7822
SWIDTH 738 0
DWIDTH 19 0
BBX 17 23 1 0
BITMAP
03C000
03C000
03C000
000000
FC0780
7C0700
7E0F00
3E0E00
3F1C00
1F1C00
1FB800
0FF800
0FF000
07F000
03E000
03E000
03E000
03E000
03E000
03E000
03E000
03E000
03E000
ENDCHAR
STARTCHAR uni1E8F
ENCODING 7823
SWIDTH 645 0
DWIDTH 17 0
BBX 16 23 0 -5
BITMAP
03C0
03C0
03C0
0000
FC0F
7C0E
7C1E
7E1C
3E3C
3F38
1F78
1F70
1FF0
0FE0
0FE0
07C0
07C0
0780
0780
0F00
0F00
1F00
3E00
ENDCHAR
STARTCHAR uni1E90
ENCODING 7824
SWIDTH 675 0
DWIDTH 18 0
BBX 14 23 2 0
BITMAP
07C0
0FE0
1C70
0000
FFFC
FFFC
FFFC
00FC
01F8
01F8
03F0
07E0
07E0
0FC0
1F80
1F80
3F00
7E00
7E00
FC00
FFFC
FFFC
FFFC
ENDCHAR
STARTCHAR uni1E91
ENCODING 7825
SWIDTH 608 0
DWIDTH 16 0
BBX 13 18 2 0
BITMAP
0F80
1FC0
38E0
0000
FFF8
FFF8
FFF8
03F8
07F0
0FE0
0FC0
1F80
3F00
7F00
FE00
FFF8
FFF8
FFF8
ENDCHAR
STARTCHAR uni1E92
ENCODING 7826
SWIDTH 675 0
DWIDTH 18 0
BBX 14 23 2 -4
BITMAP
FFFC
FFFC
FFFC
00FC
01F8
01F8
03F0
07E0
07E0
0FC0
1F80
1F80
3F00
7E00
7E00
FC00
FFFC
FFFC
FFFC
0000
0F00
0F00
0F00
ENDCHAR
STARTCHAR uni1E93
ENCODING 7827
SWIDTH 608 0
DWIDTH 16 0
BBX 13 18 2 -4
BITMAP
FFF8
FFF8
FFF8
03F8
07F0
0FE0
0FC0
1F80
3F00
7F00
FE00
FFF8
FFF8
FFF8
0000
0F00
0F00
0F00
ENDCHAR
STARTCHAR uni1E94
ENCODING 7828
SWIDTH 675 0
DWIDTH 18 0
BBX 14 23 2 -4
BITMAP
FFFC
FFFC
FFFC
00FC
01F8
01F8
03F0
07E0
07E0
0FC0
1F80
1F80
3F00
7E00
7E00
FC00
FFFC
FFFC
FFFC
0000
3FC0
3FC0
3FC0
ENDCHAR
STARTCHAR uni1E95
ENCODING 7829
SWIDTH 608 0
DWIDTH 16 0
BBX 13 18 2 -4
BITMAP
FFF8
FFF8
FFF8
03F8
07F0
0FE0
0FC0
1F80
3F00
7F00
FE00
FFF8
FFF8
FFF8
0000
3FC0
3FC0
3FC0
ENDCHAR
STARTCHAR uni1E96
ENCODING 7830
SWIDTH 693 0
DWIDTH 18 0
BBX 14 24 2 -4
BITMAP
F800
F800
F800
F800
F800
F800
F9F0
FBF8
FFFC
FFFC
FC7C
F87C
F87C
F87C
F87C
F87C
F87C
F87C
F87C
F87C
0000
1FE0
1FE0
1FE0
ENDCHAR
STARTCHAR uni1E97
ENCODING 7831
SWIDTH 436 0
DWIDTH 11 0
BBX 9 22 1 0
BITMAP
E700
E700
E700
0000
1C00
7C00
7C00
7C00
FF80
FF80
FF80
7C00
7C00
7C00
7C00
7C00
7C00
7C00
7C00
7F80
3F80
1F80
ENDCHAR
STARTCHAR uni1E98
ENCODING 7832
SWIDTH 885 0
DWIDTH 23 0
BBX 21 19 1 0
BITMAP
006000
009000
009000
006000
000000
F07838
F87C38
78FC70
78FC70
78FC70
7DFEE0
3DDEE0
3DDEE0
3DDEE0
3F8FC0
1F8FC0
1F8FC0
1F8FC0
1F0F80
ENDCHAR
STARTCHAR uni1E99
ENCODING 7833
SWIDTH 645 0
DWIDTH 17 0
BBX 16 24 0 -5
BITMAP
0180
0240
0240
0180
0000
FC0F
7C0E
7C1E
7E1C
3E3C
3F38
1F78
1F70
1FF0
0FE0
0FE0
07C0
07C0
0780
0780
0F00
0F00
1F00
3E00
ENDCHAR
STARTCHAR uni1EA0
ENCODING 7840
SWIDTH 773 0
DWIDTH 20 0
BBX 19 23 1 -4
BITMAP
01F000
01F800
03F800
03F800
07FC00
077C00
077E00
0F3E00
0E3E00
0E3F00
1C1F00
1FFF00
3FFF80
3FFF80
380FC0
7807C0
7007C0
7003E0
E003E0
000000
00F000
00F000
00F000
ENDCHAR
STARTCHAR uni1EA1
ENCODING 7841
SWIDTH 623 0
DWIDTH 16 0
BBX 14 18 1 -4
BITMAP
1FC0
7FF0
7FF8
41F8
00F8
00F8
1FF8
7FF8
FFF8
F8F8
F8F8
FFFC
7FFC
3E7C
0000
0780
0780
0780
ENDCHAR
STARTCHAR uni1EA4
ENCODING 7844
SWIDTH 773 0
DWIDTH 20 0
BBX 19 27 1 0
BITMAP
007C00
00F000
01E000
000000
01F000
03F800
071C00
000000
01F000
01F800
03F800
03F800
07FC00
077C00
077E00
0F3E00
0E3E00
0E3F00
1C1F00
1FFF00
3FFF80
3FFF80
380FC0
7807C0
7007C0
7003E0
E003E0
ENDCHAR
STARTCHAR uni1EA5
ENCODING 7845
SWIDTH 623 0
DWIDTH 16 0
BBX 14 22 1 0
BITMAP
01F0
03C0
0780
0000
07C0
0FE0
1C70
0000
1FC0
7FF0
7FF8
41F8
00F8
00F8
1FF8
7FF8
FFF8
F8F8
F8F8
FFFC
7FFC
3E7C
ENDCHAR
STARTCHAR uni1EA6
ENCODING 7846
SWIDTH 773 0
DWIDTH 20 0
BBX 19 27 1 0
BITMAP
07C000
01E000
00F000
000000
01F000
03F800
071C00
000000
01F000
01F800
03F800
03F800
07FC00
077C00
077E00
0F3E00
0E3E00
0E3F00
1C1F00
1FFF00
3FFF80
3FFF80
380FC0
7807C0
7007C0
7003E0
E003E0
ENDCHAR
STARTCHAR uni1EA7
ENCODING 7847
SWIDTH 623 0
DWIDTH 16 0
BBX 14 22 1 0
BITMAP
1F00
0780
03C0
0000
07C0
0FE0
1C70
0000
1FC0
7FF0
7FF8
41F8
00F8
00F8
1FF8
7FF8
FFF8
F8F8
F8F8
FFFC
7FFC
3E7C
ENDCHAR
STARTCHAR uni1EAA
ENCODING 7850
SWIDTH 773 0
DWIDTH 20 0
BBX 19 27 1 0
BITMAP
03DC00
07FC00
077800
000000
01F000
03F800
071C00
000000
01F000
01F800
03F800
03F800
07FC00
077C00
077E00
0F3E00
0E3E00
0E3F00
1C1F00
1FFF00
3FFF80
3FFF80
380FC0
7807C0
7007C0
7003E0
E003E0
ENDCHAR
STARTCHAR uni1EAB
ENCODING 7851
SWIDTH 623 0
DWIDTH 16 0
BBX 14 22 1 0
BITMAP
0F70
1FF0
1DE0
0000
07C0
0FE0
1C70
0000
1FC0
7FF0
7FF8
41F8
00F8
00F8
1FF8
7FF8
FFF8
F8F8
F8F8
FFFC
7FFC
3E7C
ENDCHAR
STARTCHAR uni1EAC
ENCODING 7852
SWIDTH 773 0
DWIDTH 20 0
BBX 19 27 1 -4
BITMAP
01F000
03F800
071C00
000000
01F000
01F800
03F800
03F800
07FC00
077C00
077E00
0F3E00
0E3E00
0E3F00
1C1F00
1FFF00
3FFF80
3FFF80
380FC0
7807C0
7007C0
7003E0
E003E0
000000
00F000
00F000
00F000
ENDCHAR
STARTCHAR uni1EAD
ENCODING 7853
SWIDTH 623 0
DWIDTH 16 0
BBX 14 22 1 -4
BITMAP
07C0
0FE0
1C70
0000
1FC0
7FF0
7FF8
41F8
00F8
00F8
1FF8
7FF8
FFF8
F8F8
F8F8
FFFC
7FFC
3E7C
0000
0780
0780
0780
ENDCHAR
STARTCHAR uni1EAE
ENCODING 7854
SWIDTH 773 0
DWIDTH 20 0
BBX 19 27 1 0
BITMAP
007C00
00F000
01E000
000000
071C00
03F800
01F000
000000
01F000
01F800
03F800
03F800
07FC00
077C00
077E00
0F3E00
0E3E00
0E3F00
1C1F00
1FFF00
3FFF80
3FFF80
380FC0
7807C0
7007C0
7003E0
E003E0
ENDCHAR
STARTCHAR uni1EAF
ENCODING 7855
SWIDTH 623 0
DWIDTH 16 0
BBX 14 22 1 0
BITMAP
01F0
03C0
0780
0000
1C70
0FE0
07C0
0000
1FC0
7FF0
7FF8
41F8
00F8
00F8
1FF8
7FF8
FFF8
F8F8
F8F8
FFFC
7FFC
3E7C
ENDCHAR
STARTCHAR uni1EB0
ENCODING 7856
SWIDTH 773 0
DWIDTH 20 0
BBX 19 27 1 0
BITMAP
07C000
01E000
00F000
000000
071C00
03F800
01F000
000000
01F000
01F800
03F800
03F800
07FC00
077C00
077E00
0F3E00
0E3E00
0E3F00
1C1F00
1FFF00
3FFF80
3FFF80
380FC0
7807C0
7007C0
7003E0
E003E0
ENDCHAR
STARTCHAR uni1EB1
ENCODING 7857
SWIDTH 623 0
DWIDTH 16 0
BBX 14 22 1 0
BITMAP
1F00
0780
03C0
0000
1C70
0FE0
07C0
0000
1FC0
7FF0
7FF8
41F8
00F8
00F8
1FF8
7FF8
FFF8
F8F8
F8F8
FFFC
7FFC
3E7C
ENDCHAR
STARTCHAR uni1EB4
ENCODING 7860
SWIDTH 773 0
DWIDTH 20 0
BBX 19 27 1 0
BITMAP
03DC00
07FC00
077800
000000
071C00
03F800
01F000
000000
01F000
01F800
03F800
03F800
07FC00
077C00
077E00
0F3E00
0E3E00
0E3F00
1C1F00
1FFF00
3FFF80
3FFF80
380FC0
7807C0
7007C0
7003E0
E003E0
ENDCHAR
STARTCHAR uni1EB5
ENCODING 7861
SWIDTH 623 0
DWIDTH 16 0
BBX 14 22 1 0
BITMAP
0F70
1FF0
1DE0
0000
1C70
0FE0
07C0
0000
1FC0
7FF0
7FF8
41F8
00F8
00F8
1FF8
7FF8
FFF8
F8F8
F8F8
FFFC
7FFC
3E7C
ENDCHAR
STARTCHAR uni1EB6
ENCODING 7862
SWIDTH 773 0
DWIDTH 20 0
BBX 19 27 1 -4
BITMAP
071C00
03F800
01F000
000000
01F000
01F800
03F800
03F800
07FC00
077C00
077E00
0F3E00
0E3E00
0E3F00
1C1F00
1FFF00
3FFF80
3FFF80
380FC0
7807C0
7007C0
7003E0
E003E0
000000
00F000
00F000
00F000
ENDCHAR
STARTCHAR uni1EB7
ENCODING 7863
SWIDTH 623 0
DWIDTH 16 0
BBX 14 22 1 -4
BITMAP
1C70
0FE0
07C0
0000
1FC0
7FF0
7FF8
41F8
00F8
00F8
1FF8
7FF8
FFF8
F8F8
F8F8
FFFC
7FFC
3E7C
0000
0780
0780
0780
ENDCHAR
STARTCHAR uni1EB8
ENCODING 7864
SWIDTH 645 0
DWIDTH 17 0
BBX 13 23 2 -4
BITMAP
FFF0
FFF0
FFF0
F800
F800
F800
F800
F800
FFE0
FFE0
FFE0
F800
F800
F800
F800
F800
FFF8
FFF8
FFF8
0000
0F00
0F00
0F00
ENDCHAR
STARTCHAR uni1EB9
ENCODING 7865
SWIDTH 614 0
DWIDTH 16 0
BBX 14 18 1 -4
BITMAP
0FE0
3FF0
7FF8
7CF8
F87C
FFFC
FFFC
FFFC
F800
FC00
7E04
3FFC
1FFC
07F8
0000
03C0
03C0
03C0
ENDCHAR
STARTCHAR uni1EBC
ENCODING 7868
SWIDTH 645 0
DWIDTH 17 0
BBX 13 23 2 0
BITMAP
3DC0
7FC0
7780
0000
FFF0
FFF0
FFF0
F800
F800
F800
F800
F800
FFE0
FFE0
FFE0
F800
F800
F800
F800
F800
FFF8
FFF8
FFF8
ENDCHAR
STARTCHAR uni1EBD
ENCODING 7869
SWIDTH 614 0
DWIDTH 16 0
BBX 14 18 1 0
BITMAP
0F70
1FF0
1DE0
0000
0FE0
3FF0
7FF8
7CF8
F87C
FFFC
FFFC
FFFC
F800
FC00
7E04
3FFC
1FFC
07F8
ENDCHAR
STARTCHAR uni1EBE
ENCODING 7870
SWIDTH 645 0
DWIDTH 17 0
BBX 13 27 2 0
BITMAP
03E0
0780
0F00
0000
0F80
1FC0
38E0
0000
FFF0
FFF0
FFF0
F800
F800
F800
F800
F800
FFE0
FFE0
FFE0
F800
F800
F800
F800
F800
FFF8
FFF8
FFF8
ENDCHAR
STARTCHAR uni1EBF
ENCODING 7871
SWIDTH 614 0
DWIDTH 16 0
BBX 14 22 1 0
BITMAP
01F0
03C0
0780
0000
07C0
0FE0
1C70
0000
0FE0
3FF0
7FF8
7CF8
F87C
FFFC
FFFC
FFFC
F800
FC00
7E04
3FFC
1FFC
07F8
ENDCHAR
STARTCHAR uni1EC0
ENCODING 7872
SWIDTH 645 0
DWIDTH 17 0
BBX 13 27 2 0
BITMAP
3E00
0F00
0780
0000
0F80
1FC0
38E0
0000
FFF0
FFF0
FFF0
F800
F800
F800
F800
F800
FFE0
FFE0
FFE0
F800
F800
F800
F800
F800
FFF8
FFF8
FFF8
ENDCHAR
STARTCHAR uni1EC1
ENCODING 7873
SWIDTH 614 0
DWIDTH 16 0
BBX 14 22 1 0
BITMAP
1F00
0780
03C0
0000
07C0
0FE0
1C70
0000
0FE0
3FF0
7FF8
7CF8
F87C
FFFC
FFFC
FFFC
F800
FC00
7E04
3FFC
1FFC
07F8
ENDCHAR
STARTCHAR uni1EC4
ENCODING 7876
SWIDTH 645 0
DWIDTH 17 0
BBX 13 27 2 0
BITMAP
1EE0
3FE0
3BC0
0000
0F80
1FC0
38E0
0000
FFF0
FFF0
FFF0
F800
F800
F800
F800
F800
FFE0
FFE0
FFE0
F800
F800
F800
F800
F800
FFF8
FFF8
FFF8
ENDCHAR
STARTCHAR uni1EC5
ENCODING 7877
SWIDTH 614 0
DWIDTH 16 0
BBX 14 22 1 0
BITMAP
0F70
1FF0
1DE0
0000
07C0
0FE0
1C70
0000
0FE0
3FF0
7FF8
7CF8
F87C
FFFC
FFFC
FFFC
F800
FC00
7E04
3FFC
1FFC
07F8
ENDCHAR
STARTCHAR uni1EC6
ENCODING 7878
SWIDTH 645 0
DWIDTH 17 0
BBX 13 27 2 -4
BITMAP
1F00
3F80
71C0
0000
FFF0
FFF0
FFF0
F800
F800
F800
F800
F800
FFE0
FFE0
FFE0
F800
F800
F800
F800
F800
FFF8
FFF8
FFF8
0000
0F00
0F00
0F00
ENDCHAR
STARTCHAR uni1EC7
ENCODING 7879
SWIDTH 614 0
DWIDTH 16 0
BBX 14 22 1 -4
BITMAP
07C0
0FE0
1C70
0000
0FE0
3FF0
7FF8
7CF8
F87C
FFFC
FFFC
FFFC
F800
FC00
7E04
3FFC
1FFC
07F8
0000
03C0
03C0
03C0
ENDCHAR
STARTCHAR uni1ECA
ENCODING 7882
SWIDTH 361 0
DWIDTH 9 0
BBX 5 23 2 -4
BITMAP
F8
F8
F8
F8
F8
F8
F8
F8
F8
F8
F8
F8
F8
F8
F8
F8
F8
F8
F8
00
78
78
78
ENDCHAR
STARTCHAR uni1ECB
ENCODING 7883
SWIDTH 361 0
DWIDTH 9 0
BBX 5 24 2 -4
BITMAP
F8
F8
F8
00
00
00
F8
F8
F8
F8
F8
F8
F8
F8
F8
F8
F8
F8
F8
F8
00
78
78
78
ENDCHAR
STARTCHAR uni1ECC
ENCODING 7884
SWIDTH 855 0
DWIDTH 22 0
BBX 20 23 1 -4
BITMAP
03FC00
0FFF00
1FFF80
3F0FC0
7E07E0
7C03E0
F801F0
F801F0
F801F0
F801F0
F801F0
F801F0
F801F0
7C03E0
7E07E0
3F0FC0
1FFF80
0FFF00
03FC00
000000
00F000
00F000
00F000
ENDCHAR
STARTCHAR uni1ECD
ENCODING 7885
SWIDTH 675 0
DWIDTH 18 0
BBX 16 18 1 -4
BITMAP
07E0
1FF8
7FFE
7C3E
FC3F
F81F
F81F
F81F
F81F
FC3F
7C3E
7FFE
1FF8
07E0
0000
03C0
03C0
03C0
ENDCHAR
STARTCHAR uni1ED0
ENCODING 7888
SWIDTH 855 0
DWIDTH 22 0
BBX 20 27 1 0
BITMAP
003E00
007800
00F000
000000
00F800
01FC00
038E00
000000
03FC00
0FFF00
1FFF80
3F0FC0
7E07E0
7C03E0
F801F0
F801F0
F801F0
F801F0
F801F0
F801F0
F801F0
7C03E0
7E07E0
3F0FC0
1FFF80
0FFF00
03FC00
ENDCHAR
STARTCHAR uni1ED1
ENCODING 7889
SWIDTH 675 0
DWIDTH 18 0
BBX 16 22 1 0
BITMAP
00F8
01E0
03C0
0000
03E0
07F0
0E38
0000
07E0
1FF8
7FFE
7C3E
FC3F
F81F
F81F
F81F
F81F
FC3F
7C3E
7FFE
1FF8
07E0
ENDCHAR
STARTCHAR uni1ED2
ENCODING 7890
SWIDTH 855 0
DWIDTH 22 0
BBX 20 27 1 0
BITMAP
03E000
00F000
007800
000000
00F800
01FC00
038E00
000000
03FC00
0FFF00
1FFF80
3F0FC0
7E07E0
7C03E0
F801F0
F801F0
F801F0
F801F0
F801F0
F801F0
F801F0
7C03E0
7E07E0
3F0FC0
1FFF80
0FFF00
03FC00
ENDCHAR
STARTCHAR uni1ED3
ENCODING 7891
SWIDTH 675 0
DWIDTH 18 0
BBX 16 22 1 0
BITMAP
0F80
03C0
01E0
0000
03E0
07F0
0E38
0000
07E0
1FF8
7FFE
7C3E
FC3F
F81F
F81F
F81F
F81F
FC3F
7C3E
7FFE
1FF8
07E0
ENDCHAR
STARTCHAR uni1ED6
ENCODING 7894
SWIDTH 855 0
DWIDTH 22 0
BBX 20 27 1 0
BITMAP
01EE00
03FE00
03BC00
000000
00F800
01FC00
038E00
000000
03FC00
0FFF00
1FFF80
3F0FC0
7E07E0
7C03E0
F801F0
F801F0
F801F0
F801F0
F801F0
F801F0
F801F0
7C03E0
7E07E0
3F0FC0
1FFF80
0FFF00
03FC00
ENDCHAR
STARTCHAR uni1ED7
ENCODING 7895
SWIDTH 675 0
DWIDTH 18 0
BBX 16 22 1 0
BITMAP
07B8
0FF8
0EF0
0000
03E0
07F0
0E38
0000
07E0
1FF8
7FFE
7C3E
FC3F
F81F
F81F
F81F
F81F
FC3F
7C3E
7FFE
1FF8
07E0
ENDCHAR
STARTCHAR uni1ED8
ENCODING 7896
SWIDTH 855 0
DWIDTH 22 0
BBX 20 27 1 -4
BITMAP
00F800
01FC00
038E00
000000
03FC00
0FFF00
1FFF80
3F0FC0
7E07E0
7C03E0
F801F0
F801F0
F801F0
F801F0
F801F0
F801F0
F801F0
7C03E0
7E07E0
3F0FC0
1FFF80
0FFF00
03FC00
000000
00F000
00F000
00F000
ENDCHAR
STARTCHAR uni1ED9
ENCODING 7897
SWIDTH 675 0
DWIDTH 18 0
BBX 16 22 1 -4
BITMAP
03E0
07F0
0E38
0000
07E0
1FF8
7FFE
7C3E
FC3F
F81F
F81F
F81F
F81F
FC3F
7C3E
7FFE
1FF8
07E0
0000
03C0
03C0
03C0
ENDCHAR
STARTCHAR uni1EDA
ENCODING 7898
SWIDTH 855 0
DWIDTH 22 0
BBX 23 23 1 0
BITMAP
000F80
001E00
003C00
000000
03FC3E
0FFF3E
1FFFBE
3F0FFE
7E07FE
7C03EE
F801FC
F801FC
F801F0
F801F0
F801F0
F801F0
F801F0
7C03E0
7E07E0
3F0FC0
1FFF80
0FFF00
03FC00
ENDCHAR
STARTCHAR uni1EDB
ENCODING 7899
SWIDTH 675 0
DWIDTH 18 0
BBX 20 18 1 0
BITMAP
003E00
007800
00F000
000000
07E1F0
1FF9F0
7FFFF0
7C3FF0
FC3FF0
F81F70
F81F60
F81FE0
F81F80
FC3F00
7C3E00
7FFE00
1FF800
07E000
ENDCHAR
STARTCHAR uni1EDC
ENCODING 7900
SWIDTH 855 0
DWIDTH 22 0
BBX 23 23 1 0
BITMAP
00F800
003C00
001E00
000000
03FC3E
0FFF3E
1FFFBE
3F0FFE
7E07FE
7C03EE
F801FC
F801FC
F801F0
F801F0
F801F0
F801F0
F801F0
7C03E0
7E07E0
3F0FC0
1FFF80
0FFF00
03FC00
ENDCHAR
STARTCHAR uni1EDD
ENCODING 7901
SWIDTH 675 0
DWIDTH 18 0
BBX 20 18 1 0
BITMAP
03E000
00F000
007800
000000
07E1F0
1FF9F0
7FFFF0
7C3FF0
FC3FF0
F81F70
F81F60
F81FE0
F81F80
FC3F00
7C3E00
7FFE00
1FF800
07E000
ENDCHAR
STARTCHAR uni1EE0
ENCODING 7904
SWIDTH 855 0
DWIDTH 22 0
BBX 23 23 1 0
BITMAP
007B80
00FF80
00EF00
000000
03FC3E
0FFF3E
1FFFBE
3F0FFE
7E07FE
7C03EE
F801FC
F801FC
F801F0
F801F0
F801F0
F801F0
F801F0
7C03E0
7E07E0
3F0FC0
1FFF80
0FFF00
03FC00
ENDCHAR
STARTCHAR uni1EE1
ENCODING 7905
SWIDTH 675 0
DWIDTH 18 0
BBX 20 18 1 0
BITMAP
00F700
01FF00
01DE00
000000
07E1F0
1FF9F0
7FFFF0
7C3FF0
FC3FF0
F81F70
F81F60
F81FE0
F81F80
FC3F00
7C3E00
7FFE00
1FF800
07E000
ENDCHAR
STARTCHAR uni1EE2
ENCODING 7906
SWIDTH 855 0
DWIDTH 22 0
BBX 23 23 1 -4
BITMAP
03FC3E
0FFF3E
1FFFBE
3F0FFE
7E07FE
7C03EE
F801FC
F801FC
F801F0
F801F0
F801F0
F801F0
F801F0
7C03E0
7E07E0
3F0FC0
1FFF80
0FFF00
03FC00
000000
007800
007800
007800
ENDCHAR
STARTCHAR uni1EE3
ENCODING 7907
SWIDTH 675 0
DWIDTH 18 0
BBX 20 18 1 -4
BITMAP
07E1F0
1FF9F0
7FFFF0
7C3FF0
FC3FF0
F81F70
F81F60
F81FE0
F81F80
FC3F00
7C3E00
7FFE00
1FF800
07E000
000000
01E000
01E000
01E000
ENDCHAR
STARTCHAR uni1EE4
ENCODING 7908
SWIDTH 783 0
DWIDTH 20 0
BBX 16 23 2 -4
BITMAP
F81F
F81F
F81F
F81F
F81F
F81F
F81F
F81F
F81F
F81F
F81F
F81F
F81F
F81F
FC3F
7C3E
7FFE
1FFC
07F0
0000
03C0
03C0
03C0
ENDCHAR
STARTCHAR uni1EE5
ENCODING 7909
SWIDTH 693 0
DWIDTH 18 0
BBX 14 18 2 -4
BITMAP
F87C
F87C
F87C
F87C
F87C
F87C
F87C
F87C
F87C
F87C
F8FC
FFFC
7F7C
3E7C
0000
0780
0780
0780
ENDCHAR
STARTCHAR uni1EE8
ENCODING 7912
SWIDTH 783 0
DWIDTH 20 0
BBX 20 23 2 0
BITMAP
003E00
007800
00F000
000000
F81FF0
F81FF0
F81FF0
F81FF0
F81FF0
F81F70
F81F60
F81FE0
F81F80
F81F00
F81F00
F81F00
F81F00
F81F00
FC3F00
7C3E00
7FFE00
1FFC00
07F000
ENDCHAR
STARTCHAR uni1EE9
ENCODING 7913
SWIDTH 693 0
DWIDTH 18 0
BBX 18 18 2 0
BITMAP
007C00
00F000
01E000
000000
F87FC0
F87FC0
F87FC0
F87FC0
F87FC0
F87DC0
F87D80
F87F80
F87E00
F87C00
F8FC00
FFFC00
7F7C00
3E7C00
ENDCHAR
STARTCHAR uni1EEA
ENCODING 7914
SWIDTH 783 0
DWIDTH 20 0
BBX 20 23 2 0
BITMAP
03E000
00F000
007800
000000
F81FF0
F81FF0
F81FF0
F81FF0
F81FF0
F81F70
F81F60
F81FE0
F81F80
F81F00
F81F00
F81F00
F81F00
F81F00
FC3F00
7C3E00
7FFE00
1FFC00
07F000
ENDCHAR
STARTCHAR uni1EEB
ENCODING 7915
SWIDTH 693 0
DWIDTH 18 0
BBX 18 18 2 0
BITMAP
07C000
01E000
00F000
000000
F87FC0
F87FC0
F87FC0
F87FC0
F87FC0
F87DC0
F87D80
F87F80
F87E00
F87C00
F8FC00
FFFC00
7F7C00
3E7C00
ENDCHAR
STARTCHAR uni1EEE
ENCODING 7918
SWIDTH 783 0
DWIDTH 20 0
BBX 20 23 2 0
BITMAP
01EE00
03FE00
03BC00
000000
F81FF0
F81FF0
F81FF0
F81FF0
F81FF0
F81F70
F81F60
F81FE0
F81F80
F81F00
F81F00
F81F00
F81F00
F81F00
FC3F00
7C3E00
7FFE00
1FFC00
07F000
ENDCHAR
STARTCHAR uni1EEF
ENCODING 7919
SWIDTH 693 0
DWIDTH 18 0
BBX 18 18 2 0
BITMAP
03DC00
07FC00
077800
000000
F87FC0
F87FC0
F87FC0
F87FC0
F87FC0
F87DC0
F87D80
F87F80
F87E00
F87C00
F8FC00
FFFC00
7F7C00
3E7C00
ENDCHAR
STARTCHAR uni1EF0
ENCODING 7920
SWIDTH 783 0
DWIDTH 20 0
BBX 20 23 2 -4
BITMAP
F81FF0
F81FF0
F81FF0
F81FF0
F81FF0
F81F70
F81F60
F81FE0
F81F80
F81F00
F81F00
F81F00
F81F00
F81F00
FC3F00
7C3E00
7FFE00
1FFC00
07F000
000000
01E000
01E000
01E000
ENDCHAR
STARTCHAR uni1EF1
ENCODING 7921
SWIDTH 693 0
DWIDTH 18 0
BBX 18 18 2 -4
BITMAP
F87FC0
F87FC0
F87FC0
F87FC0
F87FC0
F87DC0
F87D80
F87F80
F87E00
F87C00
F8FC00
FFFC00
7F7C00
3E7C00
000000
03C000
03C000
03C000
ENDCHAR
STARTCHAR Ygrave
ENCODING 7922
SWIDTH 738 0
DWIDTH 19 0
BBX 17 23 1 0
BITMAP
0F8000
03C000
01E000
000000
FC0780
7C0700
7E0F00
3E0E00
3F1C00
1F1C00
1FB800
0FF800
0FF000
07F000
03E000
03E000
03E000
03E000
03E000
03E000
03E000
03E000
03E000
ENDCHAR
STARTCHAR ygrave
ENCODING 7923
SWIDTH 645 0
DWIDTH 17 0
BBX 16 23 0 -5
BITMAP
1F00
0780
03C0
0000
FC0F
7C0E
7C1E
7E1C
3E3C
3F38
1F78
1F70
1FF0
0FE0
0FE0
07C0
07C0
0780
0780
0F00
0F00
1F00
3E00
ENDCHAR
STARTCHAR uni1EF4
ENCODING 7924
SWIDTH 738 0
DWIDTH 19 0
BBX 17 23 1 -4
BITMAP
FC0780
7C0700
7E0F00
3E0E00
3F1C00
1F1C00
1FB800
0FF800
0FF000
07F000
03E000
03E000
03E000
03E000
03E000
03E000
03E000
03E000
03E000
000000
01E000
01E000
01E000
ENDCHAR
STARTCHAR uni1EF5
ENCODING 7925
SWIDTH 645 0
DWIDTH 17 0
BBX 16 23 0 -9
BITMAP
FC0F
7C0E
7C1E
7E1C
3E3C
3F38
1F78
1F70
1FF0
0FE0
0FE0
07C0
07C0
0780
0780
0F00
0F00
1F00
3E00
0000
0F00
0F00
0F00
ENDCHAR
STARTCHAR uni1EF8
ENCODING 7928
SWIDTH 738 0
DWIDTH 19 0
BBX 17 23 1 0
BITMAP
07B800
0FF800
0EF000
000000
FC0780
7C0700
7E0F00
3E0E00
3F1C00
1F1C00
1FB800
0FF800
0FF000
07F000
03E000
03E000
03E000
03E000
03E000
03E000
03E000
03E000
03E000
ENDCHAR
STARTCHAR uni1EF9
ENCODING 7929
SWIDTH 645 0
DWIDTH 17 0
BBX 16 23 0 -5
BITMAP
0F70
1FF0
1DE0
0000
FC0F
7C0E
7C1E
7E1C
3E3C
3F38
1F78
1F70
1FF0
0FE0
0FE0
07C0
07C0
0780
0780
0F00
0F00
1F00
3E00
ENDCHAR
STARTCHAR uni2000
ENCODING 8192
SWIDTH 500 0
DWIDTH 13 0
BBX 1 1 0 0
BITMAP
00
ENDCHAR
STARTCHAR uni2001
ENCODING 8193
SWIDTH 1000 0
DWIDTH 26 0
BBX 1 1 0 0
BITMAP
00
ENDCHAR
STARTCHAR uni2002
ENCODING 8194
SWIDTH 500 0
DWIDTH 13 0
BBX 1 1 0 0
BITMAP
00
ENDCHAR
STARTCHAR uni2003
ENCODING 8195
SWIDTH 1000 0
DWIDTH 26 0
BBX 1 1 0 0
BITMAP
00
ENDCHAR
STARTCHAR uni2004
ENCODING 8196
SWIDTH 333 0
DWIDTH 9 0
BBX 1 1 0 0
BITMAP
00
ENDCHAR
STARTCHAR uni2005
ENCODING 8197
SWIDTH 250 0
DWIDTH 7 0
BBX 1 1 0 0
BITMAP
00
ENDCHAR
STARTCHAR uni2006
ENCODING 8198
SWIDTH 167 0
DWIDTH 4 0
BBX 1 1 0 0
BITMAP
00
ENDCHAR
STARTCHAR uni2007
ENCODING 8199
SWIDTH 687 0
DWIDTH 18 0
BBX 1 1 0 0
BITMAP
00
ENDCHAR
STARTCHAR uni2008
ENCODING 8200
SWIDTH 343 0
DWIDTH 9 0
BBX 1 1 0 0
BITMAP
00
ENDCHAR
STARTCHAR uni2009
ENCODING 8201
SWIDTH 200 0
DWIDTH 5 0
BBX 1 1 0 0
BITMAP
00
ENDCHAR
STARTCHAR uni200A
ENCODING 8202
SWIDTH 100 0
DWIDTH 3 0
BBX 1 1 0 0
BITMAP
00
ENDCHAR
STARTCHAR uni200B
ENCODING 8203
SWIDTH 0 0
DWIDTH 0 0
BBX 1 1 0 0
BITMAP
00
ENDCHAR
STARTCHAR uni2010
ENCODING 8208
SWIDTH 289 0
DWIDTH 8 0
BBX 6 3 1 7
BITMAP
FC
FC
FC
ENDCHAR
STARTCHAR uni2011
ENCODING 8209
SWIDTH 289 0
DWIDTH 8 0
BBX 6 3 1 7
BITMAP
FC
FC
FC
ENDCHAR
STARTCHAR figuredash
ENCODING 8210
SWIDTH 500 0
DWIDTH 13 0
BBX 11 3 1 7
BITMAP
FFE0
FFE0
FFE0
ENDCHAR
STARTCHAR endash
ENCODING 8211
SWIDTH 500 0
DWIDTH 13 0
BBX 11 3 1 7
BITMAP
FFE0
FFE0
FFE0
ENDCHAR
STARTCHAR emdash
ENCODING 8212
SWIDTH 1000 0
DWIDTH 26 0
BBX 24 2 1 7
BITMAP
FFFFFF
FFFFFF
ENDCHAR
STARTCHAR afii00208
ENCODING 8213
SWIDTH 1000 0
DWIDTH 26 0
BBX 24 2 1 7
BITMAP
FFFFFF
FFFFFF
ENDCHAR
STARTCHAR quoteleft
ENCODING 8216
SWIDTH 265 0
DWIDTH 7 0
BBX 5 9 1 11
BITMAP
18
78
60
E0
F8
F8
F8
F8
F8
ENDCHAR
STARTCHAR quoteright
ENCODING 8217
SWIDTH 265 0
DWIDTH 7 0
BBX 5 9 1 11
BITMAP
F8
F8
F8
F8
F8
38
30
F0
C0
ENDCHAR
STARTCHAR quotesinglbase
ENCODING 8218
SWIDTH 265 0
DWIDTH 7 0
BBX 5 9 1 -4
BITMAP
F8
F8
F8
F8
F8
38
70
F0
C0
ENDCHAR
STARTCHAR quotereversed
ENCODING 8219
SWIDTH 265 0
DWIDTH 7 0
BBX 5 9 1 11
BITMAP
F8
F8
F8
F8
F8
E0
60
78
18
ENDCHAR
STARTCHAR quotedblleft
ENCODING 8220
SWIDTH 530 0
DWIDTH 14 0
BBX 12 9 1 11
BITMAP
1830
78F0
70E0
E1C0
F9F0
F9F0
F9F0
F9F0
F9F0
ENDCHAR
STARTCHAR quotedblright
ENCODING 8221
SWIDTH 530 0
DWIDTH 14 0
BBX 12 9 1 11
BITMAP
F9F0
F9F0
F9F0
F9F0
F9F0
3870
70E0
F1E0
C180
ENDCHAR
STARTCHAR quotedblbase
ENCODING 8222
SWIDTH 530 0
DWIDTH 14 0
BBX 12 9 1 -4
BITMAP
F9F0
F9F0
F9F0
F9F0
F9F0
3870
70E0
F1E0
C180
ENDCHAR
STARTCHAR uni201F
ENCODING 8223
SWIDTH 530 0
DWIDTH 14 0
BBX 12 9 1 11
BITMAP
F9F0
F9F0
F9F0
F9F0
F9F0
E1C0
70E0
78F0
1830
ENDCHAR
STARTCHAR dagger
ENCODING 8224
SWIDTH 693 0
DWIDTH 18 0
BBX 14 23 2 -4
BITMAP
0780
0780
0780
0780
0780
0780
FFFC
FFFC
FFFC
0780
0780
0780
0780
0780
0780
0780
0780
0780
0780
0780
0780
0780
0780
ENDCHAR
STARTCHAR daggerdbl
ENCODING 8225
SWIDTH 693 0
DWIDTH 18 0
BBX 14 23 2 -4
BITMAP
0780
0780
0780
0780
0780
0780
FFFC
FFFC
FFFC
0780
0780
0780
0780
0780
FFFC
FFFC
FFFC
0780
0780
0780
0780
0780
0780
ENDCHAR
STARTCHAR bullet
ENCODING 8226
SWIDTH 687 0
DWIDTH 18 0
BBX 10 10 4 3
BITMAP
FFC0
FFC0
FFC0
FFC0
FFC0
FFC0
FFC0
FFC0
FFC0
FFC0
ENDCHAR
STARTCHAR ellipsis
ENCODING 8230
SWIDTH 1000 0
DWIDTH 26 0
BBX 20 3 3 0
BITMAP
E0E070
E0E070
E0E070
ENDCHAR
STARTCHAR perthousand
ENCODING 8240
SWIDTH 1313 0
DWIDTH 34 0
BBX 33 19 1 0
BITMAP
3E00F00000
7F01E00000
7F01C00000
E783C00000
E387800000
E38F000000
E78E000000
7F1E000000
7F3C000000
3E78000000
0071E03E00
00E7F87F00
01EFFCFF80
03CF3CE380
078E1CE380
070F3CE380
0F0FFCFF80
1E07F87F00
3C01E03E00
ENDCHAR
STARTCHAR guilsinglleft
ENCODING 8249
SWIDTH 361 0
DWIDTH 9 0
BBX 8 12 1 1
BITMAP
02
07
0E
1E
3C
F8
78
3C
1E
0E
07
04
ENDCHAR
STARTCHAR guilsinglright
ENCODING 8250
SWIDTH 361 0
DWIDTH 9 0
BBX 8 12 1 1
BITMAP
20
E0
70
78
3C
1E
1F
3C
78
70
E0
40
ENDCHAR
STARTCHAR fraction
ENCODING 8260
SWIDTH 93 0
DWIDTH 2 0
BBX 18 19 -7 0
BITMAP
0003C0
000780
000F00
000E00
001E00
003C00
007800
007000
00F000
01E000
03C000
038000
078000
0F0000
1E0000
1C0000
3C0000
780000
F00000
ENDCHAR
STARTCHAR oneinferior
ENCODING 8321
SWIDTH 536 0
DWIDTH 11 0
BBX 5 11 -17 -6
BITMAP
F8
F8
38
38
38
38
38
38
38
38
38
ENDCHAR
STARTCHAR twoinferior
ENCODING 8322
SWIDTH 536 0
DWIDTH 11 0
BBX 8 11 -16 -6
BITMAP
7C
FF
87
07
07
0E
1C
78
F0
FF
FF
ENDCHAR
STARTCHAR threeinferior
ENCODING 8323
SWIDTH 536 0
DWIDTH 11 0
BBX 8 11 -17 -6
BITMAP
7C
FF
87
07
7E
7C
0E
07
87
FF
FC
ENDCHAR
STARTCHAR uni20A5
ENCODING 8357
SWIDTH 1006 0
DWIDTH 26 0
BBX 21 24 3 -5
BITMAP
0003C0
000380
000780
000700
000F00
FBEFF0
F7FFF8
FFFFF8
FFFFF8
FCFCF8
F8F8F8
F8F8F8
F8F8F8
F8F8F8
F8F8F8
F9F8F8
F9F8F8
FBF8F8
FBF8F8
078000
070000
0F0000
0E0000
1E0000
ENDCHAR
STARTCHAR uni20A6
ENCODING 8358
SWIDTH 783 0
DWIDTH 20 0
BBX 16 19 2 0
BITMAP
F007
F807
FC07
FE07
FFFF
FFFF
FFFF
FFC7
EFC7
E7E7
E3F7
FFFF
FFFF
FFFF
E07F
E07F
E03F
E01F
E00F
ENDCHAR
STARTCHAR uni20A9
ENCODING 8361
SWIDTH 940 0
DWIDTH 24 0
BBX 24 19 0 0
BITMAP
F81E07
F83E07
FC3E0E
7C3E0E
7FFFFE
7FFFFE
7FFFFC
3E7F1C
3E7F1C
3E77BC
3EE7B8
1FFFF8
1FFFF8
1FFFF8
1FC3F0
0FC3F0
0FC3F0
0FC3F0
0FC1E0
ENDCHAR
STARTCHAR Euro
ENCODING 8364
SWIDTH 726 0
DWIDTH 19 0
BBX 21 19 -3 0
BITMAP
001FF0
00FFF8
01FFF8
03F018
FFFE00
FFFE00
FFFE00
0F8000
0F8000
0F8000
0F8000
FFFE00
FFFE00
FFFE00
07E000
03F818
01FFF8
00FFF8
003FE0
ENDCHAR
STARTCHAR uni20AD
ENCODING 8365
SWIDTH 753 0
DWIDTH 20 0
BBX 17 19 2 0
BITMAP
F81E00
F81C00
F83C00
F87800
F8F000
F8E000
F9E000
FBC000
FFFF80
FFFF80
FFFF80
FBF000
F9F800
F9F800
F8FC00
F87E00
F87E00
F83F00
F81F80
ENDCHAR
STARTCHAR uni2103
ENCODING 8451
SWIDTH 955 0
DWIDTH 25 0
BBX 23 19 1 0
BITMAP
6007FC
903FFE
907FFE
90FC06
61F800
01F000
03F000
03E000
03E000
03E000
03E000
03E000
03F000
01F000
01F800
00FE06
007FFE
003FFE
000FF8
ENDCHAR
STARTCHAR uni2109
ENCODING 8457
SWIDTH 831 0
DWIDTH 22 0
BBX 20 19 1 0
BITMAP
61FFF0
91FFF0
91FFF0
91F000
61F000
01F000
01F000
01F000
01FFE0
01FFE0
01FFE0
01F000
01F000
01F000
01F000
01F000
01F000
01F000
01F000
ENDCHAR
STARTCHAR trademark
ENCODING 8482
SWIDTH 901 0
DWIDTH 23 0
BBX 23 10 0 9
BITMAP
FFEF1E
FFEFBE
FFEFBE
1F0FBE
1F0FFE
1F0FFE
1F0FFE
1F0FFE
1F0EBE
1F0E3E
ENDCHAR
STARTCHAR uni212A
ENCODING 8490
SWIDTH 753 0
DWIDTH 20 0
BBX 17 19 2 0
BITMAP
F81E00
F81C00
F83C00
F87800
F8F000
F8E000
F9E000
FBC000
FBC000
FFC000
FFE000
FBF000
F9F800
F9F800
F8FC00
F87E00
F87E00
F83F00
F81F80
ENDCHAR
STARTCHAR uni212B
ENCODING 8491
SWIDTH 773 0
DWIDTH 20 0
BBX 19 24 1 0
BITMAP
00C000
012000
012000
00C000
000000
01F000
01F800
03F800
03F800
07FC00
077C00
077E00
0F3E00
0E3E00
0E3F00
1C1F00
1FFF00
3FFF80
3FFF80
380FC0
7807C0
7007C0
7003E0
E003E0
ENDCHAR
STARTCHAR uni2132
ENCODING 8498
SWIDTH 602 0
DWIDTH 16 0
BBX 13 19 2 0
BITMAP
00F8
00F8
00F8
00F8
00F8
00F8
00F8
00F8
7FF8
7FF8
7FF8
00F8
00F8
00F8
00F8
00F8
FFF8
FFF8
FFF8
ENDCHAR
STARTCHAR universal
ENCODING 8704
SWIDTH 773 0
DWIDTH 20 0
BBX 19 19 1 0
BITMAP
E003E0
7003E0
7007C0
7807C0
380FC0
3FFF80
3FFF80
1FFF00
1C1F00
0E3F00
0E3E00
0F3E00
077E00
077C00
07FC00
03F800
03F800
01F800
01F000
ENDCHAR
STARTCHAR existential
ENCODING 8707
SWIDTH 645 0
DWIDTH 17 0
BBX 13 19 2 0
BITMAP
7FF8
7FF8
7FF8
00F8
00F8
00F8
00F8
00F8
3FF8
3FF8
3FF8
00F8
00F8
00F8
00F8
00F8
FFF8
FFF8
FFF8
ENDCHAR
STARTCHAR uni2204
ENCODING 8708
SWIDTH 645 0
DWIDTH 17 0
BBX 15 24 1 -2
BITMAP
001E
001C
003C
3FFC
3FFC
3FFC
00FC
00FC
00FC
01FC
01FC
1FFC
1FFC
1FFC
077C
0E7C
0E7C
1E7C
1C7C
7FFC
7FFC
7FFC
7000
F000
ENDCHAR
STARTCHAR minus
ENCODING 8722
SWIDTH 687 0
DWIDTH 18 0
BBX 15 3 1 6
BITMAP
FFFE
FFFE
FFFE
ENDCHAR
STARTCHAR fraction
ENCODING 8725
SWIDTH 93 0
DWIDTH 2 0
BBX 18 19 -7 0
BITMAP
0003C0
000780
000F00
000E00
001E00
003C00
007800
007000
00F000
01E000
03C000
038000
078000
0F0000
1E0000
1C0000
3C0000
780000
F00000
ENDCHAR
STARTCHAR periodcentered
ENCODING 8729
SWIDTH 343 0
DWIDTH 18 0
BBX 4 3 7 7
BITMAP
F0
F0
F0
ENDCHAR
STARTCHAR uni2236
ENCODING 8758
SWIDTH 343 0
DWIDTH 9 0
BBX 5 14 2 0
BITMAP
F8
F8
F8
F8
F8
00
00
00
00
F8
F8
F8
F8
F8
ENDCHAR
STARTCHAR uni2259
ENCODING 8793
SWIDTH 687 0
DWIDTH 18 0
BBX 15 14 1 2
BITMAP
07C0
0FE0
1C70
0000
FFFE
FFFE
FFFE
0000
0000
0000
0000
FFFE
FFFE
FFFE
ENDCHAR
STARTCHAR uni225A
ENCODING 8794
SWIDTH 687 0
DWIDTH 18 0
BBX 15 14 1 2
BITMAP
1C70
0FE0
07C0
0000
FFFE
FFFE
FFFE
0000
0000
0000
0000
FFFE
FFFE
FFFE
ENDCHAR
STARTCHAR notequal
ENCODING 8800
SWIDTH 687 0
DWIDTH 18 0
BBX 15 24 1 -5
BITMAP
001E
001C
003C
0038
0078
0070
00F0
FFFE
FFFE
FFFE
01C0
0380
0380
0700
FFFE
FFFE
FFFE
1E00
1C00
3C00
3800
7800
7000
F000
ENDCHAR
STARTCHAR equivalence
ENCODING 8801
SWIDTH 687 0
DWIDTH 18 0
BBX 15 11 0 2
BITMAP
FFFE
FFFE
FFFE
0000
FFFE
FFFE
FFFE
0000
FFFE
FFFE
FFFE
ENDCHAR
STARTCHAR uni2262
ENCODING 8802
SWIDTH 687 0
DWIDTH 18 0
BBX 15 24 0 -4
BITMAP
001E
001C
003C
0038
0078
0070
00F0
FFFE
FFFE
FFFE
01C0
FFFE
FFFE
FFFE
0700
FFFE
FFFE
FFFE
1C00
3C00
3800
7800
7000
F000
ENDCHAR
STARTCHAR lessequal
ENCODING 8804
SWIDTH 687 0
DWIDTH 18 0
BBX 15 20 1 -4
BITMAP
0002
000E
003E
00FE
01F8
07E0
1F80
FE00
7E00
1F80
07E0
01F8
00FE
003E
000E
0002
0000
FFFE
FFFE
FFFE
ENDCHAR
STARTCHAR greaterequal
ENCODING 8805
SWIDTH 687 0
DWIDTH 18 0
BBX 15 20 1 -4
BITMAP
8000
E000
F800
FE00
3F00
0FC0
03F0
00FC
00FE
03F0
0FC0
3F00
FE00
F800
E000
8000
0000
FFFE
FFFE
FFFE
ENDCHAR
STARTCHAR uni226E
ENCODING 8814
SWIDTH 687 0
DWIDTH 18 0
BBX 15 24 1 -4
BITMAP
001E
001C
003C
0038
007A
007E
00FE
00FE
01F8
07E0
1FC0
FF80
7F80
1F80
07E0
0FF8
0EFE
1E3E
1C0E
3C02
3800
7800
7000
F000
ENDCHAR
STARTCHAR uni226F
ENCODING 8815
SWIDTH 687 0
DWIDTH 18 0
BBX 15 24 1 -4
BITMAP
001E
001C
003C
0038
8078
E070
F8F0
FEE0
3FE0
0FC0
03F0
03FC
03FE
07F0
0FC0
3F00
FE00
FE00
FC00
BC00
3800
7800
7000
F000
ENDCHAR
STARTCHAR uni2270
ENCODING 8816
SWIDTH 687 0
DWIDTH 18 0
BBX 15 24 1 -6
BITMAP
001E
001C
003E
003E
007E
00FE
01F8
07E0
1FE0
FFC0
7FC0
1F80
07E0
07F8
07FE
0E3E
0E0E
1E02
1C00
FFFE
FFFE
FFFE
7000
F000
ENDCHAR
STARTCHAR uni2271
ENCODING 8817
SWIDTH 687 0
DWIDTH 18 0
BBX 15 24 1 -6
BITMAP
001E
001C
803C
E038
F878
FE70
3FF0
0FE0
03F0
01FC
01FE
03F0
0FC0
3F00
FF00
FE00
EE00
9E00
1C00
FFFE
FFFE
FFFE
7000
F000
ENDCHAR
STARTCHAR fi
ENCODING -1
SWIDTH 711 0
DWIDTH 18 0
BBX 16 20 0 0
BITMAP
07F0
1FF0
1FF0
3E00
3E00
3E00
FFFF
FFFF
FFFF
3E1F
3E1F
3E1F
3E1F
3E1F
3E1F
3E1F
3E1F
3E1F
3E1F
3E1F
ENDCHAR
STARTCHAR fl
ENCODING -1
SWIDTH 711 0
DWIDTH 18 0
BBX 16 20 0 0
BITMAP
0FFF
1FFF
3FFF
3E1F
3E1F
3E1F
FFDF
FFDF
FFDF
3E1F
3E1F
3E1F
3E1F
3E1F
3E1F
3E1F
3E1F
3E1F
3E1F
3E1F
ENDCHAR
ENDFONT
